KarnataGTN-Black.ufo
<glyph name="exclam" format="2">
  <advance width="174"/>
  <unicode hex="0021"/>
  <outline>
    <contour>
      <point x="32" y="693" type="curve" smooth="yes"/>
      <point x="3" y="591"/>
      <point x="4" y="266"/>
      <point x="31" y="152" type="curve" smooth="yes"/>
      <point x="38" y="125"/>
      <point x="65" y="109"/>
      <point x="92" y="115" type="curve"/>
      <point x="119" y="122"/>
      <point x="136" y="149"/>
      <point x="129" y="176" type="curve" smooth="yes"/>
      <point x="105" y="276"/>
      <point x="105" y="583"/>
      <point x="128" y="665" type="curve" smooth="yes"/>
      <point x="136" y="692"/>
      <point x="120" y="720"/>
      <point x="94" y="727" type="curve" smooth="yes"/>
      <point x="67" y="735"/>
      <point x="39" y="719"/>
    </contour>
    <contour>
      <point x="27" y="20" type="curve" smooth="yes"/>
      <point x="27" y="-8"/>
      <point x="45" y="-44"/>
      <point x="100" y="-44" type="curve" smooth="yes"/>
      <point x="137" y="-44"/>
      <point x="164" y="-12"/>
      <point x="164" y="20" type="curve" smooth="yes"/>
      <point x="164" y="57"/>
      <point x="139" y="93"/>
      <point x="100" y="93" type="curve" smooth="yes"/>
      <point x="59" y="93"/>
      <point x="27" y="65"/>
    </contour>
  </outline>
</glyph>
<glyph name="comma" format="2">
  <advance width="202"/>
  <unicode hex="002C"/>
  <outline>
    <contour>
      <point x="101" y="7" type="curve"/>
      <point x="100" y="0"/>
      <point x="101" y="-47"/>
      <point x="39" y="-77" type="curve" smooth="yes"/>
      <point x="14" y="-89"/>
      <point x="4" y="-119"/>
      <point x="16" y="-144" type="curve" smooth="yes"/>
      <point x="28" y="-169"/>
      <point x="58" y="-179"/>
      <point x="83" y="-167" type="curve" smooth="yes"/>
      <point x="259" y="-83"/>
      <point x="195" y="136"/>
      <point x="75" y="103" type="curve" smooth="yes"/>
      <point x="48" y="96"/>
      <point x="33" y="68"/>
      <point x="40" y="42" type="curve" smooth="yes"/>
      <point x="48" y="15"/>
      <point x="75" y="-1"/>
    </contour>
  </outline>
</glyph>
<glyph name="period" format="2">
  <advance width="158"/>
  <unicode hex="002E"/>
  <outline>
    <contour>
      <point x="10" y="28" type="curve" smooth="yes"/>
      <point x="10" y="75"/>
      <point x="39" y="105"/>
      <point x="87" y="105" type="curve" smooth="yes"/>
      <point x="127" y="105"/>
      <point x="148" y="63"/>
      <point x="148" y="28" type="curve" smooth="yes"/>
      <point x="148" y="-5"/>
      <point x="120" y="-34"/>
      <point x="87" y="-34" type="curve" smooth="yes"/>
      <point x="47" y="-34"/>
      <point x="10" y="-18"/>
    </contour>
  </outline>
</glyph>
<glyph name="zero" format="2">
  <advance width="630"/>
  <unicode hex="0030"/>
  <outline>
    <contour>
      <point x="212" y="647" type="curve" smooth="yes"/>
      <point x="151" y="607"/>
      <point x="77" y="513"/>
      <point x="57" y="390" type="curve" smooth="yes"/>
      <point x="29" y="211"/>
      <point x="86" y="-11"/>
      <point x="320" y="1" type="curve" smooth="yes"/>
      <point x="569" y="13"/>
      <point x="624" y="457"/>
      <point x="547" y="588" type="curve" smooth="yes"/>
      <point x="503" y="662"/>
      <point x="419" y="714"/>
      <point x="301" y="673" type="curve" smooth="yes"/>
      <point x="274" y="664"/>
      <point x="261" y="636"/>
      <point x="270" y="610" type="curve" smooth="yes"/>
      <point x="279" y="583"/>
      <point x="307" y="570"/>
      <point x="333" y="579" type="curve" smooth="yes"/>
      <point x="399" y="602"/>
      <point x="438" y="574"/>
      <point x="461" y="536" type="curve" smooth="yes"/>
      <point x="510" y="455"/>
      <point x="467" y="109"/>
      <point x="314" y="101" type="curve" smooth="yes"/>
      <point x="116" y="91"/>
      <point x="151" y="347"/>
      <point x="155" y="374" type="curve" smooth="yes"/>
      <point x="171" y="469"/>
      <point x="229" y="539"/>
      <point x="266" y="563" type="curve" smooth="yes"/>
      <point x="290" y="578"/>
      <point x="296" y="609"/>
      <point x="281" y="632" type="curve" smooth="yes"/>
      <point x="266" y="656"/>
      <point x="235" y="662"/>
    </contour>
  </outline>
</glyph>
<glyph name="one" format="2">
  <advance width="239"/>
  <unicode hex="0031"/>
  <outline>
    <contour>
      <point x="51" y="634" type="curve" smooth="yes"/>
      <point x="88" y="46" type="line" smooth="yes"/>
      <point x="90" y="18"/>
      <point x="113" y="-3"/>
      <point x="141" y="-1" type="curve" smooth="yes"/>
      <point x="169" y="1"/>
      <point x="190" y="24"/>
      <point x="188" y="52" type="curve" smooth="yes"/>
      <point x="151" y="640" type="line" smooth="yes"/>
      <point x="149" y="668"/>
      <point x="126" y="689"/>
      <point x="98" y="687" type="curve" smooth="yes"/>
      <point x="70" y="685"/>
      <point x="49" y="662"/>
    </contour>
  </outline>
</glyph>
<glyph name="two" format="2">
  <advance width="876"/>
  <unicode hex="0032"/>
  <outline>
    <contour>
      <point x="149" y="484" type="curve" smooth="yes"/>
      <point x="159" y="519"/>
      <point x="191" y="588"/>
      <point x="312" y="588" type="curve" smooth="yes"/>
      <point x="459" y="588"/>
      <point x="460" y="502"/>
      <point x="460" y="470" type="curve" smooth="yes"/>
      <point x="460" y="365"/>
      <point x="352" y="204"/>
      <point x="170" y="93" type="curve" smooth="yes"/>
      <point x="127" y="66"/>
      <point x="146" y="0"/>
      <point x="196" y="0" type="curve" smooth="yes"/>
      <point x="776" y="0" type="line" smooth="yes"/>
      <point x="804" y="0"/>
      <point x="826" y="22"/>
      <point x="826" y="50" type="curve" smooth="yes"/>
      <point x="826" y="78"/>
      <point x="804" y="100"/>
      <point x="776" y="100" type="curve" smooth="yes"/>
      <point x="348" y="100" type="line"/>
      <point x="460" y="196"/>
      <point x="560" y="340"/>
      <point x="560" y="470" type="curve" smooth="yes"/>
      <point x="560" y="587"/>
      <point x="489" y="688"/>
      <point x="312" y="688" type="curve" smooth="yes"/>
      <point x="150" y="688"/>
      <point x="77" y="594"/>
      <point x="53" y="512" type="curve" smooth="yes"/>
      <point x="45" y="485"/>
      <point x="61" y="458"/>
      <point x="87" y="450" type="curve" smooth="yes"/>
      <point x="114" y="442"/>
      <point x="141" y="458"/>
    </contour>
  </outline>
</glyph>
<glyph name="three" format="2">
  <advance width="546"/>
  <unicode hex="0033"/>
  <outline>
    <contour>
      <point x="166" y="587" type="curve" smooth="yes"/>
      <point x="374" y="587" type="line"/>
      <point x="365" y="571"/>
      <point x="325" y="502"/>
      <point x="225" y="445" type="curve" smooth="yes"/>
      <point x="181" y="420"/>
      <point x="199" y="352"/>
      <point x="250" y="352" type="curve" smooth="yes"/>
      <point x="365" y="352"/>
      <point x="391" y="307"/>
      <point x="392" y="244" type="curve" smooth="yes"/>
      <point x="394" y="172"/>
      <point x="370" y="100"/>
      <point x="243" y="100" type="curve" smooth="yes"/>
      <point x="191" y="100"/>
      <point x="153" y="122"/>
      <point x="150" y="135" type="curve"/>
      <point x="146" y="149"/>
      <point x="133" y="179"/>
      <point x="100" y="179" type="curve" smooth="yes"/>
      <point x="72" y="179"/>
      <point x="50" y="157"/>
      <point x="50" y="129" type="curve" smooth="yes"/>
      <point x="50" y="62"/>
      <point x="139" y="0"/>
      <point x="243" y="0" type="curve" smooth="yes"/>
      <point x="387" y="0"/>
      <point x="495" y="78"/>
      <point x="492" y="246" type="curve" smooth="yes"/>
      <point x="489" y="372"/>
      <point x="412" y="416"/>
      <point x="374" y="431" type="curve"/>
      <point x="415" y="468"/>
      <point x="477" y="539"/>
      <point x="495" y="627" type="curve" smooth="yes"/>
      <point x="501" y="658"/>
      <point x="478" y="687"/>
      <point x="446" y="687" type="curve" smooth="yes"/>
      <point x="166" y="687" type="line" smooth="yes"/>
      <point x="138" y="687"/>
      <point x="116" y="665"/>
      <point x="116" y="637" type="curve" smooth="yes"/>
      <point x="116" y="609"/>
      <point x="138" y="587"/>
    </contour>
  </outline>
</glyph>
<glyph name="four" format="2">
  <advance width="624"/>
  <unicode hex="0034"/>
  <outline>
    <contour>
      <point x="405" y="20" type="curve" smooth="yes"/>
      <point x="435" y="250"/>
      <point x="443" y="535"/>
      <point x="443" y="658" type="curve" smooth="yes"/>
      <point x="443" y="700"/>
      <point x="394" y="723"/>
      <point x="362" y="697" type="curve" smooth="yes"/>
      <point x="303" y="650"/>
      <point x="85" y="349"/>
      <point x="58" y="305" type="curve" smooth="yes"/>
      <point x="38" y="272"/>
      <point x="62" y="229"/>
      <point x="101" y="229" type="curve" smooth="yes"/>
      <point x="221" y="229"/>
      <point x="320" y="228"/>
      <point x="529" y="253" type="curve" smooth="yes"/>
      <point x="556" y="256"/>
      <point x="577" y="281"/>
      <point x="573" y="309" type="curve"/>
      <point x="570" y="336"/>
      <point x="545" y="356"/>
      <point x="517" y="353" type="curve" smooth="yes"/>
      <point x="367" y="335"/>
      <point x="275" y="331"/>
      <point x="197" y="330" type="curve"/>
      <point x="237" y="385"/>
      <point x="294" y="462"/>
      <point x="341" y="521" type="curve"/>
      <point x="337" y="384"/>
      <point x="327" y="194"/>
      <point x="305" y="34" type="curve"/>
      <point x="302" y="6"/>
      <point x="321" y="-19"/>
      <point x="348" y="-23" type="curve"/>
      <point x="376" y="-26"/>
      <point x="401" y="-7"/>
    </contour>
  </outline>
</glyph>
<glyph name="five" format="2">
  <advance width="767"/>
  <unicode hex="0035"/>
  <outline>
    <contour>
      <point x="50" y="195" type="curve" smooth="yes"/>
      <point x="50" y="50"/>
      <point x="167" y="-1"/>
      <point x="251" y="-1" type="curve" smooth="yes"/>
      <point x="555" y="-1"/>
      <point x="575" y="334"/>
      <point x="399" y="441" type="curve" smooth="yes"/>
      <point x="353" y="468"/>
      <point x="303" y="474"/>
      <point x="264" y="471" type="curve"/>
      <point x="309" y="574" type="line"/>
      <point x="405" y="549"/>
      <point x="587" y="537"/>
      <point x="681" y="566" type="curve" smooth="yes"/>
      <point x="707" y="574"/>
      <point x="722" y="602"/>
      <point x="714" y="629" type="curve" smooth="yes"/>
      <point x="706" y="655"/>
      <point x="678" y="670"/>
      <point x="651" y="662" type="curve" smooth="yes"/>
      <point x="569" y="636"/>
      <point x="366" y="653"/>
      <point x="303" y="681" type="curve" smooth="yes"/>
      <point x="277" y="693"/>
      <point x="247" y="682"/>
      <point x="236" y="656" type="curve" smooth="yes"/>
      <point x="133" y="422" type="line" smooth="yes"/>
      <point x="115" y="381"/>
      <point x="157" y="338"/>
      <point x="199" y="356" type="curve"/>
      <point x="205" y="359"/>
      <point x="288" y="391"/>
      <point x="347" y="355" type="curve" smooth="yes"/>
      <point x="435" y="302"/>
      <point x="457" y="99"/>
      <point x="251" y="99" type="curve" smooth="yes"/>
      <point x="214" y="99"/>
      <point x="150" y="115"/>
      <point x="150" y="195" type="curve" smooth="yes"/>
      <point x="150" y="223"/>
      <point x="128" y="245"/>
      <point x="100" y="245" type="curve" smooth="yes"/>
      <point x="72" y="245"/>
      <point x="50" y="223"/>
    </contour>
  </outline>
</glyph>
<glyph name="six" format="2">
  <advance width="638"/>
  <unicode hex="0036"/>
  <outline>
    <contour>
      <point x="386" y="679" type="curve" smooth="yes"/>
      <point x="232" y="629"/>
      <point x="-29" y="442"/>
      <point x="74" y="148" type="curve" smooth="yes"/>
      <point x="171" y="-128"/>
      <point x="613" y="11"/>
      <point x="586" y="253" type="curve" smooth="yes"/>
      <point x="561" y="467"/>
      <point x="242" y="478"/>
      <point x="189" y="123" type="curve" smooth="yes"/>
      <point x="185" y="96"/>
      <point x="203" y="72"/>
      <point x="231" y="67" type="curve"/>
      <point x="258" y="63"/>
      <point x="283" y="81"/>
      <point x="287" y="109" type="curve" smooth="yes"/>
      <point x="320" y="324"/>
      <point x="473" y="351"/>
      <point x="486" y="241" type="curve" smooth="yes"/>
      <point x="500" y="117"/>
      <point x="226" y="18"/>
      <point x="168" y="182" type="curve" smooth="yes"/>
      <point x="96" y="388"/>
      <point x="274" y="538"/>
      <point x="418" y="585" type="curve" smooth="yes"/>
      <point x="444" y="594"/>
      <point x="458" y="621"/>
      <point x="449" y="648" type="curve" smooth="yes"/>
      <point x="441" y="674"/>
      <point x="413" y="688"/>
    </contour>
  </outline>
</glyph>
<glyph name="seven" format="2">
  <advance width="521"/>
  <unicode hex="0037"/>
  <outline>
    <contour>
      <point x="95" y="586" type="curve"/>
      <point x="158" y="579"/>
      <point x="273" y="581"/>
      <point x="342" y="583" type="curve"/>
      <point x="294" y="474"/>
      <point x="185" y="235"/>
      <point x="92" y="74" type="curve" smooth="yes"/>
      <point x="78" y="50"/>
      <point x="86" y="20"/>
      <point x="110" y="6" type="curve" smooth="yes"/>
      <point x="134" y="-8"/>
      <point x="164" y="0"/>
      <point x="178" y="24" type="curve" smooth="yes"/>
      <point x="309" y="250"/>
      <point x="466" y="616"/>
      <point x="466" y="616" type="curve"/>
      <point x="481" y="650"/>
      <point x="454" y="688"/>
      <point x="418" y="686" type="curve"/>
      <point x="415" y="686"/>
      <point x="194" y="675"/>
      <point x="107" y="686" type="curve" smooth="yes"/>
      <point x="79" y="689"/>
      <point x="55" y="669"/>
      <point x="51" y="642" type="curve"/>
      <point x="48" y="614"/>
      <point x="68" y="590"/>
    </contour>
  </outline>
</glyph>
<glyph name="eight" format="2">
  <advance width="436"/>
  <unicode hex="0038"/>
  <outline>
    <contour>
      <point x="152" y="376" type="curve" smooth="yes"/>
      <point x="-21" y="163"/>
      <point x="58" y="21"/>
      <point x="162" y="2" type="curve" smooth="yes"/>
      <point x="292" y="-22"/>
      <point x="361" y="120"/>
      <point x="294" y="240" type="curve" smooth="yes"/>
      <point x="251" y="318"/>
      <point x="137" y="448"/>
      <point x="191" y="554" type="curve" smooth="yes"/>
      <point x="204" y="580"/>
      <point x="217" y="585"/>
      <point x="239" y="585" type="curve" smooth="yes"/>
      <point x="278" y="585"/>
      <point x="291" y="542"/>
      <point x="284" y="519" type="curve" smooth="yes"/>
      <point x="257" y="437"/>
      <point x="220" y="460"/>
    </contour>
    <contour>
      <point x="230" y="312" type="curve" smooth="yes"/>
      <point x="278" y="372"/>
      <point x="341" y="375"/>
      <point x="378" y="487" type="curve" smooth="yes"/>
      <point x="404" y="564"/>
      <point x="358" y="685"/>
      <point x="238" y="685" type="curve" smooth="yes"/>
      <point x="189" y="685"/>
      <point x="135" y="666"/>
      <point x="101" y="598" type="curve" smooth="yes"/>
      <point x="19" y="435"/>
      <point x="164" y="269"/>
      <point x="206" y="192" type="curve" smooth="yes"/>
      <point x="224" y="159"/>
      <point x="230" y="91"/>
      <point x="180" y="100" type="curve" smooth="yes"/>
      <point x="137" y="108"/>
      <point x="132" y="191"/>
    </contour>
  </outline>
</glyph>
<glyph name="nine" format="2">
  <advance width="485"/>
  <unicode hex="0039"/>
  <outline>
    <contour>
      <point x="421" y="603" type="curve"/>
      <point x="364" y="667"/>
      <point x="319" y="694"/>
      <point x="235" y="694" type="curve" smooth="yes"/>
      <point x="104" y="694"/>
      <point x="44" y="600"/>
      <point x="51" y="487" type="curve" smooth="yes"/>
      <point x="56" y="399"/>
      <point x="121" y="324"/>
      <point x="231" y="324" type="curve" smooth="yes"/>
      <point x="252" y="324"/>
      <point x="270" y="329"/>
      <point x="279" y="332" type="curve"/>
      <point x="266" y="249"/>
      <point x="254" y="115"/>
      <point x="294" y="26" type="curve" smooth="yes"/>
      <point x="306" y="1"/>
      <point x="335" y="-10"/>
      <point x="361" y="1" type="curve"/>
      <point x="386" y="13"/>
      <point x="397" y="42"/>
      <point x="386" y="68" type="curve"/>
      <point x="349" y="148"/>
      <point x="370" y="325"/>
      <point x="415" y="484" type="curve" smooth="yes"/>
      <point x="432" y="545"/>
      <point x="345" y="575"/>
      <point x="321" y="517" type="curve" smooth="yes"/>
      <point x="299" y="466"/>
      <point x="264" y="424"/>
      <point x="231" y="424" type="curve" smooth="yes"/>
      <point x="166" y="424"/>
      <point x="152" y="466"/>
      <point x="151" y="492" type="curve" smooth="yes"/>
      <point x="145" y="590"/>
      <point x="205" y="594"/>
      <point x="235" y="594" type="curve" smooth="yes"/>
      <point x="284" y="594"/>
      <point x="304" y="584"/>
      <point x="347" y="537" type="curve"/>
      <point x="365" y="516"/>
      <point x="397" y="515"/>
      <point x="417" y="533" type="curve" smooth="yes"/>
      <point x="438" y="552"/>
      <point x="440" y="583"/>
    </contour>
  </outline>
</glyph>
<glyph name="colon" format="2">
  <advance width="173"/>
  <unicode hex="003A"/>
  <outline>
    <contour>
      <point x="10.9435" y="511.936" type="curve" smooth="yes"/>
      <point x="10.9435" y="576.267"/>
      <point x="50.9716" y="600.569"/>
      <point x="86.711" y="600.569" type="curve" smooth="yes"/>
      <point x="111.014" y="600.569"/>
      <point x="162.479" y="590.562"/>
      <point x="162.479" y="511.936" type="curve" smooth="yes"/>
      <point x="162.479" y="473.337"/>
      <point x="128.169" y="447.605"/>
      <point x="86.711" y="447.605" type="curve" smooth="yes"/>
      <point x="42.3942" y="447.605"/>
      <point x="10.9435" y="474.767"/>
    </contour>
    <contour>
      <point x="10.9435" y="216.936" type="curve" smooth="yes"/>
      <point x="10.9435" y="281.267"/>
      <point x="50.9716" y="305.569"/>
      <point x="86.711" y="305.569" type="curve" smooth="yes"/>
      <point x="111.014" y="305.569"/>
      <point x="162.479" y="295.562"/>
      <point x="162.479" y="216.936" type="curve" smooth="yes"/>
      <point x="162.479" y="178.337"/>
      <point x="128.169" y="152.605"/>
      <point x="86.711" y="152.605" type="curve" smooth="yes"/>
      <point x="42.3942" y="152.605"/>
      <point x="10.9435" y="179.767"/>
    </contour>
  </outline>
</glyph>
<glyph name="semicolon" format="2">
  <advance width="202"/>
  <unicode hex="003B"/>
  <outline>
    <contour>
      <point x="26" y="543" type="curve" smooth="yes"/>
      <point x="26" y="601"/>
      <point x="64" y="627"/>
      <point x="101" y="627" type="curve" smooth="yes"/>
      <point x="132" y="627"/>
      <point x="176" y="609"/>
      <point x="176" y="543" type="curve" smooth="yes"/>
      <point x="176" y="504"/>
      <point x="143" y="476"/>
      <point x="101" y="476" type="curve" smooth="yes"/>
      <point x="56" y="476"/>
      <point x="26" y="506"/>
    </contour>
    <contour>
      <point x="101" y="161" type="curve"/>
      <point x="75" y="153"/>
      <point x="47" y="169"/>
      <point x="40" y="196" type="curve"/>
      <point x="32" y="222"/>
      <point x="48" y="250"/>
      <point x="75" y="257" type="curve" smooth="yes"/>
      <point x="195" y="290"/>
      <point x="259" y="71"/>
      <point x="83" y="-13" type="curve" smooth="yes"/>
      <point x="58" y="-25"/>
      <point x="28" y="-15"/>
      <point x="16" y="10" type="curve" smooth="yes"/>
      <point x="4" y="35"/>
      <point x="14" y="65"/>
      <point x="39" y="77" type="curve" smooth="yes"/>
      <point x="101" y="107"/>
      <point x="103" y="153"/>
    </contour>
  </outline>
</glyph>
<glyph name="question" format="2">
  <advance width="415"/>
  <unicode hex="003F"/>
  <outline>
    <contour>
      <point x="170" y="20" type="curve" smooth="yes"/>
      <point x="170" y="57"/>
      <point x="192" y="85"/>
      <point x="233" y="85" type="curve" smooth="yes"/>
      <point x="268" y="85"/>
      <point x="289" y="51"/>
      <point x="289" y="20" type="curve" smooth="yes"/>
      <point x="289" y="-10"/>
      <point x="261" y="-35"/>
      <point x="233" y="-35" type="curve" smooth="yes"/>
      <point x="177" y="-35"/>
      <point x="170" y="4"/>
    </contour>
    <contour>
      <point x="109" y="641" type="curve" smooth="yes"/>
      <point x="105" y="614"/>
      <point x="80" y="595"/>
      <point x="52" y="600" type="curve"/>
      <point x="25" y="604"/>
      <point x="6" y="629"/>
      <point x="11" y="657" type="curve"/>
      <point x="35" y="812"/>
      <point x="328" y="848"/>
      <point x="394" y="629" type="curve" smooth="yes"/>
      <point x="451" y="437"/>
      <point x="248" y="313"/>
      <point x="277" y="170" type="curve" smooth="yes"/>
      <point x="282" y="143"/>
      <point x="265" y="116"/>
      <point x="238" y="111" type="curve" smooth="yes"/>
      <point x="211" y="106"/>
      <point x="184" y="123"/>
      <point x="179" y="150" type="curve" smooth="yes"/>
      <point x="141" y="341"/>
      <point x="339" y="462"/>
      <point x="298" y="601" type="curve" smooth="yes"/>
      <point x="262" y="721"/>
      <point x="117" y="687"/>
    </contour>
  </outline>
</glyph>
<glyph name="A" format="2">
  <advance width="705"/>
  <unicode hex="0041"/>
  <outline>
    <contour>
      <point x="136" y="26" type="curve" smooth="yes"/>
      <point x="187" y="128"/>
      <point x="299" y="391"/>
      <point x="358" y="527" type="curve"/>
      <point x="443" y="343"/>
      <point x="555" y="73"/>
      <point x="565" y="32" type="curve" smooth="yes"/>
      <point x="572" y="5"/>
      <point x="599" y="-11"/>
      <point x="626" y="-5" type="curve"/>
      <point x="653" y="2"/>
      <point x="669" y="29"/>
      <point x="663" y="56" type="curve"/>
      <point x="648" y="115"/>
      <point x="495" y="476"/>
      <point x="402" y="668" type="curve" smooth="yes"/>
      <point x="384" y="705"/>
      <point x="331" y="705"/>
      <point x="312" y="668" type="curve" smooth="yes"/>
      <point x="240" y="523"/>
      <point x="134" y="245"/>
      <point x="46" y="70" type="curve" smooth="yes"/>
      <point x="34" y="46"/>
      <point x="44" y="16"/>
      <point x="69" y="3" type="curve" smooth="yes"/>
      <point x="93" y="-9"/>
      <point x="123" y="1"/>
    </contour>
    <contour>
      <point x="208" y="223" type="curve" smooth="yes"/>
      <point x="277" y="223"/>
      <point x="318" y="230"/>
      <point x="499" y="223" type="curve" smooth="yes"/>
      <point x="527" y="222"/>
      <point x="550" y="243"/>
      <point x="551" y="271" type="curve" smooth="yes"/>
      <point x="552" y="299"/>
      <point x="531" y="322"/>
      <point x="503" y="323" type="curve" smooth="yes"/>
      <point x="318" y="330"/>
      <point x="273" y="323"/>
      <point x="208" y="323" type="curve" smooth="yes"/>
      <point x="180" y="323"/>
      <point x="158" y="301"/>
      <point x="158" y="273" type="curve" smooth="yes"/>
      <point x="158" y="245"/>
      <point x="180" y="223"/>
    </contour>
  </outline>
</glyph>
<glyph name="B" format="2">
  <advance width="594"/>
  <unicode hex="0042"/>
  <outline>
    <contour>
      <point x="121" y="527" type="curve" smooth="yes"/>
      <point x="173" y="566"/>
      <point x="257" y="593"/>
      <point x="298" y="593" type="curve" smooth="yes"/>
      <point x="355" y="593"/>
      <point x="369" y="587"/>
      <point x="374" y="544" type="curve" smooth="yes"/>
      <point x="379" y="505"/>
      <point x="347" y="445"/>
      <point x="291" y="386" type="curve" smooth="yes"/>
      <point x="264" y="358"/>
      <point x="279" y="310"/>
      <point x="317" y="303" type="curve" smooth="yes"/>
      <point x="365" y="294"/>
      <point x="454" y="295"/>
      <point x="454" y="198" type="curve" smooth="yes"/>
      <point x="454" y="131"/>
      <point x="337" y="74"/>
      <point x="176" y="115" type="curve" smooth="yes"/>
      <point x="150" y="122"/>
      <point x="123" y="106"/>
      <point x="116" y="79" type="curve"/>
      <point x="110" y="53"/>
      <point x="125" y="25"/>
      <point x="152" y="19" type="curve"/>
      <point x="381" y="-40"/>
      <point x="554" y="59"/>
      <point x="554" y="198" type="curve" smooth="yes"/>
      <point x="554" y="312"/>
      <point x="481" y="365"/>
      <point x="418" y="385" type="curve"/>
      <point x="447" y="426"/>
      <point x="482" y="490"/>
      <point x="474" y="556" type="curve" smooth="yes"/>
      <point x="464" y="631"/>
      <point x="428" y="693"/>
      <point x="298" y="693" type="curve" smooth="yes"/>
      <point x="233" y="693"/>
      <point x="129" y="658"/>
      <point x="61" y="607" type="curve" smooth="yes"/>
      <point x="39" y="590"/>
      <point x="34" y="559"/>
      <point x="51" y="537" type="curve" smooth="yes"/>
      <point x="68" y="515"/>
      <point x="99" y="510"/>
    </contour>
    <contour>
      <point x="150" y="561" type="curve" smooth="yes"/>
      <point x="78" y="290"/>
      <point x="95" y="119"/>
      <point x="114" y="24" type="curve" smooth="yes"/>
      <point x="120" y="-3"/>
      <point x="146" y="-21"/>
      <point x="173" y="-15" type="curve" smooth="yes"/>
      <point x="200" y="-9"/>
      <point x="218" y="17"/>
      <point x="212" y="44" type="curve" smooth="yes"/>
      <point x="195" y="125"/>
      <point x="178" y="280"/>
      <point x="246" y="535" type="curve" smooth="yes"/>
      <point x="253" y="562"/>
      <point x="238" y="589"/>
      <point x="211" y="596" type="curve" smooth="yes"/>
      <point x="184" y="603"/>
      <point x="157" y="588"/>
    </contour>
  </outline>
</glyph>
<glyph name="C" format="2">
  <advance width="704"/>
  <unicode hex="0043"/>
  <outline>
    <contour>
      <point x="634" y="658" type="curve"/>
      <point x="395" y="765"/>
      <point x="64" y="621"/>
      <point x="42" y="291" type="curve" smooth="yes"/>
      <point x="21" y="-30"/>
      <point x="327" y="-64"/>
      <point x="536" y="52" type="curve" smooth="yes"/>
      <point x="560" y="66"/>
      <point x="569" y="96"/>
      <point x="556" y="120" type="curve"/>
      <point x="542" y="144"/>
      <point x="512" y="153"/>
      <point x="488" y="140" type="curve" smooth="yes"/>
      <point x="401" y="92"/>
      <point x="124" y="14"/>
      <point x="142" y="285" type="curve" smooth="yes"/>
      <point x="158" y="537"/>
      <point x="411" y="648"/>
      <point x="592" y="566" type="curve" smooth="yes"/>
      <point x="618" y="554"/>
      <point x="648" y="566"/>
      <point x="659" y="591" type="curve" smooth="yes"/>
      <point x="671" y="617"/>
      <point x="659" y="646"/>
    </contour>
  </outline>
</glyph>
<glyph name="D" format="2">
  <advance width="546"/>
  <unicode hex="0044"/>
  <outline>
    <contour>
      <point x="122" y="605" type="curve" smooth="yes"/>
      <point x="102" y="516"/>
      <point x="61" y="131"/>
      <point x="50" y="68" type="curve" smooth="yes"/>
      <point x="45" y="41"/>
      <point x="62" y="15"/>
      <point x="89" y="10" type="curve" smooth="yes"/>
      <point x="289" y="-30"/>
      <point x="448" y="-7"/>
      <point x="494" y="271" type="curve" smooth="yes"/>
      <point x="576" y="763"/>
      <point x="204" y="751"/>
      <point x="58" y="628" type="curve" smooth="yes"/>
      <point x="37" y="610"/>
      <point x="34" y="579"/>
      <point x="52" y="558" type="curve" smooth="yes"/>
      <point x="70" y="537"/>
      <point x="101" y="534"/>
      <point x="122" y="552" type="curve" smooth="yes"/>
      <point x="186" y="605"/>
      <point x="464" y="698"/>
      <point x="396" y="287" type="curve" smooth="yes"/>
      <point x="366" y="111"/>
      <point x="297" y="78"/>
      <point x="155" y="100" type="curve"/>
      <point x="169" y="204"/>
      <point x="204" y="515"/>
      <point x="220" y="583" type="curve" smooth="yes"/>
      <point x="226" y="610"/>
      <point x="209" y="637"/>
      <point x="182" y="643" type="curve" smooth="yes"/>
      <point x="155" y="649"/>
      <point x="128" y="632"/>
    </contour>
  </outline>
</glyph>
<glyph name="E" format="2">
  <advance width="648"/>
  <unicode hex="0045"/>
  <outline>
    <contour>
      <point x="561" y="684" type="curve" smooth="yes"/>
      <point x="230" y="711"/>
      <point x="160" y="688"/>
      <point x="120" y="657" type="curve" smooth="yes"/>
      <point x="98" y="640"/>
      <point x="-31" y="-8"/>
      <point x="95" y="-8" type="curve" smooth="yes"/>
      <point x="130" y="-8"/>
      <point x="465" y="-2"/>
      <point x="568" y="28" type="curve" smooth="yes"/>
      <point x="595" y="36"/>
      <point x="610" y="63"/>
      <point x="602" y="90" type="curve" smooth="yes"/>
      <point x="593" y="119"/>
      <point x="565" y="131"/>
      <point x="537" y="123" type="curve" smooth="yes"/>
      <point x="463" y="103"/>
      <point x="243" y="95"/>
      <point x="138" y="93" type="curve"/>
      <point x="139" y="193"/>
      <point x="176" y="500"/>
      <point x="194" y="584" type="curve"/>
      <point x="220" y="593"/>
      <point x="300" y="605"/>
      <point x="553" y="584" type="curve" smooth="yes"/>
      <point x="580" y="582"/>
      <point x="605" y="602"/>
      <point x="607" y="630" type="curve" smooth="yes"/>
      <point x="609" y="657"/>
      <point x="589" y="682"/>
    </contour>
    <contour>
      <point x="138" y="311" type="curve" smooth="yes"/>
      <point x="290" y="328"/>
      <point x="458" y="345"/>
      <point x="538" y="345" type="curve" smooth="yes"/>
      <point x="566" y="345"/>
      <point x="588" y="367"/>
      <point x="588" y="395" type="curve" smooth="yes"/>
      <point x="588" y="423"/>
      <point x="566" y="445"/>
      <point x="538" y="445" type="curve" smooth="yes"/>
      <point x="450" y="445"/>
      <point x="276" y="428"/>
      <point x="126" y="411" type="curve" smooth="yes"/>
      <point x="99" y="408"/>
      <point x="79" y="383"/>
      <point x="82" y="355" type="curve" smooth="yes"/>
      <point x="85" y="328"/>
      <point x="110" y="308"/>
    </contour>
  </outline>
</glyph>
<glyph name="F" format="2">
  <advance width="627"/>
  <unicode hex="0046"/>
  <outline>
    <contour>
      <point x="538" y="694" type="curve" smooth="yes"/>
      <point x="403" y="704"/>
      <point x="286" y="681"/>
      <point x="157" y="681" type="curve" smooth="yes"/>
      <point x="60" y="681"/>
      <point x="40" y="46"/>
      <point x="40" y="45" type="curve"/>
      <point x="41" y="17"/>
      <point x="65" y="-4"/>
      <point x="92" y="-3" type="curve" smooth="yes"/>
      <point x="120" y="-2"/>
      <point x="140" y="22"/>
      <point x="140" y="49" type="curve" smooth="yes"/>
      <point x="140" y="109"/>
      <point x="175" y="475"/>
      <point x="196" y="586" type="curve"/>
      <point x="233" y="592"/>
      <point x="323" y="603"/>
      <point x="534" y="594" type="curve" smooth="yes"/>
      <point x="561" y="593"/>
      <point x="585" y="614"/>
      <point x="586" y="642" type="curve" smooth="yes"/>
      <point x="587" y="669"/>
      <point x="566" y="692"/>
    </contour>
    <contour>
      <point x="139" y="320" type="curve" smooth="yes"/>
      <point x="292" y="337"/>
      <point x="313" y="342"/>
      <point x="395" y="342" type="curve" smooth="yes"/>
      <point x="423" y="342"/>
      <point x="445" y="364"/>
      <point x="445" y="392" type="curve" smooth="yes"/>
      <point x="445" y="420"/>
      <point x="423" y="442"/>
      <point x="395" y="442" type="curve" smooth="yes"/>
      <point x="307" y="442"/>
      <point x="280" y="437"/>
      <point x="127" y="420" type="curve" smooth="yes"/>
      <point x="100" y="417"/>
      <point x="80" y="392"/>
      <point x="83" y="364" type="curve" smooth="yes"/>
      <point x="86" y="337"/>
      <point x="111" y="317"/>
    </contour>
  </outline>
</glyph>
<glyph name="G" format="2">
  <advance width="660"/>
  <unicode hex="0047"/>
  <outline>
    <contour>
      <point x="549" y="570" type="curve" smooth="yes"/>
      <point x="478" y="712"/>
      <point x="315" y="750"/>
      <point x="136" y="509" type="curve" smooth="yes"/>
      <point x="-78" y="219"/>
      <point x="87" y="-115"/>
      <point x="453" y="48" type="curve" smooth="yes"/>
      <point x="479" y="60"/>
      <point x="490" y="89"/>
      <point x="479" y="114" type="curve" smooth="yes"/>
      <point x="467" y="140"/>
      <point x="438" y="151"/>
      <point x="413" y="140" type="curve" smooth="yes"/>
      <point x="130" y="14"/>
      <point x="73" y="256"/>
      <point x="216" y="449" type="curve" smooth="yes"/>
      <point x="269" y="521"/>
      <point x="392" y="660"/>
      <point x="459" y="526" type="curve" smooth="yes"/>
      <point x="472" y="501"/>
      <point x="502" y="491"/>
      <point x="526" y="503" type="curve" smooth="yes"/>
      <point x="551" y="516"/>
      <point x="561" y="546"/>
    </contour>
    <contour>
      <point x="328" y="174" type="curve"/>
      <point x="383" y="180"/>
      <point x="460" y="185"/>
      <point x="517" y="183" type="curve"/>
      <point x="501" y="92"/>
      <point x="460" y="-68"/>
      <point x="460" y="-110" type="curve" smooth="yes"/>
      <point x="460" y="-138"/>
      <point x="482" y="-160"/>
      <point x="510" y="-160" type="curve" smooth="yes"/>
      <point x="538" y="-160"/>
      <point x="560" y="-138"/>
      <point x="560" y="-110" type="curve" smooth="yes"/>
      <point x="560" y="-21"/>
      <point x="664" y="225"/>
      <point x="597" y="266" type="curve" smooth="yes"/>
      <point x="564" y="287"/>
      <point x="520" y="287"/>
      <point x="322" y="274" type="curve" smooth="yes"/>
      <point x="294" y="272"/>
      <point x="273" y="248"/>
      <point x="275" y="221" type="curve" smooth="yes"/>
      <point x="277" y="193"/>
      <point x="301" y="172"/>
    </contour>
  </outline>
</glyph>
<glyph name="H" format="2">
  <advance width="577"/>
  <unicode hex="0048"/>
  <outline>
    <contour>
      <point x="61" y="665" type="curve" smooth="yes"/>
      <point x="42" y="592"/>
      <point x="26" y="173"/>
      <point x="61" y="33" type="curve" smooth="yes"/>
      <point x="68" y="6"/>
      <point x="94" y="-10"/>
      <point x="121" y="-3" type="curve"/>
      <point x="148" y="3"/>
      <point x="164" y="30"/>
      <point x="157" y="57" type="curve" smooth="yes"/>
      <point x="127" y="179"/>
      <point x="142" y="582"/>
      <point x="157" y="639" type="curve" smooth="yes"/>
      <point x="164" y="666"/>
      <point x="148" y="693"/>
      <point x="122" y="700" type="curve" smooth="yes"/>
      <point x="95" y="707"/>
      <point x="68" y="691"/>
    </contour>
    <contour>
      <point x="401" y="636" type="curve" smooth="yes"/>
      <point x="401" y="588"/>
      <point x="449" y="127"/>
      <point x="435" y="55" type="curve" smooth="yes"/>
      <point x="430" y="27"/>
      <point x="447" y="1"/>
      <point x="474" y="-4" type="curve" smooth="yes"/>
      <point x="502" y="-9"/>
      <point x="528" y="8"/>
      <point x="533" y="35" type="curve" smooth="yes"/>
      <point x="551" y="128"/>
      <point x="501" y="585"/>
      <point x="501" y="636" type="curve" smooth="yes"/>
      <point x="501" y="664"/>
      <point x="479" y="686"/>
      <point x="451" y="686" type="curve" smooth="yes"/>
      <point x="423" y="686"/>
      <point x="401" y="664"/>
    </contour>
    <contour>
      <point x="96" y="348" type="curve"/>
      <point x="136" y="307"/>
      <point x="360" y="303"/>
      <point x="466" y="317" type="curve" smooth="yes"/>
      <point x="494" y="321"/>
      <point x="513" y="346"/>
      <point x="510" y="373" type="curve"/>
      <point x="506" y="401"/>
      <point x="481" y="420"/>
      <point x="454" y="417" type="curve" smooth="yes"/>
      <point x="341" y="402"/>
      <point x="190" y="412"/>
      <point x="158" y="425" type="curve" smooth="yes"/>
      <point x="144" y="431"/>
      <point x="117" y="439"/>
      <point x="96" y="418" type="curve" smooth="yes"/>
      <point x="76" y="399"/>
      <point x="76" y="367"/>
    </contour>
  </outline>
</glyph>
<glyph name="I" format="2">
  <advance width="645"/>
  <unicode hex="0049"/>
  <outline>
    <contour>
      <point x="94" y="578" type="curve" smooth="yes"/>
      <point x="304" y="591"/>
      <point x="386" y="585"/>
      <point x="552" y="578" type="curve" smooth="yes"/>
      <point x="580" y="577"/>
      <point x="603" y="598"/>
      <point x="604" y="626" type="curve" smooth="yes"/>
      <point x="605" y="654"/>
      <point x="584" y="677"/>
      <point x="556" y="678" type="curve" smooth="yes"/>
      <point x="390" y="685"/>
      <point x="304" y="691"/>
      <point x="88" y="678" type="curve" smooth="yes"/>
      <point x="60" y="676"/>
      <point x="39" y="653"/>
      <point x="41" y="625" type="curve" smooth="yes"/>
      <point x="43" y="597"/>
      <point x="66" y="576"/>
    </contour>
    <contour>
      <point x="90" y="9" type="curve" smooth="yes"/>
      <point x="257" y="-7"/>
      <point x="468" y="-2"/>
      <point x="556" y="7" type="curve" smooth="yes"/>
      <point x="584" y="10"/>
      <point x="604" y="35"/>
      <point x="601" y="62" type="curve" smooth="yes"/>
      <point x="598" y="90"/>
      <point x="573" y="110"/>
      <point x="546" y="107" type="curve" smooth="yes"/>
      <point x="464" y="98"/>
      <point x="261" y="94"/>
      <point x="100" y="109" type="curve" smooth="yes"/>
      <point x="72" y="112"/>
      <point x="47" y="91"/>
      <point x="45" y="64" type="curve"/>
      <point x="42" y="36"/>
      <point x="63" y="12"/>
    </contour>
    <contour>
      <point x="265" y="628" type="curve" smooth="yes"/>
      <point x="265" y="56" type="line" smooth="yes"/>
      <point x="265" y="28"/>
      <point x="287" y="6"/>
      <point x="315" y="6" type="curve" smooth="yes"/>
      <point x="343" y="6"/>
      <point x="365" y="28"/>
      <point x="365" y="56" type="curve" smooth="yes"/>
      <point x="365" y="628" type="line" smooth="yes"/>
      <point x="365" y="656"/>
      <point x="343" y="678"/>
      <point x="315" y="678" type="curve" smooth="yes"/>
      <point x="287" y="678"/>
      <point x="265" y="656"/>
    </contour>
  </outline>
</glyph>
<glyph name="J" format="2">
  <advance width="555"/>
  <unicode hex="004A"/>
  <outline>
    <contour>
      <point x="143" y="584" type="curve" smooth="yes"/>
      <point x="465" y="584" type="line" smooth="yes"/>
      <point x="493" y="584"/>
      <point x="515" y="606"/>
      <point x="515" y="634" type="curve" smooth="yes"/>
      <point x="515" y="662"/>
      <point x="493" y="684"/>
      <point x="465" y="684" type="curve" smooth="yes"/>
      <point x="143" y="684" type="line" smooth="yes"/>
      <point x="115" y="684"/>
      <point x="93" y="662"/>
      <point x="93" y="634" type="curve" smooth="yes"/>
      <point x="93" y="606"/>
      <point x="115" y="584"/>
    </contour>
    <contour>
      <point x="40" y="158" type="curve" smooth="yes"/>
      <point x="40" y="73"/>
      <point x="76" y="-3"/>
      <point x="189" y="-3" type="curve" smooth="yes"/>
      <point x="330" y="-3"/>
      <point x="387" y="114"/>
      <point x="376" y="618" type="curve" smooth="yes"/>
      <point x="375" y="646"/>
      <point x="353" y="668"/>
      <point x="325" y="667" type="curve" smooth="yes"/>
      <point x="297" y="666"/>
      <point x="275" y="644"/>
      <point x="276" y="616" type="curve" smooth="yes"/>
      <point x="278" y="510"/>
      <point x="293" y="97"/>
      <point x="189" y="97" type="curve" smooth="yes"/>
      <point x="144" y="97"/>
      <point x="140" y="118"/>
      <point x="140" y="158" type="curve" smooth="yes"/>
      <point x="140" y="186"/>
      <point x="118" y="208"/>
      <point x="90" y="208" type="curve" smooth="yes"/>
      <point x="62" y="208"/>
      <point x="40" y="186"/>
    </contour>
  </outline>
</glyph>
<glyph name="K" format="2">
  <advance width="634"/>
  <unicode hex="004B"/>
  <outline>
    <contour>
      <point x="53" y="632" type="curve" smooth="yes"/>
      <point x="66" y="472"/>
      <point x="40" y="215"/>
      <point x="40" y="50" type="curve" smooth="yes"/>
      <point x="40" y="22"/>
      <point x="62" y="0"/>
      <point x="90" y="0" type="curve" smooth="yes"/>
      <point x="118" y="0"/>
      <point x="140" y="22"/>
      <point x="140" y="50" type="curve" smooth="yes"/>
      <point x="140" y="215"/>
      <point x="166" y="470"/>
      <point x="153" y="640" type="curve" smooth="yes"/>
      <point x="151" y="668"/>
      <point x="127" y="688"/>
      <point x="99" y="686" type="curve" smooth="yes"/>
      <point x="71" y="684"/>
      <point x="51" y="660"/>
    </contour>
    <contour>
      <point x="444" y="635" type="curve"/>
      <point x="360" y="566"/>
      <point x="198" y="379"/>
      <point x="157" y="364" type="curve"/>
      <point x="203" y="325" type="line"/>
      <point x="204" y="325"/>
      <point x="209" y="327"/>
      <point x="222" y="326" type="curve"/>
      <point x="259" y="320"/>
      <point x="352" y="76"/>
      <point x="524" y="5" type="curve"/>
      <point x="549" y="-6"/>
      <point x="579" y="6"/>
      <point x="589" y="32" type="curve"/>
      <point x="600" y="57"/>
      <point x="588" y="87"/>
      <point x="562" y="97" type="curve"/>
      <point x="402" y="163"/>
      <point x="354" y="407"/>
      <point x="236" y="424" type="curve" smooth="yes"/>
      <point x="110" y="443"/>
      <point x="74" y="313"/>
      <point x="129" y="276" type="curve"/>
      <point x="219" y="214"/>
      <point x="360" y="441"/>
      <point x="506" y="557" type="curve" smooth="yes"/>
      <point x="528" y="574"/>
      <point x="531" y="605"/>
      <point x="514" y="627" type="curve" smooth="yes"/>
      <point x="497" y="649"/>
      <point x="466" y="652"/>
    </contour>
  </outline>
</glyph>
<glyph name="L" format="2">
  <advance width="595"/>
  <unicode hex="004C"/>
  <outline>
    <contour>
      <point x="79" y="649" type="curve" smooth="yes"/>
      <point x="37" y="367"/>
      <point x="41" y="133"/>
      <point x="41" y="49" type="curve" smooth="yes"/>
      <point x="41" y="22"/>
      <point x="63" y="0"/>
      <point x="90" y="0" type="curve" smooth="yes"/>
      <point x="505" y="0" type="line" smooth="yes"/>
      <point x="533" y="0"/>
      <point x="555" y="22"/>
      <point x="555" y="49" type="curve" smooth="yes"/>
      <point x="555" y="77"/>
      <point x="533" y="99"/>
      <point x="505" y="99" type="curve" smooth="yes"/>
      <point x="139" y="99" type="line"/>
      <point x="139" y="197"/>
      <point x="141" y="399"/>
      <point x="176" y="635" type="curve" smooth="yes"/>
      <point x="180" y="662"/>
      <point x="162" y="687"/>
      <point x="135" y="691" type="curve" smooth="yes"/>
      <point x="108" y="695"/>
      <point x="83" y="676"/>
    </contour>
  </outline>
</glyph>
<glyph name="M" format="2">
  <advance width="790"/>
  <unicode hex="004D"/>
  <outline>
    <contour>
      <point x="141" y="46" type="curve" smooth="yes"/>
      <point x="158" y="230"/>
      <point x="189" y="400"/>
      <point x="211" y="511" type="curve"/>
      <point x="281" y="411"/>
      <point x="363" y="287"/>
      <point x="390" y="257" type="curve" smooth="yes"/>
      <point x="409" y="235"/>
      <point x="444" y="234"/>
      <point x="464" y="256" type="curve" smooth="yes"/>
      <point x="519" y="316"/>
      <point x="579" y="401"/>
      <point x="624" y="468" type="curve"/>
      <point x="630" y="312"/>
      <point x="639" y="120"/>
      <point x="649" y="44" type="curve" smooth="yes"/>
      <point x="653" y="17"/>
      <point x="678" y="-2"/>
      <point x="706" y="1" type="curve"/>
      <point x="733" y="5"/>
      <point x="752" y="30"/>
      <point x="749" y="58" type="curve"/>
      <point x="736" y="153"/>
      <point x="723" y="462"/>
      <point x="718" y="635" type="curve" smooth="yes"/>
      <point x="716" y="686"/>
      <point x="649" y="703"/>
      <point x="624" y="658" type="curve" smooth="yes"/>
      <point x="601" y="616"/>
      <point x="507" y="465"/>
      <point x="430" y="370" type="curve"/>
      <point x="384" y="436"/>
      <point x="293" y="573"/>
      <point x="225" y="664" type="curve" smooth="yes"/>
      <point x="199" y="699"/>
      <point x="144" y="686"/>
      <point x="136" y="643" type="curve" smooth="yes"/>
      <point x="120" y="561"/>
      <point x="67" y="324"/>
      <point x="41" y="56" type="curve"/>
      <point x="39" y="28"/>
      <point x="59" y="4"/>
      <point x="86" y="1" type="curve"/>
      <point x="114" y="-1"/>
      <point x="138" y="19"/>
    </contour>
  </outline>
</glyph>
<glyph name="N" format="2">
  <advance width="796"/>
  <unicode hex="004E"/>
  <outline>
    <contour>
      <point x="137" y="33" type="curve" smooth="yes"/>
      <point x="234" y="307"/>
      <point x="257" y="417"/>
      <point x="288" y="517" type="curve"/>
      <point x="378" y="347"/>
      <point x="454" y="107"/>
      <point x="547" y="14" type="curve" smooth="yes"/>
      <point x="573" y="-12"/>
      <point x="618" y="-1"/>
      <point x="630" y="35" type="curve" smooth="yes"/>
      <point x="686" y="209"/>
      <point x="722" y="528"/>
      <point x="753" y="621" type="curve" smooth="yes"/>
      <point x="762" y="647"/>
      <point x="748" y="676"/>
      <point x="722" y="684" type="curve"/>
      <point x="696" y="693"/>
      <point x="667" y="679"/>
      <point x="659" y="653" type="curve" smooth="yes"/>
      <point x="630" y="566"/>
      <point x="600" y="333"/>
      <point x="561" y="167" type="curve"/>
      <point x="488" y="301"/>
      <point x="412" y="527"/>
      <point x="317" y="665" type="curve" smooth="yes"/>
      <point x="294" y="699"/>
      <point x="243" y="692"/>
      <point x="229" y="655" type="curve" smooth="yes"/>
      <point x="164" y="482"/>
      <point x="168" y="419"/>
      <point x="43" y="67" type="curve" smooth="yes"/>
      <point x="34" y="41"/>
      <point x="47" y="12"/>
      <point x="73" y="3" type="curve" smooth="yes"/>
      <point x="99" y="-6"/>
      <point x="128" y="7"/>
    </contour>
  </outline>
</glyph>
<glyph name="O" format="2">
  <advance width="747"/>
  <unicode hex="004F"/>
  <outline>
    <contour>
      <point x="295" y="678" type="curve" smooth="yes"/>
      <point x="87" y="678"/>
      <point x="40" y="417"/>
      <point x="40" y="307" type="curve" smooth="yes"/>
      <point x="40" y="200"/>
      <point x="121" y="-2"/>
      <point x="390" y="-2" type="curve" smooth="yes"/>
      <point x="646" y="-2"/>
      <point x="707" y="293"/>
      <point x="707" y="370" type="curve" smooth="yes"/>
      <point x="707" y="465"/>
      <point x="633" y="703"/>
      <point x="377" y="685" type="curve" smooth="yes"/>
      <point x="350" y="683"/>
      <point x="329" y="659"/>
      <point x="331" y="631" type="curve" smooth="yes"/>
      <point x="333" y="604"/>
      <point x="357" y="583"/>
      <point x="385" y="585" type="curve" smooth="yes"/>
      <point x="549" y="597"/>
      <point x="607" y="445"/>
      <point x="607" y="370" type="curve" smooth="yes"/>
      <point x="607" y="293"/>
      <point x="548" y="98"/>
      <point x="390" y="98" type="curve" smooth="yes"/>
      <point x="191" y="98"/>
      <point x="140" y="240"/>
      <point x="140" y="307" type="curve" smooth="yes"/>
      <point x="140" y="384"/>
      <point x="171" y="578"/>
      <point x="295" y="578" type="curve" smooth="yes"/>
      <point x="323" y="578"/>
      <point x="345" y="600"/>
      <point x="345" y="628" type="curve" smooth="yes"/>
      <point x="345" y="656"/>
      <point x="323" y="678"/>
    </contour>
  </outline>
</glyph>
<glyph name="P" format="2">
  <advance width="476"/>
  <unicode hex="0050"/>
  <outline>
    <contour>
      <point x="139" y="17" type="curve" smooth="yes"/>
      <point x="172" y="189"/>
      <point x="177" y="478"/>
      <point x="178" y="596" type="curve"/>
      <point x="300" y="592"/>
      <point x="336" y="546"/>
      <point x="336" y="463" type="curve" smooth="yes"/>
      <point x="336" y="320"/>
      <point x="245" y="338"/>
      <point x="232" y="347" type="curve" smooth="yes"/>
      <point x="209" y="363"/>
      <point x="178" y="357"/>
      <point x="163" y="334" type="curve"/>
      <point x="147" y="311"/>
      <point x="153" y="280"/>
      <point x="176" y="265" type="curve" smooth="yes"/>
      <point x="255" y="211"/>
      <point x="436" y="238"/>
      <point x="436" y="463" type="curve" smooth="yes"/>
      <point x="436" y="698"/>
      <point x="218" y="697"/>
      <point x="128" y="697" type="curve" smooth="yes"/>
      <point x="100" y="697"/>
      <point x="78" y="675"/>
      <point x="78" y="647" type="curve" smooth="yes"/>
      <point x="78" y="583"/>
      <point x="78" y="228"/>
      <point x="41" y="35" type="curve" smooth="yes"/>
      <point x="36" y="8"/>
      <point x="53" y="-18"/>
      <point x="81" y="-23" type="curve" smooth="yes"/>
      <point x="108" y="-28"/>
      <point x="134" y="-11"/>
    </contour>
  </outline>
</glyph>
<glyph name="Q" format="2">
  <advance width="732"/>
  <unicode hex="0051"/>
  <outline>
    <contour>
      <point x="292" y="681" type="curve" smooth="yes"/>
      <point x="70" y="639"/>
      <point x="40" y="431"/>
      <point x="40" y="336" type="curve" smooth="yes"/>
      <point x="40" y="212"/>
      <point x="118" y="3"/>
      <point x="396" y="3" type="curve" smooth="yes"/>
      <point x="661" y="3"/>
      <point x="702" y="312"/>
      <point x="690" y="394" type="curve" smooth="yes"/>
      <point x="660" y="594"/>
      <point x="492" y="710"/>
      <point x="343" y="648" type="curve" smooth="yes"/>
      <point x="182" y="581"/>
      <point x="171" y="396"/>
      <point x="300" y="224" type="curve" smooth="yes"/>
      <point x="432" y="49"/>
      <point x="562" y="19"/>
      <point x="581" y="-92" type="curve"/>
      <point x="585" y="-120"/>
      <point x="611" y="-138"/>
      <point x="638" y="-133" type="curve"/>
      <point x="666" y="-129"/>
      <point x="684" y="-103"/>
      <point x="679" y="-76" type="curve" smooth="yes"/>
      <point x="652" y="85"/>
      <point x="506" y="116"/>
      <point x="380" y="284" type="curve" smooth="yes"/>
      <point x="310" y="378"/>
      <point x="270" y="509"/>
      <point x="381" y="556" type="curve" smooth="yes"/>
      <point x="470" y="593"/>
      <point x="573" y="512"/>
      <point x="592" y="380" type="curve" smooth="yes"/>
      <point x="604" y="302"/>
      <point x="555" y="103"/>
      <point x="396" y="103" type="curve" smooth="yes"/>
      <point x="192" y="103"/>
      <point x="140" y="246"/>
      <point x="140" y="336" type="curve" smooth="yes"/>
      <point x="140" y="425"/>
      <point x="168" y="555"/>
      <point x="310" y="583" type="curve" smooth="yes"/>
      <point x="338" y="588"/>
      <point x="355" y="614"/>
      <point x="350" y="641" type="curve" smooth="yes"/>
      <point x="345" y="669"/>
      <point x="319" y="686"/>
    </contour>
  </outline>
</glyph>
<glyph name="R" format="2">
  <advance width="566"/>
  <unicode hex="0052"/>
  <outline>
    <contour>
      <point x="139" y="34" type="curve" smooth="yes"/>
      <point x="152" y="115"/>
      <point x="165" y="435"/>
      <point x="165" y="523" type="curve" smooth="yes"/>
      <point x="165" y="551"/>
      <point x="143" y="573"/>
      <point x="115" y="573" type="curve" smooth="yes"/>
      <point x="87" y="573"/>
      <point x="65" y="551"/>
      <point x="65" y="523" type="curve" smooth="yes"/>
      <point x="65" y="433"/>
      <point x="52" y="121"/>
      <point x="41" y="50" type="curve" smooth="yes"/>
      <point x="36" y="22"/>
      <point x="55" y="-3"/>
      <point x="82" y="-7" type="curve"/>
      <point x="110" y="-12"/>
      <point x="135" y="7"/>
    </contour>
    <contour>
      <point x="122" y="532" type="curve" smooth="yes"/>
      <point x="168" y="562"/>
      <point x="291" y="623"/>
      <point x="339" y="570" type="curve" smooth="yes"/>
      <point x="396" y="508"/>
      <point x="268" y="364"/>
      <point x="194" y="328" type="curve" smooth="yes"/>
      <point x="164" y="313"/>
      <point x="157" y="274"/>
      <point x="179" y="249" type="curve" smooth="yes"/>
      <point x="261" y="160"/>
      <point x="359" y="62"/>
      <point x="448" y="1" type="curve"/>
      <point x="470" y="-15"/>
      <point x="501" y="-9"/>
      <point x="517" y="14" type="curve" smooth="yes"/>
      <point x="533" y="36"/>
      <point x="527" y="67"/>
      <point x="504" y="83" type="curve" smooth="yes"/>
      <point x="438" y="129"/>
      <point x="361" y="201"/>
      <point x="293" y="273" type="curve"/>
      <point x="378" y="336"/>
      <point x="526" y="513"/>
      <point x="413" y="638" type="curve" smooth="yes"/>
      <point x="304" y="757"/>
      <point x="108" y="642"/>
      <point x="68" y="616" type="curve" smooth="yes"/>
      <point x="44" y="600"/>
      <point x="38" y="570"/>
      <point x="53" y="547" type="curve" smooth="yes"/>
      <point x="68" y="523"/>
      <point x="99" y="517"/>
    </contour>
  </outline>
</glyph>
<glyph name="S" format="2">
  <advance width="636"/>
  <unicode hex="0053"/>
  <outline>
    <contour>
      <point x="586" y="570" type="curve" smooth="yes"/>
      <point x="518" y="665"/>
      <point x="452" y="695"/>
      <point x="373" y="695" type="curve" smooth="yes"/>
      <point x="230" y="695"/>
      <point x="167" y="577"/>
      <point x="186" y="488" type="curve" smooth="yes"/>
      <point x="220" y="327"/>
      <point x="366" y="311"/>
      <point x="437" y="218" type="curve" smooth="yes"/>
      <point x="475" y="169"/>
      <point x="461" y="99"/>
      <point x="313" y="99" type="curve" smooth="yes"/>
      <point x="232" y="99"/>
      <point x="156" y="159"/>
      <point x="136" y="201" type="curve" smooth="yes"/>
      <point x="124" y="226"/>
      <point x="94" y="236"/>
      <point x="69" y="224" type="curve" smooth="yes"/>
      <point x="44" y="212"/>
      <point x="34" y="182"/>
      <point x="46" y="157" type="curve" smooth="yes"/>
      <point x="82" y="83"/>
      <point x="192" y="-1"/>
      <point x="313" y="-1" type="curve" smooth="yes"/>
      <point x="558" y="-1"/>
      <point x="598" y="172"/>
      <point x="517" y="278" type="curve" smooth="yes"/>
      <point x="431" y="391"/>
      <point x="307" y="398"/>
      <point x="284" y="508" type="curve" smooth="yes"/>
      <point x="277" y="539"/>
      <point x="298" y="595"/>
      <point x="373" y="595" type="curve" smooth="yes"/>
      <point x="416" y="595"/>
      <point x="452" y="585"/>
      <point x="504" y="512" type="curve" smooth="yes"/>
      <point x="520" y="489"/>
      <point x="552" y="484"/>
      <point x="574" y="500" type="curve" smooth="yes"/>
      <point x="597" y="516"/>
      <point x="602" y="548"/>
    </contour>
  </outline>
</glyph>
<glyph name="T" format="2">
  <advance width="819"/>
  <unicode hex="0054"/>
  <outline>
    <contour>
      <point x="360" y="619" type="curve" smooth="yes"/>
      <point x="360" y="162"/>
      <point x="360" y="178"/>
      <point x="380" y="32" type="curve" smooth="yes"/>
      <point x="384" y="5"/>
      <point x="409" y="-15"/>
      <point x="437" y="-11" type="curve"/>
      <point x="464" y="-8"/>
      <point x="484" y="18"/>
      <point x="480" y="46" type="curve" smooth="yes"/>
      <point x="461" y="185"/>
      <point x="460" y="163"/>
      <point x="460" y="619" type="curve" smooth="yes"/>
      <point x="460" y="647"/>
      <point x="438" y="669"/>
      <point x="410" y="669" type="curve" smooth="yes"/>
      <point x="382" y="669"/>
      <point x="360" y="647"/>
    </contour>
    <contour>
      <point x="90" y="572" type="curve" smooth="yes"/>
      <point x="168" y="572"/>
      <point x="479" y="611"/>
      <point x="721" y="573" type="curve"/>
      <point x="749" y="568"/>
      <point x="774" y="587"/>
      <point x="778" y="614" type="curve"/>
      <point x="783" y="642"/>
      <point x="764" y="667"/>
      <point x="737" y="671" type="curve" smooth="yes"/>
      <point x="481" y="711"/>
      <point x="165" y="672"/>
      <point x="90" y="672" type="curve" smooth="yes"/>
      <point x="62" y="672"/>
      <point x="40" y="650"/>
      <point x="40" y="622" type="curve" smooth="yes"/>
      <point x="40" y="594"/>
      <point x="62" y="572"/>
    </contour>
  </outline>
</glyph>
<glyph name="U" format="2">
  <advance width="702"/>
  <unicode hex="0055"/>
  <outline>
    <contour>
      <point x="79" y="657" type="curve" smooth="yes"/>
      <point x="2" y="502"/>
      <point x="27" y="-1"/>
      <point x="289" y="-1" type="curve" smooth="yes"/>
      <point x="527" y="-1"/>
      <point x="662" y="302"/>
      <point x="662" y="635" type="curve" smooth="yes"/>
      <point x="662" y="663"/>
      <point x="640" y="685"/>
      <point x="612" y="685" type="curve" smooth="yes"/>
      <point x="584" y="685"/>
      <point x="562" y="663"/>
      <point x="562" y="635" type="curve" smooth="yes"/>
      <point x="562" y="360"/>
      <point x="459" y="99"/>
      <point x="289" y="99" type="curve" smooth="yes"/>
      <point x="138" y="99"/>
      <point x="113" y="501"/>
      <point x="169" y="613" type="curve" smooth="yes"/>
      <point x="181" y="637"/>
      <point x="171" y="667"/>
      <point x="146" y="680" type="curve" smooth="yes"/>
      <point x="122" y="692"/>
      <point x="92" y="682"/>
    </contour>
  </outline>
</glyph>
<glyph name="V" format="2">
  <advance width="626"/>
  <unicode hex="0056"/>
  <outline>
    <contour>
      <point x="41" y="626" type="curve" smooth="yes"/>
      <point x="74" y="447"/>
      <point x="170" y="121"/>
      <point x="220" y="18" type="curve" smooth="yes"/>
      <point x="238" y="-19"/>
      <point x="292" y="-19"/>
      <point x="310" y="18" type="curve" smooth="yes"/>
      <point x="411" y="227"/>
      <point x="484" y="419"/>
      <point x="580" y="613" type="curve" smooth="yes"/>
      <point x="592" y="638"/>
      <point x="582" y="667"/>
      <point x="557" y="680" type="curve"/>
      <point x="532" y="692"/>
      <point x="503" y="682"/>
      <point x="490" y="657" type="curve" smooth="yes"/>
      <point x="413" y="501"/>
      <point x="341" y="325"/>
      <point x="269" y="167" type="curve"/>
      <point x="222" y="302"/>
      <point x="163" y="514"/>
      <point x="139" y="644" type="curve" smooth="yes"/>
      <point x="134" y="671"/>
      <point x="108" y="689"/>
      <point x="81" y="684" type="curve" smooth="yes"/>
      <point x="54" y="679"/>
      <point x="36" y="653"/>
    </contour>
  </outline>
</glyph>
<glyph name="W" format="2">
  <advance width="949"/>
  <unicode hex="0057"/>
  <outline>
    <contour>
      <point x="40" y="633" type="curve" smooth="yes"/>
      <point x="40" y="545"/>
      <point x="51" y="-1"/>
      <point x="172" y="-1" type="curve" smooth="yes"/>
      <point x="239" y="-1"/>
      <point x="308" y="94"/>
      <point x="449" y="304" type="curve"/>
      <point x="487" y="216"/>
      <point x="567" y="54"/>
      <point x="607" y="14" type="curve" smooth="yes"/>
      <point x="631" y="-10"/>
      <point x="670" y="-4"/>
      <point x="686" y="25" type="curve" smooth="yes"/>
      <point x="787" y="209"/>
      <point x="875" y="523"/>
      <point x="906" y="617" type="curve" smooth="yes"/>
      <point x="915" y="643"/>
      <point x="901" y="672"/>
      <point x="875" y="680" type="curve"/>
      <point x="849" y="689"/>
      <point x="820" y="675"/>
      <point x="812" y="649" type="curve" smooth="yes"/>
      <point x="785" y="567"/>
      <point x="711" y="314"/>
      <point x="636" y="150" type="curve"/>
      <point x="594" y="224"/>
      <point x="536" y="345"/>
      <point x="509" y="426" type="curve" smooth="yes"/>
      <point x="497" y="464"/>
      <point x="446" y="472"/>
      <point x="422" y="440" type="curve" smooth="yes"/>
      <point x="375" y="377"/>
      <point x="261" y="192"/>
      <point x="191" y="120" type="curve"/>
      <point x="163" y="221"/>
      <point x="140" y="499"/>
      <point x="140" y="633" type="curve" smooth="yes"/>
      <point x="140" y="661"/>
      <point x="118" y="683"/>
      <point x="90" y="683" type="curve" smooth="yes"/>
      <point x="62" y="683"/>
      <point x="40" y="661"/>
    </contour>
  </outline>
</glyph>
<glyph name="X" format="2">
  <advance width="721"/>
  <unicode hex="0058"/>
  <outline>
    <contour>
      <point x="95" y="596" type="curve"/>
      <point x="82" y="600"/>
      <point x="501" y="81"/>
      <point x="531" y="23" type="curve" smooth="yes"/>
      <point x="543" y="-1"/>
      <point x="573" y="-11"/>
      <point x="598" y="2" type="curve" smooth="yes"/>
      <point x="622" y="14"/>
      <point x="632" y="44"/>
      <point x="619" y="69" type="curve" smooth="yes"/>
      <point x="602" y="102"/>
      <point x="167" y="678"/>
      <point x="125" y="692" type="curve" smooth="yes"/>
      <point x="99" y="700"/>
      <point x="71" y="685"/>
      <point x="62" y="659" type="curve"/>
      <point x="54" y="633"/>
      <point x="69" y="605"/>
    </contour>
    <contour>
      <point x="593" y="677" type="curve" smooth="yes"/>
      <point x="449" y="517"/>
      <point x="89" y="134"/>
      <point x="49" y="74" type="curve"/>
      <point x="34" y="50"/>
      <point x="40" y="20"/>
      <point x="63" y="4" type="curve"/>
      <point x="87" y="-11"/>
      <point x="117" y="-5"/>
      <point x="133" y="18" type="curve"/>
      <point x="167" y="70"/>
      <point x="515" y="439"/>
      <point x="667" y="611" type="curve"/>
      <point x="686" y="631"/>
      <point x="684" y="663"/>
      <point x="663" y="681" type="curve"/>
      <point x="643" y="700"/>
      <point x="611" y="698"/>
    </contour>
  </outline>
</glyph>
<glyph name="Y" format="2">
  <advance width="549"/>
  <unicode hex="0059"/>
  <outline>
    <contour>
      <point x="70" y="619" type="curve"/>
      <point x="77" y="610"/>
      <point x="180" y="337"/>
      <point x="196" y="307" type="curve"/>
      <point x="208" y="283"/>
      <point x="238" y="273"/>
      <point x="263" y="286" type="curve" smooth="yes"/>
      <point x="287" y="298"/>
      <point x="297" y="328"/>
      <point x="284" y="353" type="curve" smooth="yes"/>
      <point x="263" y="395"/>
      <point x="172" y="652"/>
      <point x="146" y="683" type="curve" smooth="yes"/>
      <point x="128" y="704"/>
      <point x="97" y="707"/>
      <point x="76" y="689" type="curve" smooth="yes"/>
      <point x="55" y="671"/>
      <point x="52" y="640"/>
    </contour>
    <contour>
      <point x="422" y="684" type="curve" smooth="yes"/>
      <point x="269" y="514"/>
      <point x="84" y="130"/>
      <point x="49" y="77" type="curve" smooth="yes"/>
      <point x="34" y="53"/>
      <point x="40" y="22"/>
      <point x="63" y="7" type="curve" smooth="yes"/>
      <point x="87" y="-9"/>
      <point x="118" y="-2"/>
      <point x="133" y="21" type="curve" smooth="yes"/>
      <point x="173" y="81"/>
      <point x="352" y="458"/>
      <point x="496" y="618" type="curve" smooth="yes"/>
      <point x="514" y="639"/>
      <point x="513" y="669"/>
      <point x="492" y="688" type="curve" smooth="yes"/>
      <point x="472" y="706"/>
      <point x="440" y="705"/>
    </contour>
  </outline>
</glyph>
<glyph name="Z" format="2">
  <advance width="641"/>
  <unicode hex="005A"/>
  <outline>
    <contour>
      <point x="114" y="593" type="curve"/>
      <point x="262" y="559"/>
      <point x="352" y="553"/>
      <point x="436" y="560" type="curve"/>
      <point x="296" y="380"/>
      <point x="102" y="136"/>
      <point x="56" y="91" type="curve" smooth="yes"/>
      <point x="24" y="59"/>
      <point x="46" y="5"/>
      <point x="91" y="5" type="curve" smooth="yes"/>
      <point x="257" y="5"/>
      <point x="466" y="1"/>
      <point x="531" y="-12" type="curve" smooth="yes"/>
      <point x="559" y="-17"/>
      <point x="585" y="0"/>
      <point x="590" y="27" type="curve" smooth="yes"/>
      <point x="595" y="55"/>
      <point x="578" y="81"/>
      <point x="551" y="86" type="curve" smooth="yes"/>
      <point x="487" y="98"/>
      <point x="331" y="103"/>
      <point x="201" y="104" type="curve"/>
      <point x="301" y="225"/>
      <point x="478" y="451"/>
      <point x="589" y="593" type="curve" smooth="yes"/>
      <point x="617" y="629"/>
      <point x="588" y="680"/>
      <point x="543" y="674" type="curve" smooth="yes"/>
      <point x="419" y="656"/>
      <point x="344" y="643"/>
      <point x="136" y="691" type="curve" smooth="yes"/>
      <point x="109" y="697"/>
      <point x="83" y="680"/>
      <point x="76" y="653" type="curve"/>
      <point x="70" y="626"/>
      <point x="87" y="600"/>
    </contour>
  </outline>
</glyph>
<glyph name="a" format="2">
  <advance width="778"/>
  <unicode hex="0061"/>
  <outline>
    <contour>
      <point x="512" y="443" type="curve" smooth="yes"/>
      <point x="411" y="618"/>
      <point x="124" y="616"/>
      <point x="53" y="359" type="curve" smooth="yes"/>
      <point x="-12" y="124"/>
      <point x="182" y="-44"/>
      <point x="395" y="8" type="curve" smooth="yes"/>
      <point x="675" y="77"/>
      <point x="708" y="537"/>
      <point x="571" y="544" type="curve" smooth="yes"/>
      <point x="431" y="551"/>
      <point x="483" y="189"/>
      <point x="522" y="108" type="curve" smooth="yes"/>
      <point x="547" y="56"/>
      <point x="611" y="-12"/>
      <point x="688" y="-12" type="curve" smooth="yes"/>
      <point x="716" y="-12"/>
      <point x="738" y="10"/>
      <point x="738" y="38" type="curve" smooth="yes"/>
      <point x="738" y="66"/>
      <point x="716" y="88"/>
      <point x="688" y="88" type="curve" smooth="yes"/>
      <point x="667" y="88"/>
      <point x="629" y="116"/>
      <point x="612" y="152" type="curve" smooth="yes"/>
      <point x="581" y="217"/>
      <point x="570" y="418"/>
      <point x="591" y="455" type="curve"/>
      <point x="541" y="456" type="line"/>
      <point x="564" y="414"/>
      <point x="549" y="150"/>
      <point x="371" y="106" type="curve" smooth="yes"/>
      <point x="226" y="71"/>
      <point x="106" y="178"/>
      <point x="149" y="333" type="curve" smooth="yes"/>
      <point x="196" y="504"/>
      <point x="369" y="492"/>
      <point x="426" y="393" type="curve" smooth="yes"/>
      <point x="440" y="369"/>
      <point x="470" y="361"/>
      <point x="494" y="375" type="curve" smooth="yes"/>
      <point x="518" y="389"/>
      <point x="526" y="419"/>
    </contour>
  </outline>
</glyph>
<glyph name="b" format="2">
  <advance width="611"/>
  <unicode hex="0062"/>
  <outline>
    <contour>
      <point x="204" y="653" type="curve" smooth="yes"/>
      <point x="168" y="374"/>
      <point x="163" y="289"/>
      <point x="129" y="153" type="curve"/>
      <point x="228" y="138" type="line"/>
      <point x="235" y="251"/>
      <point x="278" y="349"/>
      <point x="392" y="338" type="curve" smooth="yes"/>
      <point x="483" y="330"/>
      <point x="517" y="145"/>
      <point x="370" y="96" type="curve" smooth="yes"/>
      <point x="277" y="65"/>
      <point x="163" y="124"/>
      <point x="125" y="162" type="curve" smooth="yes"/>
      <point x="106" y="182"/>
      <point x="75" y="182"/>
      <point x="55" y="162" type="curve" smooth="yes"/>
      <point x="35" y="142"/>
      <point x="35" y="111"/>
      <point x="55" y="92" type="curve" smooth="yes"/>
      <point x="107" y="40"/>
      <point x="257" y="-47"/>
      <point x="402" y="0" type="curve" smooth="yes"/>
      <point x="649" y="81"/>
      <point x="603" y="420"/>
      <point x="401" y="438" type="curve" smooth="yes"/>
      <point x="187" y="457"/>
      <point x="135" y="257"/>
      <point x="128" y="144" type="curve" smooth="yes"/>
      <point x="124" y="83"/>
      <point x="212" y="70"/>
      <point x="227" y="129" type="curve" smooth="yes"/>
      <point x="261" y="273"/>
      <point x="268" y="362"/>
      <point x="304" y="641" type="curve" smooth="yes"/>
      <point x="307" y="668"/>
      <point x="288" y="693"/>
      <point x="260" y="697" type="curve"/>
      <point x="233" y="700"/>
      <point x="208" y="681"/>
    </contour>
  </outline>
</glyph>
<glyph name="c" format="2">
  <advance width="489"/>
  <unicode hex="0063"/>
  <outline>
    <contour>
      <point x="439" y="489" type="curve" smooth="yes"/>
      <point x="439" y="573"/>
      <point x="227" y="692"/>
      <point x="86" y="460" type="curve" smooth="yes"/>
      <point x="-51" y="234"/>
      <point x="137" y="-88"/>
      <point x="415" y="9" type="curve" smooth="yes"/>
      <point x="442" y="18"/>
      <point x="455" y="46"/>
      <point x="446" y="72" type="curve" smooth="yes"/>
      <point x="437" y="99"/>
      <point x="409" y="112"/>
      <point x="383" y="103" type="curve" smooth="yes"/>
      <point x="187" y="35"/>
      <point x="87" y="268"/>
      <point x="172" y="408" type="curve" smooth="yes"/>
      <point x="252" y="540"/>
      <point x="333" y="489"/>
      <point x="341" y="475" type="curve" smooth="yes"/>
      <point x="350" y="459"/>
      <point x="364" y="439"/>
      <point x="389" y="439" type="curve" smooth="yes"/>
      <point x="417" y="439"/>
      <point x="439" y="461"/>
    </contour>
  </outline>
</glyph>
<glyph name="d" format="2">
  <advance width="697"/>
  <unicode hex="0064"/>
  <outline>
    <contour>
      <point x="461" y="326" type="curve" smooth="yes"/>
      <point x="402" y="467"/>
      <point x="231" y="459"/>
      <point x="154" y="411" type="curve" smooth="yes"/>
      <point x="-16" y="305"/>
      <point x="-5" y="-13"/>
      <point x="249" y="-14" type="curve" smooth="yes"/>
      <point x="451" y="-15"/>
      <point x="525" y="130"/>
      <point x="535" y="346" type="curve" smooth="yes"/>
      <point x="541" y="460"/>
      <point x="533" y="372"/>
      <point x="564" y="637" type="curve" smooth="yes"/>
      <point x="571" y="702"/>
      <point x="474" y="715"/>
      <point x="465" y="650" type="curve" smooth="yes"/>
      <point x="386" y="116"/>
      <point x="509" y="60"/>
      <point x="576" y="9" type="curve"/>
      <point x="597" y="-8"/>
      <point x="629" y="-3"/>
      <point x="646" y="19" type="curve" smooth="yes"/>
      <point x="663" y="40"/>
      <point x="658" y="72"/>
      <point x="636" y="89" type="curve" smooth="yes"/>
      <point x="599" y="117"/>
      <point x="490" y="137"/>
      <point x="563" y="636" type="curve"/>
      <point x="464" y="649" type="line"/>
      <point x="433" y="382"/>
      <point x="441" y="468"/>
      <point x="435" y="350" type="curve" smooth="yes"/>
      <point x="425" y="150"/>
      <point x="367" y="85"/>
      <point x="249" y="86" type="curve" smooth="yes"/>
      <point x="105" y="87"/>
      <point x="115" y="270"/>
      <point x="206" y="327" type="curve" smooth="yes"/>
      <point x="257" y="358"/>
      <point x="344" y="347"/>
      <point x="369" y="288" type="curve" smooth="yes"/>
      <point x="380" y="262"/>
      <point x="409" y="250"/>
      <point x="434" y="261" type="curve" smooth="yes"/>
      <point x="460" y="272"/>
      <point x="472" y="301"/>
    </contour>
  </outline>
</glyph>
<glyph name="e" format="2">
  <advance width="465"/>
  <unicode hex="0065"/>
  <outline>
    <contour>
      <point x="103" y="245" type="curve" smooth="yes"/>
      <point x="221" y="214"/>
      <point x="346" y="235"/>
      <point x="390" y="351" type="curve" smooth="yes"/>
      <point x="445" y="496"/>
      <point x="320" y="626"/>
      <point x="190" y="527" type="curve" smooth="yes"/>
      <point x="61" y="430"/>
      <point x="-141" y="0"/>
      <point x="375" y="-2" type="curve" smooth="yes"/>
      <point x="402" y="-2"/>
      <point x="425" y="20"/>
      <point x="425" y="48" type="curve" smooth="yes"/>
      <point x="425" y="75"/>
      <point x="403" y="98"/>
      <point x="375" y="98" type="curve" smooth="yes"/>
      <point x="-58" y="100"/>
      <point x="233" y="434"/>
      <point x="250" y="447" type="curve" smooth="yes"/>
      <point x="304" y="488"/>
      <point x="314" y="436"/>
      <point x="296" y="387" type="curve" smooth="yes"/>
      <point x="280" y="343"/>
      <point x="245" y="314"/>
      <point x="127" y="343" type="curve" smooth="yes"/>
      <point x="100" y="349"/>
      <point x="73" y="333"/>
      <point x="66" y="306" type="curve"/>
      <point x="60" y="279"/>
      <point x="76" y="252"/>
    </contour>
  </outline>
</glyph>
<glyph name="f" format="2">
  <advance width="400"/>
  <unicode hex="0066"/>
  <outline>
    <contour>
      <point x="287" y="719" type="curve" smooth="yes"/>
      <point x="133" y="660"/>
      <point x="140" y="483"/>
      <point x="138" y="259" type="curve" smooth="yes"/>
      <point x="136" y="73"/>
      <point x="138" y="227"/>
      <point x="134" y="30" type="curve" smooth="yes"/>
      <point x="133" y="2"/>
      <point x="155" y="-20"/>
      <point x="183" y="-21" type="curve" smooth="yes"/>
      <point x="211" y="-22"/>
      <point x="233" y="0"/>
      <point x="234" y="28" type="curve" smooth="yes"/>
      <point x="238" y="225"/>
      <point x="236" y="71"/>
      <point x="238" y="259" type="curve" smooth="yes"/>
      <point x="240" y="494"/>
      <point x="242" y="594"/>
      <point x="323" y="625" type="curve" smooth="yes"/>
      <point x="349" y="635"/>
      <point x="362" y="664"/>
      <point x="352" y="690" type="curve" smooth="yes"/>
      <point x="342" y="716"/>
      <point x="313" y="729"/>
    </contour>
    <contour>
      <point x="90" y="317" type="curve" smooth="yes"/>
      <point x="181" y="317"/>
      <point x="244" y="312"/>
      <point x="313" y="317" type="curve" smooth="yes"/>
      <point x="340" y="319"/>
      <point x="361" y="343"/>
      <point x="359" y="371" type="curve" smooth="yes"/>
      <point x="357" y="398"/>
      <point x="333" y="419"/>
      <point x="305" y="417" type="curve" smooth="yes"/>
      <point x="240" y="412"/>
      <point x="191" y="417"/>
      <point x="90" y="417" type="curve" smooth="yes"/>
      <point x="62" y="417"/>
      <point x="40" y="395"/>
      <point x="40" y="367" type="curve" smooth="yes"/>
      <point x="40" y="339"/>
      <point x="62" y="317"/>
    </contour>
  </outline>
</glyph>
<glyph name="g" format="2">
  <advance width="577"/>
  <unicode hex="0067"/>
  <outline>
    <contour>
      <point x="505" y="397" type="curve" smooth="yes"/>
      <point x="233" y="722"/>
      <point x="-151" y="244"/>
      <point x="151" y="41" type="curve" smooth="yes"/>
      <point x="303" y="-61"/>
      <point x="491" y="81"/>
      <point x="535" y="327" type="curve"/>
      <point x="436" y="338" type="line"/>
      <point x="426" y="58"/>
      <point x="440" y="-14"/>
      <point x="389" y="-123" type="curve" smooth="yes"/>
      <point x="334" y="-238"/>
      <point x="194" y="-232"/>
      <point x="163" y="-148" type="curve" smooth="yes"/>
      <point x="153" y="-122"/>
      <point x="125" y="-109"/>
      <point x="99" y="-118" type="curve"/>
      <point x="73" y="-128"/>
      <point x="60" y="-156"/>
      <point x="69" y="-182" type="curve" smooth="yes"/>
      <point x="130" y="-350"/>
      <point x="386" y="-362"/>
      <point x="479" y="-165" type="curve" smooth="yes"/>
      <point x="542" y="-34"/>
      <point x="526" y="59"/>
      <point x="536" y="334" type="curve" smooth="yes"/>
      <point x="538" y="396"/>
      <point x="448" y="406"/>
      <point x="437" y="345" type="curve" smooth="yes"/>
      <point x="408" y="183"/>
      <point x="295" y="64"/>
      <point x="207" y="123" type="curve" smooth="yes"/>
      <point x="33" y="240"/>
      <point x="253" y="542"/>
      <point x="429" y="333" type="curve" smooth="yes"/>
      <point x="446" y="312"/>
      <point x="478" y="309"/>
      <point x="499" y="327" type="curve"/>
      <point x="520" y="344"/>
      <point x="523" y="376"/>
    </contour>
  </outline>
</glyph>
<glyph name="h" format="2">
  <advance width="502"/>
  <unicode hex="0068"/>
  <outline>
    <contour>
      <point x="97" y="711" type="curve" smooth="yes"/>
      <point x="79" y="538"/>
      <point x="59" y="252"/>
      <point x="41" y="45" type="curve" smooth="yes"/>
      <point x="36" y="-19"/>
      <point x="131" y="-30"/>
      <point x="140" y="34" type="curve" smooth="yes"/>
      <point x="159" y="164"/>
      <point x="149" y="312"/>
      <point x="237" y="312" type="curve" smooth="yes"/>
      <point x="362" y="312"/>
      <point x="203" y="13"/>
      <point x="406" y="-9" type="curve" smooth="yes"/>
      <point x="433" y="-12"/>
      <point x="458" y="8"/>
      <point x="461" y="36" type="curve" smooth="yes"/>
      <point x="464" y="63"/>
      <point x="444" y="88"/>
      <point x="416" y="91" type="curve" smooth="yes"/>
      <point x="345" y="98"/>
      <point x="462" y="412"/>
      <point x="237" y="412" type="curve" smooth="yes"/>
      <point x="43" y="412"/>
      <point x="58" y="162"/>
      <point x="42" y="48" type="curve"/>
      <point x="141" y="37" type="line"/>
      <point x="159" y="246"/>
      <point x="179" y="528"/>
      <point x="197" y="701" type="curve" smooth="yes"/>
      <point x="200" y="728"/>
      <point x="180" y="753"/>
      <point x="152" y="756" type="curve" smooth="yes"/>
      <point x="125" y="759"/>
      <point x="100" y="739"/>
    </contour>
  </outline>
</glyph>
<glyph name="i" format="2">
  <advance width="220"/>
  <unicode hex="0069"/>
  <outline>
    <contour>
      <point x="69" y="493" type="curve" smooth="yes"/>
      <point x="37" y="375"/>
      <point x="19" y="111"/>
      <point x="91" y="20" type="curve" smooth="yes"/>
      <point x="108" y="-2"/>
      <point x="140" y="-5"/>
      <point x="161" y="12" type="curve" smooth="yes"/>
      <point x="183" y="29"/>
      <point x="186" y="61"/>
      <point x="169" y="82" type="curve" smooth="yes"/>
      <point x="131" y="129"/>
      <point x="133" y="345"/>
      <point x="165" y="467" type="curve" smooth="yes"/>
      <point x="172" y="494"/>
      <point x="157" y="521"/>
      <point x="130" y="528" type="curve" smooth="yes"/>
      <point x="103" y="535"/>
      <point x="76" y="520"/>
    </contour>
    <contour>
      <point x="60" y="635" type="curve" smooth="yes"/>
      <point x="60" y="550"/>
      <point x="179" y="550"/>
      <point x="179" y="635" type="curve" smooth="yes"/>
      <point x="179" y="663"/>
      <point x="157" y="685"/>
      <point x="129" y="685" type="curve" smooth="yes"/>
      <point x="101" y="685"/>
      <point x="79" y="663"/>
      <point x="79" y="635" type="curve"/>
      <point x="160" y="635" type="line"/>
      <point x="160" y="663"/>
      <point x="138" y="685"/>
      <point x="110" y="685" type="curve" smooth="yes"/>
      <point x="82" y="685"/>
      <point x="60" y="663"/>
    </contour>
  </outline>
</glyph>
<glyph name="j" format="2">
  <advance width="382"/>
  <unicode hex="006A"/>
  <outline>
    <contour>
      <point x="225" y="492" type="line"/>
      <point x="225" y="300.468"/>
      <point x="221.933" y="168.735"/>
      <point x="210.412" y="80.4053" type="curve"/>
      <point x="210.404" y="80.3437" type="line"/>
      <point x="199.446" y="-5.32805"/>
      <point x="177.104" y="-21.1984"/>
      <point x="169.816" y="-23.6918" type="curve"/>
      <point x="170.002" y="-23.6288" type="line"/>
      <point x="153.141" y="-29.2492"/>
      <point x="141.24" y="-26.9864"/>
      <point x="125.707" y="-12.0078" type="curve" smooth="yes"/>
      <point x="105.767" y="7.21977"/>
      <point x="74.2353" y="6.64647"/>
      <point x="55.0078" y="-13.2932" type="curve" smooth="yes"/>
      <point x="35.7802" y="-33.2329"/>
      <point x="36.3535" y="-64.7647"/>
      <point x="56.2932" y="-83.9922" type="curve" smooth="yes"/>
      <point x="96.6366" y="-122.895"/>
      <point x="146.808" y="-136.769"/>
      <point x="201.811" y="-118.434" type="curve"/>
      <point x="202.184" y="-118.308" type="line"/>
      <point x="270.896" y="-94.8016"/>
      <point x="298.554" y="-18.672"/>
      <point x="309.596" y="67.6563" type="curve"/>
      <point x="309.588" y="67.5947" type="line"/>
      <point x="322.067" y="163.265"/>
      <point x="325" y="301.532"/>
      <point x="325" y="492" type="curve" smooth="yes"/>
      <point x="325" y="519.7"/>
      <point x="302.7" y="542"/>
      <point x="275" y="542" type="curve" smooth="yes"/>
      <point x="247.3" y="542"/>
      <point x="225" y="519.7"/>
      <point x="225" y="492" type="curve"/>
    </contour>
    <contour>
      <point x="279.878" y="658.525" type="curve"/>
      <point x="247.612" y="602.984" type="line"/>
      <point x="260.363" y="578.393"/>
      <point x="290.425" y="568.861"/>
      <point x="315.016" y="581.612" type="curve" smooth="yes"/>
      <point x="339.607" y="594.363"/>
      <point x="349.139" y="624.425"/>
      <point x="336.388" y="649.016" type="curve" smooth="yes"/>
      <point x="273.758" y="769.803"/>
      <point x="125.829" y="578.96"/>
      <point x="266.122" y="559.475" type="curve" smooth="yes"/>
      <point x="293.558" y="555.665"/>
      <point x="318.714" y="574.685"/>
      <point x="322.525" y="602.122" type="curve" smooth="yes"/>
      <point x="326.335" y="629.558"/>
      <point x="307.315" y="654.714"/>
    </contour>
  </outline>
</glyph>
<glyph name="k" format="2">
  <advance width="432"/>
  <unicode hex="006B"/>
  <outline>
    <contour>
      <point x="98" y="660" type="curve" smooth="yes"/>
      <point x="75" y="422"/>
      <point x="55" y="172"/>
      <point x="41" y="47" type="curve"/>
      <point x="141" y="37" type="line"/>
      <point x="144" y="79"/>
      <point x="145" y="112"/>
      <point x="153" y="138" type="curve"/>
      <point x="181" y="87"/>
      <point x="243" y="3"/>
      <point x="342" y="3" type="curve" smooth="yes"/>
      <point x="370" y="3"/>
      <point x="392" y="25"/>
      <point x="392" y="53" type="curve" smooth="yes"/>
      <point x="392" y="81"/>
      <point x="370" y="103"/>
      <point x="342" y="103" type="curve" smooth="yes"/>
      <point x="281" y="103"/>
      <point x="232" y="189"/>
      <point x="204" y="267" type="curve" smooth="yes"/>
      <point x="190" y="305"/>
      <point x="140" y="312"/>
      <point x="117" y="279" type="curve"/>
      <point x="44" y="179"/>
      <point x="48" y="128"/>
      <point x="41" y="45" type="curve" smooth="yes"/>
      <point x="36" y="-20"/>
      <point x="133" y="-30"/>
      <point x="141" y="35" type="curve" smooth="yes"/>
      <point x="155" y="160"/>
      <point x="176" y="418"/>
      <point x="198" y="650" type="curve" smooth="yes"/>
      <point x="201" y="678"/>
      <point x="180" y="703"/>
      <point x="153" y="705" type="curve"/>
      <point x="125" y="708"/>
      <point x="101" y="687"/>
    </contour>
    <contour>
      <point x="332" y="495" type="curve" smooth="yes"/>
      <point x="228" y="500"/>
      <point x="179" y="420"/>
      <point x="104" y="276" type="curve" smooth="yes"/>
      <point x="91" y="252"/>
      <point x="100" y="222"/>
      <point x="125" y="209" type="curve" smooth="yes"/>
      <point x="149" y="196"/>
      <point x="179" y="205"/>
      <point x="192" y="230" type="curve" smooth="yes"/>
      <point x="275" y="386"/>
      <point x="296" y="396"/>
      <point x="328" y="395" type="curve" smooth="yes"/>
      <point x="355" y="394"/>
      <point x="379" y="415"/>
      <point x="380" y="443" type="curve" smooth="yes"/>
      <point x="381" y="470"/>
      <point x="360" y="494"/>
    </contour>
  </outline>
</glyph>
<glyph name="l" format="2">
  <advance width="200"/>
  <unicode hex="006C"/>
  <outline>
    <contour>
      <point x="59" y="657" type="curve" smooth="yes"/>
      <point x="40" y="446"/>
      <point x="31" y="222"/>
      <point x="54" y="37" type="curve" smooth="yes"/>
      <point x="57" y="9"/>
      <point x="83" y="-10"/>
      <point x="110" y="-7" type="curve"/>
      <point x="138" y="-3"/>
      <point x="157" y="22"/>
      <point x="154" y="49" type="curve" smooth="yes"/>
      <point x="132" y="224"/>
      <point x="141" y="438"/>
      <point x="159" y="649" type="curve" smooth="yes"/>
      <point x="161" y="676"/>
      <point x="141" y="700"/>
      <point x="113" y="703" type="curve"/>
      <point x="86" y="705"/>
      <point x="61" y="685"/>
    </contour>
  </outline>
</glyph>
<glyph name="m" format="2">
  <advance width="1025"/>
  <unicode hex="006D"/>
  <outline>
    <contour>
      <point x="45" y="515" type="curve" smooth="yes"/>
      <point x="147" y="266"/>
      <point x="147" y="130"/>
      <point x="147" y="37" type="curve" smooth="yes"/>
      <point x="147" y="-25"/>
      <point x="239" y="-31"/>
      <point x="247" y="30" type="curve" smooth="yes"/>
      <point x="265" y="163"/>
      <point x="280" y="445"/>
      <point x="354" y="445" type="curve" smooth="yes"/>
      <point x="432" y="445"/>
      <point x="435" y="246"/>
      <point x="468" y="92" type="curve" smooth="yes"/>
      <point x="479" y="42"/>
      <point x="551" y="39"/>
      <point x="565" y="89" type="curve" smooth="yes"/>
      <point x="609" y="241"/>
      <point x="621" y="445"/>
      <point x="742" y="445" type="curve" smooth="yes"/>
      <point x="850" y="445"/>
      <point x="774" y="163"/>
      <point x="894" y="4" type="curve" smooth="yes"/>
      <point x="911" y="-18"/>
      <point x="942" y="-23"/>
      <point x="964" y="-6" type="curve" smooth="yes"/>
      <point x="986" y="11"/>
      <point x="991" y="42"/>
      <point x="974" y="64" type="curve" smooth="yes"/>
      <point x="868" y="205"/>
      <point x="974" y="545"/>
      <point x="742" y="545" type="curve" smooth="yes"/>
      <point x="610" y="545"/>
      <point x="555" y="440"/>
      <point x="526" y="344" type="curve"/>
      <point x="511" y="422"/>
      <point x="474" y="545"/>
      <point x="354" y="545" type="curve" smooth="yes"/>
      <point x="178" y="545"/>
      <point x="176" y="254"/>
      <point x="147" y="44" type="curve"/>
      <point x="247" y="37" type="line"/>
      <point x="247" y="138"/>
      <point x="246" y="288"/>
      <point x="137" y="553" type="curve"/>
      <point x="127" y="579"/>
      <point x="98" y="591"/>
      <point x="72" y="580" type="curve"/>
      <point x="46" y="570"/>
      <point x="34" y="541"/>
    </contour>
  </outline>
</glyph>
<glyph name="n" format="2">
  <advance width="604"/>
  <unicode hex="006E"/>
  <outline>
    <contour>
      <point x="49" y="488" type="curve" smooth="yes"/>
      <point x="109" y="400"/>
      <point x="72" y="172"/>
      <point x="89" y="44" type="curve" smooth="yes"/>
      <point x="96" y="-10"/>
      <point x="173" y="-15"/>
      <point x="187" y="38" type="curve" smooth="yes"/>
      <point x="237" y="219"/>
      <point x="197" y="458"/>
      <point x="314" y="457" type="curve" smooth="yes"/>
      <point x="414" y="456"/>
      <point x="376" y="173"/>
      <point x="472" y="20" type="curve" smooth="yes"/>
      <point x="487" y="-3"/>
      <point x="517" y="-10"/>
      <point x="541" y="5" type="curve" smooth="yes"/>
      <point x="564" y="20"/>
      <point x="571" y="50"/>
      <point x="556" y="74" type="curve" smooth="yes"/>
      <point x="466" y="217"/>
      <point x="530" y="556"/>
      <point x="314" y="557" type="curve" smooth="yes"/>
      <point x="86" y="558"/>
      <point x="139" y="239"/>
      <point x="91" y="64" type="curve"/>
      <point x="189" y="58" type="line"/>
      <point x="172" y="186"/>
      <point x="215" y="421"/>
      <point x="133" y="544" type="curve" smooth="yes"/>
      <point x="117" y="567"/>
      <point x="86" y="573"/>
      <point x="63" y="558" type="curve"/>
      <point x="40" y="542"/>
      <point x="34" y="511"/>
    </contour>
  </outline>
</glyph>
<glyph name="o" format="2">
  <advance width="612"/>
  <unicode hex="006F"/>
  <outline>
    <contour>
      <point x="127" y="477" type="curve" smooth="yes"/>
      <point x="-15" y="387"/>
      <point x="29" y="109"/>
      <point x="176" y="29" type="curve" smooth="yes"/>
      <point x="304" y="-40"/>
      <point x="521" y="-7"/>
      <point x="565" y="213" type="curve" smooth="yes"/>
      <point x="615" y="460"/>
      <point x="385" y="640"/>
      <point x="202" y="525" type="curve" smooth="yes"/>
      <point x="179" y="511"/>
      <point x="172" y="480"/>
      <point x="187" y="456" type="curve" smooth="yes"/>
      <point x="201" y="433"/>
      <point x="232" y="426"/>
      <point x="256" y="441" type="curve" smooth="yes"/>
      <point x="363" y="508"/>
      <point x="499" y="392"/>
      <point x="467" y="233" type="curve" smooth="yes"/>
      <point x="439" y="97"/>
      <point x="310" y="70"/>
      <point x="224" y="117" type="curve" smooth="yes"/>
      <point x="138" y="164"/>
      <point x="110" y="348"/>
      <point x="181" y="393" type="curve" smooth="yes"/>
      <point x="204" y="408"/>
      <point x="211" y="438"/>
      <point x="196" y="462" type="curve" smooth="yes"/>
      <point x="181" y="485"/>
      <point x="151" y="492"/>
    </contour>
  </outline>
</glyph>
<glyph name="p" format="2">
  <advance width="601"/>
  <unicode hex="0070"/>
  <outline>
    <contour>
      <point x="95" y="515" type="curve" smooth="yes"/>
      <point x="98" y="329"/>
      <point x="65" y="-152"/>
      <point x="42" y="-250" type="curve"/>
      <point x="141" y="-264" type="line"/>
      <point x="157" y="-31"/>
      <point x="154" y="264"/>
      <point x="255" y="412" type="curve" smooth="yes"/>
      <point x="331" y="522"/>
      <point x="498" y="408"/>
      <point x="452" y="252" type="curve" smooth="yes"/>
      <point x="418" y="136"/>
      <point x="291" y="118"/>
      <point x="224" y="221" type="curve" smooth="yes"/>
      <point x="209" y="245"/>
      <point x="178" y="251"/>
      <point x="155" y="236" type="curve" smooth="yes"/>
      <point x="131" y="221"/>
      <point x="125" y="190"/>
      <point x="140" y="167" type="curve" smooth="yes"/>
      <point x="254" y="-8"/>
      <point x="490" y="26"/>
      <point x="548" y="224" type="curve" smooth="yes"/>
      <point x="627" y="496"/>
      <point x="310" y="669"/>
      <point x="173" y="468" type="curve" smooth="yes"/>
      <point x="54" y="294"/>
      <point x="58" y="-11"/>
      <point x="41" y="-258" type="curve" smooth="yes"/>
      <point x="37" y="-319"/>
      <point x="126" y="-332"/>
      <point x="140" y="-272" type="curve" smooth="yes"/>
      <point x="165" y="-162"/>
      <point x="198" y="329"/>
      <point x="195" y="517" type="curve" smooth="yes"/>
      <point x="195" y="544"/>
      <point x="172" y="566"/>
      <point x="144" y="566" type="curve" smooth="yes"/>
      <point x="117" y="566"/>
      <point x="95" y="543"/>
    </contour>
  </outline>
</glyph>
<glyph name="q" format="2">
  <advance width="574"/>
  <unicode hex="0071"/>
  <outline>
    <contour>
      <point x="511" y="367" type="curve" smooth="yes"/>
      <point x="511" y="489"/>
      <point x="381" y="631"/>
      <point x="165" y="496" type="curve" smooth="yes"/>
      <point x="12" y="401"/>
      <point x="9" y="185"/>
      <point x="112" y="110" type="curve" smooth="yes"/>
      <point x="207" y="41"/>
      <point x="414" y="109"/>
      <point x="490" y="257" type="curve" smooth="yes"/>
      <point x="520" y="315"/>
      <point x="436" y="361"/>
      <point x="403" y="305" type="curve" smooth="yes"/>
      <point x="299" y="129"/>
      <point x="236" y="42"/>
      <point x="194" y="-99" type="curve" smooth="yes"/>
      <point x="118" y="-350"/>
      <point x="388" y="-358"/>
      <point x="519" y="-222" type="curve" smooth="yes"/>
      <point x="538" y="-202"/>
      <point x="538" y="-170"/>
      <point x="518" y="-151" type="curve" smooth="yes"/>
      <point x="498" y="-132"/>
      <point x="466" y="-132"/>
      <point x="447" y="-152" type="curve" smooth="yes"/>
      <point x="421" y="-179"/>
      <point x="242" y="-285"/>
      <point x="290" y="-127" type="curve" smooth="yes"/>
      <point x="328" y="-2"/>
      <point x="383" y="75"/>
      <point x="489" y="255" type="curve"/>
      <point x="402" y="303" type="line"/>
      <point x="342" y="187"/>
      <point x="199" y="170"/>
      <point x="170" y="190" type="curve"/>
      <point x="128" y="221"/>
      <point x="122" y="352"/>
      <point x="217" y="412" type="curve" smooth="yes"/>
      <point x="367" y="504"/>
      <point x="411" y="411"/>
      <point x="411" y="367" type="curve" smooth="yes"/>
      <point x="411" y="339"/>
      <point x="433" y="317"/>
      <point x="461" y="317" type="curve" smooth="yes"/>
      <point x="489" y="317"/>
      <point x="511" y="339"/>
    </contour>
  </outline>
</glyph>
<glyph name="r" format="2">
  <advance width="485"/>
  <unicode hex="0072"/>
  <outline>
    <contour>
      <point x="65" y="463" type="curve" smooth="yes"/>
      <point x="165" y="402"/>
      <point x="247" y="287"/>
      <point x="195" y="169" type="curve"/>
      <point x="204" y="245"/>
      <point x="257" y="388"/>
      <point x="414" y="458" type="curve" smooth="yes"/>
      <point x="440" y="470"/>
      <point x="451" y="499"/>
      <point x="440" y="524" type="curve" smooth="yes"/>
      <point x="428" y="550"/>
      <point x="399" y="561"/>
      <point x="374" y="550" type="curve" smooth="yes"/>
      <point x="-48" y="362"/>
      <point x="94" y="-171"/>
      <point x="253" y="67" type="curve" smooth="yes"/>
      <point x="397" y="284"/>
      <point x="250" y="469"/>
      <point x="117" y="549" type="curve" smooth="yes"/>
      <point x="93" y="563"/>
      <point x="62" y="555"/>
      <point x="48" y="532" type="curve" smooth="yes"/>
      <point x="34" y="508"/>
      <point x="42" y="477"/>
    </contour>
  </outline>
</glyph>
<glyph name="s" format="2">
  <advance width="498"/>
  <unicode hex="0073"/>
  <outline>
    <contour>
      <point x="415" y="532" type="curve"/>
      <point x="342" y="569"/>
      <point x="167" y="573"/>
      <point x="136" y="441" type="curve" smooth="yes"/>
      <point x="119" y="371"/>
      <point x="133" y="282"/>
      <point x="279" y="213" type="curve" smooth="yes"/>
      <point x="433" y="140"/>
      <point x="323" y="89"/>
      <point x="244" y="93" type="curve" smooth="yes"/>
      <point x="188" y="96"/>
      <point x="162" y="95"/>
      <point x="106" y="114" type="curve" smooth="yes"/>
      <point x="80" y="123"/>
      <point x="52" y="110"/>
      <point x="43" y="83" type="curve" smooth="yes"/>
      <point x="34" y="57"/>
      <point x="47" y="29"/>
      <point x="74" y="20" type="curve" smooth="yes"/>
      <point x="144" y="-5"/>
      <point x="182" y="-4"/>
      <point x="240" y="-7" type="curve" smooth="yes"/>
      <point x="454" y="-17"/>
      <point x="561" y="191"/>
      <point x="321" y="303" type="curve" smooth="yes"/>
      <point x="219" y="352"/>
      <point x="228" y="394"/>
      <point x="234" y="418" type="curve" smooth="yes"/>
      <point x="245" y="466"/>
      <point x="341" y="457"/>
      <point x="369" y="442" type="curve"/>
      <point x="394" y="430"/>
      <point x="424" y="440"/>
      <point x="437" y="464" type="curve"/>
      <point x="449" y="489"/>
      <point x="439" y="519"/>
    </contour>
  </outline>
</glyph>
<glyph name="t" format="2">
  <advance width="432"/>
  <unicode hex="0074"/>
  <outline>
    <contour>
      <point x="159" y="662" type="curve" smooth="yes"/>
      <point x="138" y="499"/>
      <point x="130" y="379"/>
      <point x="130" y="145" type="curve" smooth="yes"/>
      <point x="130" y="-86"/>
      <point x="328" y="-69"/>
      <point x="385" y="31" type="curve" smooth="yes"/>
      <point x="399" y="55"/>
      <point x="391" y="86"/>
      <point x="367" y="99" type="curve"/>
      <point x="343" y="113"/>
      <point x="312" y="105"/>
      <point x="299" y="81" type="curve"/>
      <point x="291" y="68"/>
      <point x="230" y="19"/>
      <point x="230" y="145" type="curve" smooth="yes"/>
      <point x="230" y="375"/>
      <point x="238" y="491"/>
      <point x="259" y="650" type="curve" smooth="yes"/>
      <point x="262" y="677"/>
      <point x="243" y="702"/>
      <point x="215" y="706" type="curve"/>
      <point x="188" y="709"/>
      <point x="163" y="690"/>
    </contour>
    <contour>
      <point x="88" y="337" type="curve" smooth="yes"/>
      <point x="163" y="332"/>
      <point x="258" y="337"/>
      <point x="288" y="337" type="curve" smooth="yes"/>
      <point x="316" y="337"/>
      <point x="338" y="359"/>
      <point x="338" y="387" type="curve" smooth="yes"/>
      <point x="338" y="415"/>
      <point x="316" y="437"/>
      <point x="288" y="437" type="curve" smooth="yes"/>
      <point x="248" y="437"/>
      <point x="165" y="432"/>
      <point x="94" y="437" type="curve" smooth="yes"/>
      <point x="67" y="439"/>
      <point x="43" y="418"/>
      <point x="41" y="390" type="curve" smooth="yes"/>
      <point x="39" y="363"/>
      <point x="60" y="339"/>
    </contour>
  </outline>
</glyph>
<glyph name="u" format="2">
  <advance width="650"/>
  <unicode hex="0075"/>
  <outline>
    <contour>
      <point x="77" y="522" type="curve" smooth="yes"/>
      <point x="48" y="393"/>
      <point x="-38" y="1"/>
      <point x="225" y="1" type="curve" smooth="yes"/>
      <point x="447" y="1"/>
      <point x="443" y="311"/>
      <point x="468" y="505" type="curve"/>
      <point x="368" y="511" type="line"/>
      <point x="368" y="290"/>
      <point x="372" y="1"/>
      <point x="560" y="0" type="curve" smooth="yes"/>
      <point x="587" y="0"/>
      <point x="610" y="22"/>
      <point x="610" y="50" type="curve" smooth="yes"/>
      <point x="610" y="77"/>
      <point x="588" y="100"/>
      <point x="560" y="100" type="curve" smooth="yes"/>
      <point x="467" y="101"/>
      <point x="468" y="383"/>
      <point x="468" y="511" type="curve" smooth="yes"/>
      <point x="468" y="574"/>
      <point x="376" y="579"/>
      <point x="368" y="517" type="curve" smooth="yes"/>
      <point x="344" y="326"/>
      <point x="343" y="101"/>
      <point x="225" y="101" type="curve" smooth="yes"/>
      <point x="112" y="101"/>
      <point x="129" y="300"/>
      <point x="175" y="500" type="curve" smooth="yes"/>
      <point x="181" y="527"/>
      <point x="164" y="554"/>
      <point x="137" y="560" type="curve" smooth="yes"/>
      <point x="110" y="566"/>
      <point x="83" y="549"/>
    </contour>
  </outline>
</glyph>
<glyph name="v" format="2">
  <advance width="520"/>
  <unicode hex="0076"/>
  <outline>
    <contour>
      <point x="43" y="510" type="curve" smooth="yes"/>
      <point x="75" y="396"/>
      <point x="107" y="187"/>
      <point x="136" y="41" type="curve" smooth="yes"/>
      <point x="146" y="-7"/>
      <point x="212" y="-14"/>
      <point x="231" y="31" type="curve" smooth="yes"/>
      <point x="391" y="404"/>
      <point x="445" y="472"/>
      <point x="461" y="485" type="curve" smooth="yes"/>
      <point x="483" y="502"/>
      <point x="486" y="533"/>
      <point x="469" y="555" type="curve" smooth="yes"/>
      <point x="452" y="577"/>
      <point x="421" y="580"/>
      <point x="399" y="563" type="curve" smooth="yes"/>
      <point x="376" y="546"/>
      <point x="330" y="498"/>
      <point x="205" y="220" type="curve"/>
      <point x="185" y="329"/>
      <point x="162" y="456"/>
      <point x="139" y="538" type="curve" smooth="yes"/>
      <point x="132" y="564"/>
      <point x="104" y="580"/>
      <point x="77" y="572" type="curve" smooth="yes"/>
      <point x="51" y="565"/>
      <point x="35" y="537"/>
    </contour>
  </outline>
</glyph>
<glyph name="w" format="2">
  <advance width="923"/>
  <unicode hex="0077"/>
  <outline>
    <contour>
      <point x="96" y="524" type="curve" smooth="yes"/>
      <point x="1" y="257"/>
      <point x="25" y="53"/>
      <point x="195" y="8" type="curve" smooth="yes"/>
      <point x="355" y="-35"/>
      <point x="438" y="68"/>
      <point x="473" y="152" type="curve"/>
      <point x="501" y="81"/>
      <point x="566" y="-8"/>
      <point x="707" y="8" type="curve" smooth="yes"/>
      <point x="916" y="32"/>
      <point x="919" y="311"/>
      <point x="818" y="531" type="curve" smooth="yes"/>
      <point x="807" y="556"/>
      <point x="777" y="567"/>
      <point x="752" y="555" type="curve"/>
      <point x="727" y="544"/>
      <point x="716" y="514"/>
      <point x="728" y="489" type="curve" smooth="yes"/>
      <point x="791" y="351"/>
      <point x="822" y="122"/>
      <point x="695" y="108" type="curve" smooth="yes"/>
      <point x="557" y="92"/>
      <point x="552" y="238"/>
      <point x="523" y="359" type="curve" smooth="yes"/>
      <point x="510" y="411"/>
      <point x="435" y="409"/>
      <point x="425" y="356" type="curve" smooth="yes"/>
      <point x="395" y="196"/>
      <point x="357" y="68"/>
      <point x="221" y="104" type="curve" smooth="yes"/>
      <point x="95" y="138"/>
      <point x="143" y="359"/>
      <point x="190" y="490" type="curve" smooth="yes"/>
      <point x="199" y="516"/>
      <point x="186" y="545"/>
      <point x="160" y="554" type="curve" smooth="yes"/>
      <point x="134" y="563"/>
      <point x="105" y="550"/>
    </contour>
  </outline>
</glyph>
<glyph name="x" format="2">
  <advance width="572"/>
  <unicode hex="0078"/>
  <outline>
    <contour>
      <point x="116" y="458" type="curve" smooth="yes"/>
      <point x="182" y="469"/>
      <point x="456" y="295"/>
      <point x="67" y="82" type="curve" smooth="yes"/>
      <point x="11" y="51"/>
      <point x="53" y="-34"/>
      <point x="112" y="-7" type="curve" smooth="yes"/>
      <point x="215" y="40"/>
      <point x="286" y="96"/>
      <point x="363" y="231" type="curve"/>
      <point x="383" y="267"/>
      <point x="388" y="326"/>
      <point x="431" y="371" type="curve" smooth="yes"/>
      <point x="601" y="550"/>
      <point x="493" y="630"/>
      <point x="350" y="447" type="curve" smooth="yes"/>
      <point x="290" y="371"/>
      <point x="191" y="215"/>
      <point x="450" y="0" type="curve" smooth="yes"/>
      <point x="471" y="-18"/>
      <point x="503" y="-15"/>
      <point x="520" y="6" type="curve"/>
      <point x="538" y="27"/>
      <point x="534" y="58"/>
      <point x="514" y="76" type="curve" smooth="yes"/>
      <point x="405" y="172"/>
      <point x="326" y="256"/>
      <point x="428" y="385" type="curve" smooth="yes"/>
      <point x="469" y="437"/>
      <point x="492" y="458"/>
      <point x="496" y="460" type="curve"/>
      <point x="428" y="521" type="line"/>
      <point x="427" y="519"/>
      <point x="414" y="498"/>
      <point x="359" y="441" type="curve" smooth="yes"/>
      <point x="299" y="378"/>
      <point x="287" y="301"/>
      <point x="275" y="280" type="curve"/>
      <point x="210" y="163"/>
      <point x="155" y="122"/>
      <point x="70" y="83" type="curve"/>
      <point x="115" y="-6" type="line"/>
      <point x="607" y="264"/>
      <point x="271" y="587"/>
      <point x="98" y="556" type="curve" smooth="yes"/>
      <point x="71" y="551"/>
      <point x="53" y="526"/>
      <point x="58" y="498" type="curve" smooth="yes"/>
      <point x="63" y="471"/>
      <point x="88" y="453"/>
    </contour>
  </outline>
</glyph>
<glyph name="y" format="2">
  <advance width="640"/>
  <unicode hex="0079"/>
  <outline>
    <contour>
      <point x="95" y="497" type="curve" smooth="yes"/>
      <point x="151" y="299"/>
      <point x="144" y="83"/>
      <point x="320" y="70" type="curve" smooth="yes"/>
      <point x="501" y="57"/>
      <point x="533" y="305"/>
      <point x="596" y="495" type="curve" smooth="yes"/>
      <point x="617" y="558"/>
      <point x="524" y="590"/>
      <point x="502" y="528" type="curve" smooth="yes"/>
      <point x="417" y="290"/>
      <point x="360" y="61"/>
      <point x="243" y="-164" type="curve" smooth="yes"/>
      <point x="187" y="-270"/>
      <point x="142" y="-185"/>
      <point x="140" y="-176" type="curve" smooth="yes"/>
      <point x="134" y="-149"/>
      <point x="107" y="-132"/>
      <point x="80" y="-138" type="curve" smooth="yes"/>
      <point x="53" y="-144"/>
      <point x="36" y="-171"/>
      <point x="42" y="-198" type="curve" smooth="yes"/>
      <point x="66" y="-303"/>
      <point x="234" y="-397"/>
      <point x="331" y="-210" type="curve" smooth="yes"/>
      <point x="452" y="23"/>
      <point x="515" y="268"/>
      <point x="596" y="494" type="curve"/>
      <point x="502" y="527" type="line"/>
      <point x="445" y="357"/>
      <point x="414" y="163"/>
      <point x="328" y="170" type="curve" smooth="yes"/>
      <point x="241" y="176"/>
      <point x="239" y="355"/>
      <point x="191" y="525" type="curve" smooth="yes"/>
      <point x="184" y="551"/>
      <point x="156" y="567"/>
      <point x="129" y="559" type="curve" smooth="yes"/>
      <point x="103" y="552"/>
      <point x="87" y="524"/>
    </contour>
  </outline>
</glyph>
<glyph name="z" format="2">
  <advance width="667"/>
  <unicode hex="007A"/>
  <outline>
    <contour>
      <point x="87" y="461" type="curve" smooth="yes"/>
      <point x="230" y="435"/>
      <point x="397" y="444"/>
      <point x="426" y="446" type="curve"/>
      <point x="300" y="292"/>
      <point x="75" y="104"/>
      <point x="52" y="74" type="curve" smooth="yes"/>
      <point x="21" y="35"/>
      <point x="60" y="-20"/>
      <point x="107" y="-4" type="curve" smooth="yes"/>
      <point x="220" y="34"/>
      <point x="515" y="17"/>
      <point x="556" y="-2" type="curve" smooth="yes"/>
      <point x="581" y="-14"/>
      <point x="610" y="-3"/>
      <point x="622" y="22" type="curve" smooth="yes"/>
      <point x="634" y="47"/>
      <point x="623" y="76"/>
      <point x="598" y="88" type="curve" smooth="yes"/>
      <point x="537" y="117"/>
      <point x="339" y="122"/>
      <point x="243" y="116" type="curve"/>
      <point x="344" y="209"/>
      <point x="504" y="363"/>
      <point x="579" y="484" type="curve" smooth="yes"/>
      <point x="602" y="522"/>
      <point x="566" y="570"/>
      <point x="522" y="558" type="curve" smooth="yes"/>
      <point x="468" y="543"/>
      <point x="254" y="532"/>
      <point x="105" y="559" type="curve" smooth="yes"/>
      <point x="78" y="564"/>
      <point x="52" y="546"/>
      <point x="47" y="519" type="curve" smooth="yes"/>
      <point x="42" y="492"/>
      <point x="60" y="466"/>
    </contour>
  </outline>
</glyph>
<glyph name="kn_am" format="2">
  <advance width="637"/>
  <unicode hex="0C82"/>
  <outline>
    <contour>
      <point x="220" y="524" type="curve"/>
      <point x="56" y="486"/>
      <point x="48" y="319"/>
      <point x="51" y="274" type="curve"/>
      <point x="55" y="191"/>
      <point x="117" y="42"/>
      <point x="309" y="42" type="curve" smooth="yes"/>
      <point x="458" y="42"/>
      <point x="587" y="154"/>
      <point x="587" y="290" type="curve" smooth="yes"/>
      <point x="587" y="420"/>
      <point x="492" y="571"/>
      <point x="290" y="539" type="curve" smooth="yes"/>
      <point x="258" y="534"/>
      <point x="240" y="511"/>
      <point x="245" y="478" type="curve" smooth="yes"/>
      <point x="248" y="455"/>
      <point x="275" y="435"/>
      <point x="298" y="438" type="curve" smooth="yes"/>
      <point x="449" y="460"/>
      <point x="488" y="362"/>
      <point x="488" y="290" type="curve" smooth="yes"/>
      <point x="488" y="216"/>
      <point x="406" y="137"/>
      <point x="309" y="140" type="curve" smooth="yes"/>
      <point x="175" y="144"/>
      <point x="152" y="251"/>
      <point x="150" y="278" type="curve"/>
      <point x="148" y="309"/>
      <point x="154" y="408"/>
      <point x="246" y="428" type="curve" smooth="yes"/>
      <point x="264" y="432"/>
      <point x="281" y="462"/>
      <point x="274" y="486" type="curve" smooth="yes"/>
      <point x="268" y="507"/>
      <point x="246" y="529"/>
    </contour>
  </outline>
</glyph>
<glyph name="kn_ah" format="2">
  <advance width="326"/>
  <unicode hex="0C83"/>
  <outline>
    <contour>
      <point x="63" y="137" type="curve" smooth="yes"/>
      <point x="63" y="189"/>
      <point x="91" y="273"/>
      <point x="177" y="273" type="curve" smooth="yes"/>
      <point x="223" y="273"/>
      <point x="276" y="252"/>
      <point x="276" y="162" type="curve" smooth="yes"/>
      <point x="276" y="76"/>
      <point x="228" y="38"/>
      <point x="177" y="38" type="curve" smooth="yes"/>
      <point x="130" y="38"/>
      <point x="63" y="79"/>
    </contour>
    <contour>
      <point x="163" y="145" type="curve"/>
      <point x="163" y="144"/>
      <point x="171" y="140"/>
      <point x="173" y="140" type="curve" smooth="yes"/>
      <point x="174" y="140"/>
      <point x="176" y="149"/>
      <point x="176" y="157" type="curve" smooth="yes"/>
      <point x="176" y="165"/>
      <point x="176" y="173"/>
      <point x="175" y="173" type="curve" smooth="yes"/>
      <point x="172" y="173"/>
      <point x="165" y="163"/>
    </contour>
    <contour>
      <point x="50" y="447" type="curve" smooth="yes"/>
      <point x="50" y="513"/>
      <point x="102" y="558"/>
      <point x="177" y="558" type="curve" smooth="yes"/>
      <point x="223" y="558"/>
      <point x="276" y="537"/>
      <point x="276" y="447" type="curve" smooth="yes"/>
      <point x="276" y="361"/>
      <point x="228" y="323"/>
      <point x="177" y="323" type="curve" smooth="yes"/>
      <point x="125" y="323"/>
      <point x="50" y="393"/>
    </contour>
    <contour>
      <point x="153" y="447" type="curve" smooth="yes"/>
      <point x="161" y="437"/>
      <point x="169" y="431"/>
      <point x="172" y="428" type="curve" smooth="yes"/>
      <point x="176" y="424"/>
      <point x="176" y="435"/>
      <point x="176" y="447" type="curve" smooth="yes"/>
      <point x="176" y="462"/>
      <point x="175" y="459"/>
      <point x="163" y="457" type="curve" smooth="yes"/>
      <point x="157" y="456"/>
      <point x="149" y="452"/>
    </contour>
  </outline>
</glyph>
<glyph name="kn_a" format="2">
  <advance width="700"/>
  <unicode hex="0C85"/>
  <outline>
    <contour>
      <point x="217" y="647" type="curve"/>
      <point x="103" y="578"/>
      <point x="-6" y="380"/>
      <point x="83" y="178" type="curve" smooth="yes"/>
      <point x="160" y="2"/>
      <point x="417" y="-102"/>
      <point x="558" y="83" type="curve" smooth="yes"/>
      <point x="653" y="208"/>
      <point x="705" y="512"/>
      <point x="555" y="515" type="curve" smooth="yes"/>
      <point x="382" y="518"/>
      <point x="411" y="339"/>
      <point x="371" y="302" type="curve"/>
      <point x="358" y="291"/>
      <point x="345" y="278"/>
      <point x="285" y="291" type="curve" smooth="yes"/>
      <point x="262" y="296"/>
      <point x="234" y="278"/>
      <point x="230" y="248" type="curve" smooth="yes"/>
      <point x="227" y="227"/>
      <point x="238" y="201"/>
      <point x="262" y="194" type="curve" smooth="yes"/>
      <point x="352" y="169"/>
      <point x="409" y="199"/>
      <point x="432" y="223" type="curve" smooth="yes"/>
      <point x="490" y="284"/>
      <point x="476" y="416"/>
      <point x="544" y="414" type="curve"/>
      <point x="558" y="414"/>
      <point x="540" y="228"/>
      <point x="484" y="155" type="curve" smooth="yes"/>
      <point x="378" y="18"/>
      <point x="216" y="128"/>
      <point x="170" y="232" type="curve" smooth="yes"/>
      <point x="102" y="387"/>
      <point x="229" y="541"/>
      <point x="267" y="561" type="curve" smooth="yes"/>
      <point x="288" y="572"/>
      <point x="297" y="608"/>
      <point x="280" y="630" type="curve"/>
      <point x="269" y="649"/>
      <point x="235" y="660"/>
    </contour>
  </outline>
</glyph>
<glyph name="kn_aa" format="2">
  <advance width="744"/>
  <unicode hex="0C86"/>
  <outline>
    <contour>
      <point x="224" y="652" type="curve"/>
      <point x="144" y="598"/>
      <point x="39" y="484"/>
      <point x="51" y="302" type="curve" smooth="yes"/>
      <point x="63" y="122"/>
      <point x="202" y="-21"/>
      <point x="378" y="-16" type="curve" smooth="yes"/>
      <point x="621" y="-9"/>
      <point x="477" y="369"/>
      <point x="587" y="481" type="curve" smooth="yes"/>
      <point x="602" y="496"/>
      <point x="586" y="440"/>
      <point x="577" y="420" type="curve" smooth="yes"/>
      <point x="537" y="332"/>
      <point x="374" y="305"/>
      <point x="238" y="314" type="curve" smooth="yes"/>
      <point x="213" y="316"/>
      <point x="191" y="292"/>
      <point x="189" y="264" type="curve" smooth="yes"/>
      <point x="187" y="236"/>
      <point x="210" y="215"/>
      <point x="242" y="213" type="curve" smooth="yes"/>
      <point x="374" y="204"/>
      <point x="586" y="230"/>
      <point x="658" y="359" type="curve" smooth="yes"/>
      <point x="751" y="524"/>
      <point x="645" y="625"/>
      <point x="547" y="574" type="curve" smooth="yes"/>
      <point x="366" y="480"/>
      <point x="493" y="89"/>
      <point x="375" y="84" type="curve" smooth="yes"/>
      <point x="273" y="80"/>
      <point x="178" y="161"/>
      <point x="155" y="273" type="curve" smooth="yes"/>
      <point x="128" y="407"/>
      <point x="205" y="523"/>
      <point x="277" y="569" type="curve" smooth="yes"/>
      <point x="293" y="579"/>
      <point x="299" y="612"/>
      <point x="284" y="634" type="curve"/>
      <point x="269" y="659"/>
      <point x="236" y="659"/>
    </contour>
  </outline>
</glyph>
<glyph name="kn_i" format="2">
  <advance width="829"/>
  <unicode hex="0C87"/>
  <outline>
    <contour>
      <point x="196" y="402" type="curve" smooth="yes"/>
      <point x="130" y="421"/>
      <point x="152" y="475"/>
      <point x="171" y="491" type="curve" smooth="yes"/>
      <point x="209" y="524"/>
      <point x="296" y="448"/>
      <point x="305" y="397" type="curve" smooth="yes"/>
      <point x="315" y="342"/>
      <point x="398" y="346"/>
      <point x="402" y="401" type="curve" smooth="yes"/>
      <point x="408" y="483"/>
      <point x="449" y="520"/>
      <point x="499" y="520" type="curve" smooth="yes"/>
      <point x="570" y="520"/>
      <point x="590" y="375"/>
      <point x="579" y="319" type="curve" smooth="yes"/>
      <point x="565" y="246"/>
      <point x="544" y="130"/>
      <point x="452" y="100" type="curve" smooth="yes"/>
      <point x="387" y="79"/>
      <point x="364" y="115"/>
      <point x="370" y="126" type="curve"/>
      <point x="380" y="143"/>
      <point x="429" y="133"/>
      <point x="488" y="95" type="curve" smooth="yes"/>
      <point x="575" y="39"/>
      <point x="653" y="-105"/>
      <point x="864" y="-107" type="curve" smooth="yes"/>
      <point x="886" y="-107"/>
      <point x="909" y="-85"/>
      <point x="909" y="-61" type="curve" smooth="yes"/>
      <point x="909" y="-29"/>
      <point x="888" y="-7"/>
      <point x="861" y="-7" type="curve" smooth="yes"/>
      <point x="688" y="-7"/>
      <point x="652" y="121"/>
      <point x="524" y="191" type="curve" smooth="yes"/>
      <point x="415" y="250"/>
      <point x="318" y="250"/>
      <point x="280" y="170" type="curve" smooth="yes"/>
      <point x="230" y="64"/>
      <point x="354" y="-59"/>
      <point x="510" y="16" type="curve" smooth="yes"/>
      <point x="639" y="78"/>
      <point x="667" y="225"/>
      <point x="679" y="313" type="curve" smooth="yes"/>
      <point x="692" y="412"/>
      <point x="662" y="618"/>
      <point x="500" y="620" type="curve" smooth="yes"/>
      <point x="414" y="621"/>
      <point x="355" y="568"/>
      <point x="339" y="530" type="curve"/>
      <point x="313" y="565"/>
      <point x="207" y="631"/>
      <point x="123" y="579" type="curve" smooth="yes"/>
      <point x="15" y="512"/>
      <point x="35" y="361"/>
      <point x="139" y="316" type="curve" smooth="yes"/>
      <point x="170" y="303"/>
      <point x="200" y="303"/>
      <point x="218" y="333" type="curve" smooth="yes"/>
      <point x="232" y="357"/>
      <point x="219" y="395"/>
    </contour>
  </outline>
</glyph>
<glyph name="kn_ii" format="2">
  <advance width="1061"/>
  <unicode hex="0C88"/>
  <outline>
    <contour>
      <point x="383" y="520" type="curve"/>
      <point x="540" y="504"/>
      <point x="592" y="253"/>
      <point x="552" y="170" type="curve" smooth="yes"/>
      <point x="514" y="91"/>
      <point x="334" y="29"/>
      <point x="273" y="199" type="curve" smooth="yes"/>
      <point x="201" y="400"/>
      <point x="383" y="520"/>
    </contour>
    <contour>
      <point x="379" y="620" type="curve" smooth="yes"/>
      <point x="298" y="620"/>
      <point x="93" y="428"/>
      <point x="174" y="177" type="curve" smooth="yes"/>
      <point x="261" y="-93"/>
      <point x="572" y="-35"/>
      <point x="644" y="129" type="curve" smooth="yes"/>
      <point x="721" y="303"/>
      <point x="601" y="620"/>
    </contour>
    <contour>
      <point x="234" y="535" type="curve" smooth="yes"/>
      <point x="316" y="506"/>
      <point x="537" y="535"/>
      <point x="693" y="616" type="curve"/>
      <point x="716" y="627"/>
      <point x="729" y="660"/>
      <point x="717" y="681" type="curve"/>
      <point x="706" y="705"/>
      <point x="674" y="719"/>
      <point x="655" y="708" type="curve"/>
      <point x="503" y="631"/>
      <point x="316" y="610"/>
      <point x="253" y="634" type="curve" smooth="yes"/>
      <point x="230" y="643"/>
      <point x="194" y="619"/>
      <point x="194" y="590" type="curve" smooth="yes"/>
      <point x="194" y="560"/>
      <point x="203" y="546"/>
    </contour>
    <contour>
      <point x="75" y="327" type="curve" smooth="yes"/>
      <point x="237" y="239"/>
      <point x="560" y="71"/>
      <point x="774" y="223" type="curve" smooth="yes"/>
      <point x="1075" y="437"/>
      <point x="832" y="691"/>
      <point x="735" y="527" type="curve" smooth="yes"/>
      <point x="699" y="466"/>
      <point x="684" y="365"/>
      <point x="702" y="252" type="curve" smooth="yes"/>
      <point x="725" y="110"/>
      <point x="823" y="0"/>
      <point x="998" y="77" type="curve" smooth="yes"/>
      <point x="1016" y="85"/>
      <point x="1027" y="120"/>
      <point x="1017" y="141" type="curve" smooth="yes"/>
      <point x="1007" y="161"/>
      <point x="979" y="176"/>
      <point x="957" y="168" type="curve" smooth="yes"/>
      <point x="845" y="127"/>
      <point x="817" y="182"/>
      <point x="799" y="277" type="curve" smooth="yes"/>
      <point x="787" y="341"/>
      <point x="800" y="446"/>
      <point x="816" y="467" type="curve"/>
      <point x="820" y="473"/>
      <point x="848" y="408"/>
      <point x="728" y="315" type="curve" smooth="yes"/>
      <point x="563" y="188"/>
      <point x="294" y="322"/>
      <point x="120" y="416" type="curve" smooth="yes"/>
      <point x="101" y="426"/>
      <point x="72" y="419"/>
      <point x="56" y="392" type="curve" smooth="yes"/>
      <point x="44" y="371"/>
      <point x="53" y="339"/>
    </contour>
  </outline>
</glyph>
<glyph name="kn_u" format="2">
  <advance width="1423"/>
  <unicode hex="0C89"/>
  <outline>
    <contour>
      <point x="150" y="387" type="curve" smooth="yes"/>
      <point x="317" y="341"/>
      <point x="375" y="611"/>
      <point x="208" y="622" type="curve" smooth="yes"/>
      <point x="27" y="634"/>
      <point x="-68" y="55"/>
      <point x="321" y="3" type="curve" smooth="yes"/>
      <point x="631" y="-39"/>
      <point x="644" y="320"/>
      <point x="741" y="320" type="curve" smooth="yes"/>
      <point x="840" y="320"/>
      <point x="906" y="-55"/>
      <point x="1147" y="-31" type="curve" smooth="yes"/>
      <point x="1275" y="-18"/>
      <point x="1524" y="208"/>
      <point x="1245" y="530" type="curve" smooth="yes"/>
      <point x="1212" y="568"/>
      <point x="1181" y="578"/>
      <point x="1153" y="551" type="curve" smooth="yes"/>
      <point x="1135" y="533"/>
      <point x="1133" y="501"/>
      <point x="1157" y="477" type="curve" smooth="yes"/>
      <point x="1386" y="239"/>
      <point x="1210" y="73"/>
      <point x="1138" y="68" type="curve" smooth="yes"/>
      <point x="952" y="55"/>
      <point x="947" y="420"/>
      <point x="741" y="420" type="curve" smooth="yes"/>
      <point x="532" y="420"/>
      <point x="585" y="62"/>
      <point x="324" y="104" type="curve" smooth="yes"/>
      <point x="97" y="141"/>
      <point x="138" y="472"/>
      <point x="207" y="521" type="curve"/>
      <point x="210" y="523"/>
      <point x="211" y="473"/>
      <point x="172" y="484" type="curve" smooth="yes"/>
      <point x="147" y="491"/>
      <point x="119" y="468"/>
      <point x="115" y="443" type="curve" smooth="yes"/>
      <point x="111" y="420"/>
      <point x="128" y="393"/>
    </contour>
  </outline>
</glyph>
<glyph name="kn_uu" format="2">
  <advance width="1555"/>
  <unicode hex="0C8A"/>
  <outline>
    <contour>
      <point x="189" y="340" type="curve"/>
      <point x="375" y="309"/>
      <point x="417" y="631"/>
      <point x="184" y="611" type="curve" smooth="yes"/>
      <point x="0" y="596"/>
      <point x="-14" y="27"/>
      <point x="274" y="27" type="curve" smooth="yes"/>
      <point x="554" y="27"/>
      <point x="466" y="330"/>
      <point x="647" y="330" type="curve" smooth="yes"/>
      <point x="785" y="330"/>
      <point x="782" y="-15"/>
      <point x="990" y="-11" type="curve" smooth="yes"/>
      <point x="1261" y="-6"/>
      <point x="1093" y="365"/>
      <point x="1251" y="372" type="curve" smooth="yes"/>
      <point x="1362" y="377"/>
      <point x="1434" y="210"/>
      <point x="1395" y="58" type="curve"/>
      <point x="1388" y="34"/>
      <point x="1407" y="5"/>
      <point x="1434" y="-1" type="curve"/>
      <point x="1461" y="-9"/>
      <point x="1487" y="10"/>
      <point x="1494" y="45" type="curve"/>
      <point x="1537" y="211"/>
      <point x="1451" y="479"/>
      <point x="1261" y="472" type="curve" smooth="yes"/>
      <point x="964" y="461"/>
      <point x="1150" y="89"/>
      <point x="988" y="89" type="curve" smooth="yes"/>
      <point x="862" y="89"/>
      <point x="880" y="428"/>
      <point x="647" y="430" type="curve" smooth="yes"/>
      <point x="384" y="432"/>
      <point x="459" y="111"/>
      <point x="273" y="127" type="curve" smooth="yes"/>
      <point x="113" y="141"/>
      <point x="142" y="509"/>
      <point x="196" y="511" type="curve" smooth="yes"/>
      <point x="274" y="514"/>
      <point x="251" y="420"/>
      <point x="189" y="445" type="curve" smooth="yes"/>
      <point x="166" y="454"/>
      <point x="127" y="436"/>
      <point x="127" y="396" type="curve" smooth="yes"/>
      <point x="127" y="369"/>
      <point x="147" y="349"/>
    </contour>
  </outline>
</glyph>
<glyph name="kn_r_ext" format="2">
  <advance width="1311"/>
  <unicode hex="0C8B"/>
  <outline>
    <contour>
      <point x="648" y="487" type="curve" smooth="yes"/>
      <point x="717" y="468"/>
      <point x="890" y="462"/>
      <point x="1091" y="612" type="curve" smooth="yes"/>
      <point x="1117" y="632"/>
      <point x="1127" y="653"/>
      <point x="1111" y="685" type="curve" smooth="yes"/>
      <point x="1099" y="709"/>
      <point x="1063" y="715"/>
      <point x="1045" y="702" type="curve" smooth="yes"/>
      <point x="855" y="558"/>
      <point x="708" y="569"/>
      <point x="661" y="587" type="curve" smooth="yes"/>
      <point x="648" y="592"/>
      <point x="609" y="581"/>
      <point x="605" y="542" type="curve" smooth="yes"/>
      <point x="602" y="515"/>
      <point x="617" y="496"/>
    </contour>
    <contour>
      <point x="256" y="469" type="curve"/>
      <point x="256" y="470" type="line"/>
      <point x="248" y="468"/>
      <point x="229" y="499"/>
      <point x="234" y="509" type="curve" smooth="yes"/>
      <point x="241" y="523"/>
      <point x="256" y="525"/>
      <point x="284" y="519" type="curve"/>
      <point x="306" y="515"/>
      <point x="425" y="492"/>
      <point x="433" y="363" type="curve" smooth="yes"/>
      <point x="439" y="262"/>
      <point x="430" y="97"/>
      <point x="265" y="102" type="curve" smooth="yes"/>
      <point x="181" y="104"/>
      <point x="152" y="125"/>
      <point x="152" y="132" type="curve" smooth="yes"/>
      <point x="152" y="136"/>
      <point x="184" y="170"/>
      <point x="268" y="170" type="curve" smooth="yes"/>
      <point x="407" y="170"/>
      <point x="549" y="55"/>
      <point x="608" y="24" type="curve"/>
      <point x="665" y="-8"/>
      <point x="756" y="-7"/>
      <point x="807" y="27" type="curve" smooth="yes"/>
      <point x="855" y="59"/>
      <point x="923" y="143"/>
      <point x="923" y="258" type="curve" smooth="yes"/>
      <point x="923" y="361"/>
      <point x="861" y="577"/>
      <point x="709" y="577" type="curve" smooth="yes"/>
      <point x="660" y="577"/>
      <point x="640" y="564"/>
      <point x="640" y="527" type="curve" smooth="yes"/>
      <point x="640" y="498"/>
      <point x="663" y="479"/>
      <point x="696" y="479" type="curve" smooth="yes"/>
      <point x="787" y="479"/>
      <point x="817" y="333"/>
      <point x="824" y="273" type="curve" smooth="yes"/>
      <point x="831" y="213"/>
      <point x="797" y="164"/>
      <point x="770" y="130" type="curve" smooth="yes"/>
      <point x="739" y="91"/>
      <point x="682" y="97"/>
      <point x="641" y="123" type="curve" smooth="yes"/>
      <point x="517" y="201"/>
      <point x="410" y="270"/>
      <point x="255" y="270" type="curve" smooth="yes"/>
      <point x="107" y="270"/>
      <point x="50" y="177"/>
      <point x="50" y="141" type="curve" smooth="yes"/>
      <point x="50" y="57"/>
      <point x="128" y="0"/>
      <point x="270" y="2" type="curve" smooth="yes"/>
      <point x="497" y="4"/>
      <point x="538" y="193"/>
      <point x="535" y="353" type="curve" smooth="yes"/>
      <point x="531" y="567"/>
      <point x="337" y="612"/>
      <point x="294" y="619" type="curve" smooth="yes"/>
      <point x="212" y="632"/>
      <point x="123" y="592"/>
      <point x="135" y="489" type="curve" smooth="yes"/>
      <point x="149" y="360"/>
      <point x="320" y="326"/>
      <point x="337" y="416" type="curve" smooth="yes"/>
      <point x="344" y="454"/>
      <point x="327" y="475"/>
      <point x="303" y="482" type="curve" smooth="yes"/>
      <point x="288" y="486"/>
      <point x="261" y="482"/>
    </contour>
    <contour>
      <point x="847" y="90" type="curve" smooth="yes"/>
      <point x="1060" y="-147"/>
      <point x="1447" y="0"/>
      <point x="1157" y="485" type="curve" smooth="yes"/>
      <point x="1125" y="538"/>
      <point x="1100" y="534"/>
      <point x="1072" y="520" type="curve"/>
      <point x="1050" y="507"/>
      <point x="1043" y="461"/>
      <point x="1069" y="439" type="curve"/>
      <point x="1301" y="70"/>
      <point x="1051" y="-13"/>
      <point x="905" y="173" type="curve" smooth="yes"/>
      <point x="896" y="184"/>
      <point x="857" y="197"/>
      <point x="834" y="166" type="curve" smooth="yes"/>
      <point x="805" y="127"/>
      <point x="838" y="100"/>
    </contour>
  </outline>
</glyph>
<glyph name="kn_e" format="2">
  <advance width="876"/>
  <unicode hex="0C8E"/>
  <outline>
    <contour>
      <point x="165" y="112" type="curve" smooth="yes"/>
      <point x="243" y="107"/>
      <point x="273" y="162"/>
      <point x="278" y="193" type="curve" smooth="yes"/>
      <point x="289" y="262"/>
      <point x="245" y="323"/>
      <point x="168" y="321" type="curve" smooth="yes"/>
      <point x="100" y="319"/>
      <point x="42" y="271"/>
      <point x="52" y="171" type="curve" smooth="yes"/>
      <point x="64" y="50"/>
      <point x="128" y="0"/>
      <point x="246" y="0" type="curve" smooth="yes"/>
      <point x="339" y="0"/>
      <point x="417" y="59"/>
      <point x="445" y="90" type="curve"/>
      <point x="473" y="48"/>
      <point x="526" y="-5"/>
      <point x="633" y="0" type="curve" smooth="yes"/>
      <point x="807" y="8"/>
      <point x="827" y="186"/>
      <point x="825" y="297" type="curve" smooth="yes"/>
      <point x="822" y="497"/>
      <point x="604" y="620"/>
      <point x="467" y="620" type="curve" smooth="yes"/>
      <point x="439" y="620"/>
      <point x="417" y="598"/>
      <point x="417" y="570" type="curve" smooth="yes"/>
      <point x="417" y="543"/>
      <point x="440" y="520"/>
      <point x="467" y="520" type="curve" smooth="yes"/>
      <point x="553" y="520"/>
      <point x="720" y="432"/>
      <point x="724" y="301" type="curve" smooth="yes"/>
      <point x="727" y="187"/>
      <point x="708" y="104"/>
      <point x="631" y="100" type="curve" smooth="yes"/>
      <point x="529" y="95"/>
      <point x="520" y="172"/>
      <point x="495" y="207" type="curve"/>
      <point x="482" y="234"/>
      <point x="427" y="234"/>
      <point x="414" y="208" type="curve" smooth="yes"/>
      <point x="400" y="179"/>
      <point x="330" y="104"/>
      <point x="246" y="100" type="curve" smooth="yes"/>
      <point x="231" y="99"/>
      <point x="152" y="93"/>
      <point x="151" y="176" type="curve" smooth="yes"/>
      <point x="151" y="213"/>
      <point x="152" y="218"/>
      <point x="166" y="220" type="curve"/>
      <point x="177" y="222"/>
      <point x="180" y="220"/>
      <point x="180" y="217" type="curve" smooth="yes"/>
      <point x="180" y="207"/>
      <point x="177" y="215"/>
      <point x="154" y="207" type="curve" smooth="yes"/>
      <point x="136" y="201"/>
      <point x="124" y="175"/>
      <point x="124" y="161" type="curve" smooth="yes"/>
      <point x="124" y="132"/>
      <point x="151" y="113"/>
    </contour>
  </outline>
</glyph>
<glyph name="kn_ee" format="2">
  <advance width="904"/>
  <unicode hex="0C8F"/>
  <outline>
    <contour>
      <point x="173" y="98" type="curve" smooth="yes"/>
      <point x="250" y="98"/>
      <point x="270" y="159"/>
      <point x="271" y="192" type="curve" smooth="yes"/>
      <point x="273" y="250"/>
      <point x="236" y="304"/>
      <point x="164" y="303" type="curve" smooth="yes"/>
      <point x="84" y="302"/>
      <point x="45" y="236"/>
      <point x="51" y="164" type="curve" smooth="yes"/>
      <point x="60" y="51"/>
      <point x="122" y="1"/>
      <point x="233" y="1" type="curve" smooth="yes"/>
      <point x="315" y="1"/>
      <point x="387" y="50"/>
      <point x="420" y="84" type="curve"/>
      <point x="445" y="45"/>
      <point x="497" y="2"/>
      <point x="596" y="1" type="curve" smooth="yes"/>
      <point x="716" y="0"/>
      <point x="824" y="147"/>
      <point x="782" y="297" type="curve" smooth="yes"/>
      <point x="725" y="503"/>
      <point x="465" y="457"/>
      <point x="472" y="505" type="curve" smooth="yes"/>
      <point x="481" y="566"/>
      <point x="682" y="569"/>
      <point x="798" y="548" type="curve" smooth="yes"/>
      <point x="821" y="544"/>
      <point x="847" y="563"/>
      <point x="852" y="587" type="curve" smooth="yes"/>
      <point x="859" y="619"/>
      <point x="840" y="641"/>
      <point x="807" y="648" type="curve" smooth="yes"/>
      <point x="670" y="677"/>
      <point x="368" y="673"/>
      <point x="372" y="501" type="curve" smooth="yes"/>
      <point x="376" y="324"/>
      <point x="619" y="427"/>
      <point x="681" y="285" type="curve" smooth="yes"/>
      <point x="716" y="206"/>
      <point x="660" y="104"/>
      <point x="595" y="101" type="curve" smooth="yes"/>
      <point x="508" y="97"/>
      <point x="483" y="167"/>
      <point x="467" y="199" type="curve" smooth="yes"/>
      <point x="454" y="225"/>
      <point x="402" y="228"/>
      <point x="389" y="202" type="curve" smooth="yes"/>
      <point x="376" y="176"/>
      <point x="314" y="108"/>
      <point x="244" y="102" type="curve" smooth="yes"/>
      <point x="169" y="95"/>
      <point x="156" y="129"/>
      <point x="153" y="153" type="curve" smooth="yes"/>
      <point x="149" y="187"/>
      <point x="148" y="203"/>
      <point x="165" y="203" type="curve" smooth="yes"/>
      <point x="171" y="203"/>
      <point x="171" y="205"/>
      <point x="171" y="201" type="curve" smooth="yes"/>
      <point x="171" y="196"/>
      <point x="170" y="200"/>
      <point x="156" y="197" type="curve" smooth="yes"/>
      <point x="128" y="191"/>
      <point x="119" y="161"/>
      <point x="120" y="145" type="curve" smooth="yes"/>
      <point x="122" y="121"/>
      <point x="146" y="98"/>
    </contour>
  </outline>
</glyph>
<glyph name="kn_ai" format="2">
  <advance width="890"/>
  <unicode hex="0C90"/>
  <outline>
    <contour>
      <point x="240" y="219" type="curve" smooth="yes"/>
      <point x="247" y="283"/>
      <point x="207" y="327"/>
      <point x="146" y="327" type="curve" smooth="yes"/>
      <point x="84" y="327"/>
      <point x="43" y="268"/>
      <point x="52" y="191" type="curve" smooth="yes"/>
      <point x="62" y="106"/>
      <point x="99" y="0"/>
      <point x="273" y="0" type="curve" smooth="yes"/>
      <point x="415" y="0"/>
      <point x="475" y="41"/>
      <point x="503" y="75" type="curve"/>
      <point x="532" y="52"/>
      <point x="582" y="25"/>
      <point x="666" y="30" type="curve" smooth="yes"/>
      <point x="775" y="36"/>
      <point x="840" y="143"/>
      <point x="840" y="252" type="curve" smooth="yes"/>
      <point x="840" y="317"/>
      <point x="837" y="511"/>
      <point x="617" y="489" type="curve" smooth="yes"/>
      <point x="363" y="464"/>
      <point x="407" y="283"/>
      <point x="529" y="283" type="curve" smooth="yes"/>
      <point x="583" y="283"/>
      <point x="625" y="307"/>
      <point x="648" y="353" type="curve" smooth="yes"/>
      <point x="694" y="445"/>
      <point x="572" y="577"/>
      <point x="431" y="624" type="curve" smooth="yes"/>
      <point x="309" y="665"/>
      <point x="107" y="640"/>
      <point x="66" y="553" type="curve" smooth="yes"/>
      <point x="23" y="462"/>
      <point x="81" y="361"/>
      <point x="158" y="361" type="curve" smooth="yes"/>
      <point x="186" y="361"/>
      <point x="208" y="383"/>
      <point x="208" y="411" type="curve" smooth="yes"/>
      <point x="208" y="436"/>
      <point x="187" y="460"/>
      <point x="163" y="460" type="curve" smooth="yes"/>
      <point x="159" y="460"/>
      <point x="143" y="481"/>
      <point x="156" y="507" type="curve"/>
      <point x="172" y="538"/>
      <point x="310" y="561"/>
      <point x="407" y="528" type="curve" smooth="yes"/>
      <point x="499" y="497"/>
      <point x="546" y="422"/>
      <point x="547" y="421" type="curve"/>
      <point x="556" y="405"/>
      <point x="556" y="400"/>
      <point x="557" y="394" type="curve"/>
      <point x="549" y="384"/>
      <point x="543" y="380"/>
      <point x="530" y="360" type="curve"/>
      <point x="724" y="445"/>
      <point x="740" y="344"/>
      <point x="740" y="252" type="curve" smooth="yes"/>
      <point x="740" y="236"/>
      <point x="725" y="134"/>
      <point x="662" y="130" type="curve" smooth="yes"/>
      <point x="579" y="125"/>
      <point x="542" y="170"/>
      <point x="526" y="186" type="curve" smooth="yes"/>
      <point x="509" y="203"/>
      <point x="474" y="200"/>
      <point x="460" y="182" type="curve" smooth="yes"/>
      <point x="450" y="169"/>
      <point x="428" y="101"/>
      <point x="273" y="100" type="curve" smooth="yes"/>
      <point x="156" y="99"/>
      <point x="153" y="156"/>
      <point x="151" y="191" type="curve"/>
      <point x="150" y="200"/>
      <point x="153" y="208"/>
      <point x="146" y="212" type="curve"/>
      <point x="141" y="203"/>
      <point x="149" y="204"/>
      <point x="151" y="201" type="curve" smooth="yes"/>
      <point x="158" y="190"/>
      <point x="178" y="178"/>
      <point x="198" y="181" type="curve"/>
      <point x="215" y="183"/>
      <point x="238" y="202"/>
    </contour>
  </outline>
</glyph>
<glyph name="kn_o" format="2">
  <advance width="816"/>
  <unicode hex="0C92"/>
  <outline>
    <contour>
      <point x="131" y="519" type="curve"/>
      <point x="162" y="529"/>
      <point x="136" y="582"/>
      <point x="150" y="523" type="curve"/>
      <point x="156" y="515"/>
      <point x="244" y="529"/>
      <point x="244" y="440" type="curve" smooth="yes"/>
      <point x="244" y="346"/>
      <point x="115" y="263"/>
      <point x="110" y="157" type="curve" smooth="yes"/>
      <point x="106" y="72"/>
      <point x="153" y="0"/>
      <point x="268" y="0" type="curve" smooth="yes"/>
      <point x="353" y="0"/>
      <point x="406" y="66"/>
      <point x="425" y="92" type="curve"/>
      <point x="453" y="48"/>
      <point x="514" y="-14"/>
      <point x="599" y="-14" type="curve" smooth="yes"/>
      <point x="752" y="-14"/>
      <point x="793" y="157"/>
      <point x="749" y="245" type="curve" smooth="yes"/>
      <point x="737" y="269"/>
      <point x="704" y="281"/>
      <point x="682" y="268" type="curve" smooth="yes"/>
      <point x="657" y="253"/>
      <point x="645" y="225"/>
      <point x="659" y="201" type="curve"/>
      <point x="669" y="180"/>
      <point x="671" y="83"/>
      <point x="598" y="86" type="curve" smooth="yes"/>
      <point x="533" y="89"/>
      <point x="490" y="170"/>
      <point x="474" y="211" type="curve" smooth="yes"/>
      <point x="457" y="254"/>
      <point x="402" y="255"/>
      <point x="381" y="214" type="curve" smooth="yes"/>
      <point x="360" y="172"/>
      <point x="322" y="101"/>
      <point x="270" y="100" type="curve" smooth="yes"/>
      <point x="224" y="99"/>
      <point x="200" y="121"/>
      <point x="214" y="171" type="curve" smooth="yes"/>
      <point x="229" y="224"/>
      <point x="344" y="310"/>
      <point x="344" y="440" type="curve" smooth="yes"/>
      <point x="344" y="660"/>
      <point x="50" y="681"/>
      <point x="50" y="523" type="curve" smooth="yes"/>
      <point x="50" y="414"/>
      <point x="232" y="414"/>
      <point x="231" y="519" type="curve" smooth="yes"/>
      <point x="231" y="551"/>
      <point x="206" y="569"/>
      <point x="181" y="569" type="curve" smooth="yes"/>
      <point x="166" y="569"/>
      <point x="89" y="524"/>
    </contour>
  </outline>
</glyph>
<glyph name="kn_au" format="2">
  <advance width="826"/>
  <unicode hex="0C94"/>
  <outline>
    <contour>
      <point x="74" y="591" type="curve" smooth="yes"/>
      <point x="178" y="539"/>
      <point x="342" y="576"/>
      <point x="342" y="683" type="curve" smooth="yes"/>
      <point x="342" y="717"/>
      <point x="333" y="739"/>
      <point x="305" y="751" type="curve" smooth="yes"/>
      <point x="285" y="760"/>
      <point x="256" y="764"/>
      <point x="215" y="764" type="curve"/>
      <point x="216" y="726" type="line"/>
      <point x="246" y="728"/>
      <point x="274" y="728"/>
      <point x="299" y="728" type="curve" smooth="yes"/>
      <point x="341" y="727"/>
      <point x="375" y="724"/>
      <point x="392" y="721" type="curve"/>
      <point x="392" y="721"/>
      <point x="432" y="710"/>
      <point x="430" y="677" type="curve" smooth="yes"/>
      <point x="429" y="657"/>
      <point x="427" y="649"/>
      <point x="393" y="625" type="curve" smooth="yes"/>
      <point x="372" y="610"/>
      <point x="370" y="585"/>
      <point x="382" y="567" type="curve" smooth="yes"/>
      <point x="396" y="547"/>
      <point x="420" y="544"/>
      <point x="440" y="556" type="curve" smooth="yes"/>
      <point x="479" y="579"/>
      <point x="511" y="615"/>
      <point x="513" y="672" type="curve" smooth="yes"/>
      <point x="516" y="751"/>
      <point x="460" y="792"/>
      <point x="409" y="803" type="curve" smooth="yes"/>
      <point x="361" y="814"/>
      <point x="251" y="813"/>
      <point x="169" y="803" type="curve" smooth="yes"/>
      <point x="117" y="797"/>
      <point x="121" y="720"/>
      <point x="174" y="720" type="curve" smooth="yes"/>
      <point x="253" y="720"/>
      <point x="260" y="695"/>
      <point x="259" y="683" type="curve" smooth="yes"/>
      <point x="257" y="656"/>
      <point x="169" y="637"/>
      <point x="111" y="666" type="curve" smooth="yes"/>
      <point x="90" y="676"/>
      <point x="66" y="668"/>
      <point x="55" y="647" type="curve" smooth="yes"/>
      <point x="45" y="627"/>
      <point x="54" y="601"/>
    </contour>
    <contour>
      <point x="141" y="519" type="curve"/>
      <point x="172" y="529"/>
      <point x="146" y="582"/>
      <point x="160" y="523" type="curve"/>
      <point x="166" y="515"/>
      <point x="254" y="529"/>
      <point x="254" y="440" type="curve" smooth="yes"/>
      <point x="254" y="346"/>
      <point x="125" y="263"/>
      <point x="120" y="157" type="curve" smooth="yes"/>
      <point x="116" y="72"/>
      <point x="163" y="0"/>
      <point x="278" y="0" type="curve" smooth="yes"/>
      <point x="363" y="0"/>
      <point x="416" y="66"/>
      <point x="435" y="92" type="curve"/>
      <point x="463" y="48"/>
      <point x="524" y="-14"/>
      <point x="609" y="-14" type="curve" smooth="yes"/>
      <point x="762" y="-14"/>
      <point x="803" y="157"/>
      <point x="759" y="245" type="curve" smooth="yes"/>
      <point x="747" y="269"/>
      <point x="714" y="281"/>
      <point x="692" y="268" type="curve" smooth="yes"/>
      <point x="667" y="253"/>
      <point x="655" y="225"/>
      <point x="669" y="201" type="curve"/>
      <point x="679" y="180"/>
      <point x="681" y="83"/>
      <point x="608" y="86" type="curve" smooth="yes"/>
      <point x="543" y="89"/>
      <point x="500" y="170"/>
      <point x="484" y="211" type="curve" smooth="yes"/>
      <point x="467" y="254"/>
      <point x="412" y="255"/>
      <point x="391" y="214" type="curve" smooth="yes"/>
      <point x="370" y="172"/>
      <point x="332" y="101"/>
      <point x="280" y="100" type="curve" smooth="yes"/>
      <point x="234" y="99"/>
      <point x="210" y="121"/>
      <point x="224" y="171" type="curve" smooth="yes"/>
      <point x="239" y="224"/>
      <point x="354" y="310"/>
      <point x="354" y="440" type="curve" smooth="yes"/>
      <point x="354" y="660"/>
      <point x="60" y="681"/>
      <point x="60" y="523" type="curve" smooth="yes"/>
      <point x="60" y="414"/>
      <point x="242" y="414"/>
      <point x="241" y="519" type="curve" smooth="yes"/>
      <point x="241" y="551"/>
      <point x="216" y="569"/>
      <point x="191" y="569" type="curve" smooth="yes"/>
      <point x="176" y="569"/>
      <point x="99" y="524"/>
    </contour>
  </outline>
</glyph>
<glyph name="kn_g" format="2">
  <advance width="777"/>
  <unicode hex="0C97"/>
  <outline>
    <contour>
      <point x="151" y="46" type="curve" smooth="yes"/>
      <point x="161" y="230"/>
      <point x="224" y="511"/>
      <point x="356" y="511" type="curve" smooth="yes"/>
      <point x="492" y="511"/>
      <point x="591" y="271"/>
      <point x="594" y="48" type="curve" smooth="yes"/>
      <point x="594" y="22"/>
      <point x="617" y="-2"/>
      <point x="645" y="-1" type="curve" smooth="yes"/>
      <point x="669" y="0"/>
      <point x="694" y="22"/>
      <point x="694" y="50" type="curve" smooth="yes"/>
      <point x="695" y="369"/>
      <point x="532" y="611"/>
      <point x="356" y="611" type="curve" smooth="yes"/>
      <point x="178" y="611"/>
      <point x="71" y="371"/>
      <point x="51" y="52" type="curve" smooth="yes"/>
      <point x="49" y="24"/>
      <point x="72" y="-1"/>
      <point x="98" y="-1" type="curve" smooth="yes"/>
      <point x="127" y="-1"/>
      <point x="150" y="19"/>
    </contour>
    <contour>
      <point x="147" y="555" type="curve" smooth="yes"/>
      <point x="349" y="509"/>
      <point x="517" y="525"/>
      <point x="694" y="593" type="curve" smooth="yes"/>
      <point x="720" y="603"/>
      <point x="733" y="632"/>
      <point x="723" y="658" type="curve" smooth="yes"/>
      <point x="713" y="684"/>
      <point x="684" y="697"/>
      <point x="658" y="687" type="curve" smooth="yes"/>
      <point x="491" y="623"/>
      <point x="361" y="609"/>
      <point x="169" y="653" type="curve" smooth="yes"/>
      <point x="142" y="659"/>
      <point x="115" y="641"/>
      <point x="109" y="615" type="curve" smooth="yes"/>
      <point x="103" y="589"/>
      <point x="121" y="561"/>
    </contour>
  </outline>
</glyph>
<glyph name="kn_c" format="2">
  <advance width="1013"/>
  <unicode hex="0C9A"/>
  <outline>
    <contour>
      <point x="155" y="559" type="curve" smooth="yes"/>
      <point x="247" y="559"/>
      <point x="264" y="492"/>
      <point x="245" y="461" type="curve" smooth="yes"/>
      <point x="209" y="401"/>
      <point x="11" y="236"/>
      <point x="58" y="70" type="curve" smooth="yes"/>
      <point x="102" y="-87"/>
      <point x="281" y="-7"/>
      <point x="373" y="70" type="curve"/>
      <point x="414" y="31"/>
      <point x="467" y="-11"/>
      <point x="561" y="3" type="curve" smooth="yes"/>
      <point x="778" y="36"/>
      <point x="819" y="393"/>
      <point x="737" y="612" type="curve"/>
      <point x="701" y="609"/>
      <point x="658" y="605"/>
      <point x="635" y="605" type="curve"/>
      <point x="708" y="414"/>
      <point x="684" y="126"/>
      <point x="549" y="103" type="curve" smooth="yes"/>
      <point x="470" y="89"/>
      <point x="459" y="130"/>
      <point x="409" y="175" type="curve" smooth="yes"/>
      <point x="390" y="192"/>
      <point x="358" y="191"/>
      <point x="341" y="174" type="curve" smooth="yes"/>
      <point x="293" y="128"/>
      <point x="173" y="46"/>
      <point x="154" y="98" type="curve" smooth="yes"/>
      <point x="122" y="186"/>
      <point x="288" y="345"/>
      <point x="328" y="405" type="curve" smooth="yes"/>
      <point x="395" y="506"/>
      <point x="326" y="658"/>
      <point x="155" y="658" type="curve" smooth="yes"/>
      <point x="126" y="658"/>
      <point x="105" y="638"/>
      <point x="105" y="609" type="curve" smooth="yes"/>
      <point x="105" y="581"/>
      <point x="127" y="559"/>
    </contour>
    <contour>
      <point x="555" y="313" type="curve" smooth="yes"/>
      <point x="728" y="313"/>
      <point x="873" y="329"/>
      <point x="921" y="338" type="curve" smooth="yes"/>
      <point x="951" y="344"/>
      <point x="966" y="366"/>
      <point x="962" y="395" type="curve" smooth="yes"/>
      <point x="958" y="423"/>
      <point x="932" y="441"/>
      <point x="905" y="436" type="curve" smooth="yes"/>
      <point x="859" y="428"/>
      <point x="726" y="412"/>
      <point x="555" y="412" type="curve" smooth="yes"/>
      <point x="530" y="412"/>
      <point x="505" y="394"/>
      <point x="505" y="363" type="curve" smooth="yes"/>
      <point x="505" y="336"/>
      <point x="525" y="313"/>
    </contour>
    <contour>
      <point x="555" y="556" type="curve" smooth="yes"/>
      <point x="728" y="556"/>
      <point x="853" y="585"/>
      <point x="917" y="606" type="curve" smooth="yes"/>
      <point x="943" y="615"/>
      <point x="958" y="639"/>
      <point x="951" y="668" type="curve" smooth="yes"/>
      <point x="945" y="695"/>
      <point x="916" y="709"/>
      <point x="889" y="702" type="curve" smooth="yes"/>
      <point x="848" y="691"/>
      <point x="743" y="658"/>
      <point x="555" y="656" type="curve" smooth="yes"/>
      <point x="523" y="656"/>
      <point x="499" y="627"/>
      <point x="506" y="596" type="curve"/>
      <point x="513" y="569"/>
      <point x="530" y="556"/>
    </contour>
  </outline>
</glyph>
<glyph name="kn_ny" format="2">
  <advance width="1062"/>
  <unicode hex="0C9E"/>
  <outline>
    <contour>
      <point x="677" y="448" type="curve" smooth="yes"/>
      <point x="721" y="569"/>
      <point x="879" y="549"/>
      <point x="913" y="430" type="curve" smooth="yes"/>
      <point x="921" y="404"/>
      <point x="948" y="388"/>
      <point x="975" y="396" type="curve" smooth="yes"/>
      <point x="1001" y="404"/>
      <point x="1017" y="431"/>
      <point x="1009" y="458" type="curve" smooth="yes"/>
      <point x="947" y="673"/>
      <point x="659" y="689"/>
      <point x="583" y="482" type="curve" smooth="yes"/>
      <point x="574" y="456"/>
      <point x="587" y="428"/>
      <point x="613" y="418" type="curve"/>
      <point x="639" y="409"/>
      <point x="667" y="422"/>
    </contour>
    <contour>
      <point x="196" y="402" type="curve" smooth="yes"/>
      <point x="130" y="421"/>
      <point x="152" y="475"/>
      <point x="171" y="491" type="curve" smooth="yes"/>
      <point x="209" y="524"/>
      <point x="296" y="448"/>
      <point x="305" y="397" type="curve" smooth="yes"/>
      <point x="315" y="342"/>
      <point x="398" y="346"/>
      <point x="402" y="401" type="curve" smooth="yes"/>
      <point x="408" y="483"/>
      <point x="449" y="520"/>
      <point x="499" y="520" type="curve" smooth="yes"/>
      <point x="570" y="520"/>
      <point x="590" y="375"/>
      <point x="579" y="319" type="curve" smooth="yes"/>
      <point x="565" y="246"/>
      <point x="544" y="130"/>
      <point x="452" y="100" type="curve" smooth="yes"/>
      <point x="387" y="79"/>
      <point x="364" y="115"/>
      <point x="370" y="126" type="curve"/>
      <point x="380" y="143"/>
      <point x="429" y="133"/>
      <point x="488" y="95" type="curve" smooth="yes"/>
      <point x="575" y="39"/>
      <point x="653" y="-105"/>
      <point x="864" y="-107" type="curve" smooth="yes"/>
      <point x="886" y="-107"/>
      <point x="909" y="-85"/>
      <point x="909" y="-61" type="curve" smooth="yes"/>
      <point x="909" y="-29"/>
      <point x="888" y="-7"/>
      <point x="861" y="-7" type="curve" smooth="yes"/>
      <point x="688" y="-7"/>
      <point x="652" y="121"/>
      <point x="524" y="191" type="curve" smooth="yes"/>
      <point x="415" y="250"/>
      <point x="318" y="250"/>
      <point x="280" y="170" type="curve" smooth="yes"/>
      <point x="230" y="64"/>
      <point x="354" y="-59"/>
      <point x="510" y="16" type="curve" smooth="yes"/>
      <point x="639" y="78"/>
      <point x="667" y="225"/>
      <point x="679" y="313" type="curve" smooth="yes"/>
      <point x="692" y="412"/>
      <point x="662" y="618"/>
      <point x="500" y="620" type="curve" smooth="yes"/>
      <point x="414" y="621"/>
      <point x="355" y="568"/>
      <point x="339" y="530" type="curve"/>
      <point x="313" y="565"/>
      <point x="207" y="631"/>
      <point x="123" y="579" type="curve" smooth="yes"/>
      <point x="15" y="512"/>
      <point x="35" y="361"/>
      <point x="139" y="316" type="curve" smooth="yes"/>
      <point x="170" y="303"/>
      <point x="200" y="303"/>
      <point x="218" y="333" type="curve" smooth="yes"/>
      <point x="232" y="357"/>
      <point x="219" y="395"/>
    </contour>
  </outline>
</glyph>
<glyph name="kn_ddh" format="2">
  <advance width="897"/>
  <unicode hex="0CA2"/>
  <outline>
    <contour>
      <point x="341" y="616" type="curve" smooth="yes"/>
      <point x="137" y="558"/>
      <point x="50" y="384"/>
      <point x="50" y="218" type="curve" smooth="yes"/>
      <point x="50" y="52"/>
      <point x="167" y="-2"/>
      <point x="237" y="-6" type="curve" smooth="yes"/>
      <point x="338" y="-11"/>
      <point x="396" y="22"/>
      <point x="429" y="61" type="curve"/>
      <point x="461" y="28"/>
      <point x="519" y="-10"/>
      <point x="612" y="-6" type="curve" smooth="yes"/>
      <point x="709" y="-2"/>
      <point x="800" y="108"/>
      <point x="800" y="244" type="curve" smooth="yes"/>
      <point x="800" y="450"/>
      <point x="448" y="531"/>
      <point x="448" y="348" type="curve" smooth="yes"/>
      <point x="448" y="180"/>
      <point x="730" y="291"/>
      <point x="667" y="446" type="curve" smooth="yes"/>
      <point x="619" y="568"/>
      <point x="466" y="637"/>
      <point x="301" y="637" type="curve" smooth="yes"/>
      <point x="172" y="637"/>
      <point x="91" y="650"/>
      <point x="91" y="578" type="curve" smooth="yes"/>
      <point x="91" y="516"/>
      <point x="155" y="516"/>
      <point x="277" y="516" type="curve" smooth="yes"/>
      <point x="358" y="516"/>
      <point x="683" y="508"/>
      <point x="826" y="615" type="curve" smooth="yes"/>
      <point x="848" y="631"/>
      <point x="853" y="663"/>
      <point x="836" y="685" type="curve"/>
      <point x="820" y="707"/>
      <point x="789" y="711"/>
      <point x="766" y="695" type="curve" smooth="yes"/>
      <point x="644" y="609"/>
      <point x="313" y="616"/>
      <point x="277" y="616" type="curve" smooth="yes"/>
      <point x="263" y="616"/>
      <point x="182" y="615"/>
      <point x="163" y="620" type="curve"/>
      <point x="162" y="536" type="line"/>
      <point x="178" y="540"/>
      <point x="251" y="537"/>
      <point x="301" y="537" type="curve" smooth="yes"/>
      <point x="436" y="537"/>
      <point x="546" y="482"/>
      <point x="575" y="408" type="curve" smooth="yes"/>
      <point x="582" y="390"/>
      <point x="544" y="363"/>
      <point x="530" y="363" type="curve"/>
      <point x="546" y="346" type="line"/>
      <point x="568" y="364"/>
      <point x="700" y="326"/>
      <point x="700" y="244" type="curve" smooth="yes"/>
      <point x="700" y="148"/>
      <point x="638" y="95"/>
      <point x="608" y="94" type="curve" smooth="yes"/>
      <point x="513" y="90"/>
      <point x="487" y="148"/>
      <point x="463" y="176" type="curve" smooth="yes"/>
      <point x="443" y="200"/>
      <point x="406" y="200"/>
      <point x="386" y="175" type="curve" smooth="yes"/>
      <point x="360" y="142"/>
      <point x="356" y="88"/>
      <point x="243" y="94" type="curve" smooth="yes"/>
      <point x="221" y="95"/>
      <point x="150" y="110"/>
      <point x="150" y="218" type="curve" smooth="yes"/>
      <point x="150" y="342"/>
      <point x="210" y="474"/>
      <point x="369" y="520" type="curve" smooth="yes"/>
      <point x="395" y="527"/>
      <point x="411" y="555"/>
      <point x="403" y="582" type="curve" smooth="yes"/>
      <point x="395" y="608"/>
      <point x="368" y="624"/>
    </contour>
    <contour>
      <point x="377" y="-29" type="curve"/>
      <point x="373" y="-65"/>
      <point x="366" y="-113"/>
      <point x="392" y="-161" type="curve" smooth="yes"/>
      <point x="405" y="-185"/>
      <point x="436" y="-194"/>
      <point x="460" y="-181" type="curve" smooth="yes"/>
      <point x="484" y="-168"/>
      <point x="493" y="-137"/>
      <point x="480" y="-113" type="curve" smooth="yes"/>
      <point x="470" y="-95"/>
      <point x="473" y="-71"/>
      <point x="477" y="-41" type="curve" smooth="yes"/>
      <point x="480" y="-13"/>
      <point x="460" y="12"/>
      <point x="433" y="15" type="curve"/>
      <point x="405" y="19"/>
      <point x="381" y="-2"/>
    </contour>
  </outline>
</glyph>
<glyph name="kn_nn" format="2">
  <advance width="783"/>
  <unicode hex="0CA3"/>
  <outline>
    <contour>
      <point x="240" y="86" type="curve" smooth="yes"/>
      <point x="167" y="146"/>
      <point x="206" y="226"/>
      <point x="272" y="260" type="curve" smooth="yes"/>
      <point x="310" y="280"/>
      <point x="307" y="333"/>
      <point x="269" y="350" type="curve" smooth="yes"/>
      <point x="249" y="359"/>
      <point x="130" y="411"/>
      <point x="154" y="477" type="curve" smooth="yes"/>
      <point x="188" y="572"/>
      <point x="292" y="506"/>
      <point x="349" y="477" type="curve" smooth="yes"/>
      <point x="364" y="469"/>
      <point x="382" y="469"/>
      <point x="397" y="478" type="curve" smooth="yes"/>
      <point x="458" y="513"/>
      <point x="480" y="571"/>
      <point x="564" y="533" type="curve" smooth="yes"/>
      <point x="650" y="495"/>
      <point x="669" y="158"/>
      <point x="539" y="92" type="curve" smooth="yes"/>
      <point x="515" y="80"/>
      <point x="504" y="49"/>
      <point x="517" y="24" type="curve" smooth="yes"/>
      <point x="529" y="0"/>
      <point x="560" y="-10"/>
      <point x="585" y="2" type="curve" smooth="yes"/>
      <point x="784" y="103"/>
      <point x="773" y="549"/>
      <point x="604" y="625" type="curve" smooth="yes"/>
      <point x="481" y="680"/>
      <point x="407" y="611"/>
      <point x="368" y="580" type="curve"/>
      <point x="155" y="692"/>
      <point x="82" y="573"/>
      <point x="60" y="511" type="curve" smooth="yes"/>
      <point x="24" y="411"/>
      <point x="95" y="336"/>
      <point x="158" y="296" type="curve"/>
      <point x="93" y="227"/>
      <point x="60" y="103"/>
      <point x="176" y="8" type="curve" smooth="yes"/>
      <point x="198" y="-10"/>
      <point x="230" y="-6"/>
      <point x="247" y="15" type="curve" smooth="yes"/>
      <point x="265" y="37"/>
      <point x="261" y="68"/>
    </contour>
  </outline>
</glyph>
<glyph name="kn_t" format="2">
  <advance width="865"/>
  <unicode hex="0CA4"/>
  <outline>
    <contour>
      <point x="53" y="241" type="curve"/>
      <point x="107" y="47"/>
      <point x="317" y="-6"/>
      <point x="454" y="-6" type="curve" smooth="yes"/>
      <point x="748" y="-6"/>
      <point x="776" y="210"/>
      <point x="732" y="326" type="curve" smooth="yes"/>
      <point x="692" y="431"/>
      <point x="545" y="478"/>
      <point x="425" y="473" type="curve" smooth="yes"/>
      <point x="238" y="464"/>
      <point x="231" y="370"/>
      <point x="253" y="320" type="curve" smooth="yes"/>
      <point x="288" y="241"/>
      <point x="413" y="225"/>
      <point x="518" y="289" type="curve" smooth="yes"/>
      <point x="700" y="401"/>
      <point x="557" y="643"/>
      <point x="338" y="643" type="curve" smooth="yes"/>
      <point x="105" y="643"/>
      <point x="155" y="485"/>
      <point x="386" y="524" type="curve" smooth="yes"/>
      <point x="499" y="543"/>
      <point x="732" y="584"/>
      <point x="786" y="611" type="curve" smooth="yes"/>
      <point x="811" y="624"/>
      <point x="821" y="654"/>
      <point x="809" y="678" type="curve" smooth="yes"/>
      <point x="796" y="703"/>
      <point x="766" y="713"/>
      <point x="742" y="701" type="curve"/>
      <point x="713" y="688"/>
      <point x="574" y="657"/>
      <point x="370" y="622" type="curve" smooth="yes"/>
      <point x="320" y="614"/>
      <point x="274" y="619"/>
      <point x="264" y="623" type="curve"/>
      <point x="261" y="539" type="line"/>
      <point x="262" y="539"/>
      <point x="277" y="543"/>
      <point x="338" y="543" type="curve" smooth="yes"/>
      <point x="443" y="543"/>
      <point x="561" y="433"/>
      <point x="466" y="375" type="curve" smooth="yes"/>
      <point x="414" y="343"/>
      <point x="364" y="347"/>
      <point x="348" y="357" type="curve"/>
      <point x="352" y="360"/>
      <point x="375" y="371"/>
      <point x="429" y="373" type="curve" smooth="yes"/>
      <point x="528" y="377"/>
      <point x="620" y="337"/>
      <point x="638" y="290" type="curve" smooth="yes"/>
      <point x="647" y="266"/>
      <point x="696" y="94"/>
      <point x="454" y="94" type="curve" smooth="yes"/>
      <point x="346" y="94"/>
      <point x="187" y="132"/>
      <point x="149" y="267" type="curve" smooth="yes"/>
      <point x="142" y="294"/>
      <point x="114" y="310"/>
      <point x="88" y="302" type="curve"/>
      <point x="61" y="295"/>
      <point x="45" y="267"/>
    </contour>
  </outline>
</glyph>
<glyph name="kn_th" format="2">
  <advance width="922"/>
  <unicode hex="0CA5"/>
  <outline>
    <contour>
      <point x="397" y="285" type="curve"/>
      <point x="400" y="341" type="line"/>
      <point x="376" y="328"/>
      <point x="367" y="298"/>
      <point x="380" y="273" type="curve" smooth="yes"/>
      <point x="393" y="249"/>
      <point x="423" y="240"/>
      <point x="448" y="253" type="curve" smooth="yes"/>
      <point x="493" y="277"/>
      <point x="495" y="341"/>
      <point x="451" y="369" type="curve" smooth="yes"/>
      <point x="427" y="384"/>
      <point x="397" y="377"/>
      <point x="382" y="354" type="curve" smooth="yes"/>
      <point x="367" y="330"/>
      <point x="374" y="300"/>
    </contour>
    <contour>
      <point x="338" y="627" type="curve" smooth="yes"/>
      <point x="136" y="564"/>
      <point x="59" y="379"/>
      <point x="51" y="251" type="curve" smooth="yes"/>
      <point x="41" y="73"/>
      <point x="151" y="1"/>
      <point x="244" y="-5" type="curve" smooth="yes"/>
      <point x="348" y="-10"/>
      <point x="407" y="26"/>
      <point x="441" y="68" type="curve"/>
      <point x="473" y="33"/>
      <point x="533" y="-9"/>
      <point x="629" y="-5" type="curve" smooth="yes"/>
      <point x="724" y="-1"/>
      <point x="820" y="100"/>
      <point x="821" y="238" type="curve" smooth="yes"/>
      <point x="824" y="532"/>
      <point x="560" y="646"/>
      <point x="309" y="646" type="curve" smooth="yes"/>
      <point x="177" y="646"/>
      <point x="96" y="659"/>
      <point x="96" y="587" type="curve" smooth="yes"/>
      <point x="96" y="525"/>
      <point x="159" y="525"/>
      <point x="285" y="525" type="curve" smooth="yes"/>
      <point x="360" y="525"/>
      <point x="702" y="508"/>
      <point x="851" y="617" type="curve" smooth="yes"/>
      <point x="874" y="633"/>
      <point x="878" y="664"/>
      <point x="862" y="686" type="curve" smooth="yes"/>
      <point x="845" y="709"/>
      <point x="816" y="713"/>
      <point x="793" y="697" type="curve" smooth="yes"/>
      <point x="667" y="611"/>
      <point x="328" y="625"/>
      <point x="285" y="625" type="curve" smooth="yes"/>
      <point x="270" y="625"/>
      <point x="187" y="624"/>
      <point x="168" y="629" type="curve"/>
      <point x="167" y="545" type="line"/>
      <point x="183" y="549"/>
      <point x="258" y="546"/>
      <point x="309" y="546" type="curve" smooth="yes"/>
      <point x="506" y="546"/>
      <point x="721" y="469"/>
      <point x="721" y="239" type="curve" smooth="yes"/>
      <point x="721" y="145"/>
      <point x="657" y="96"/>
      <point x="625" y="95" type="curve" smooth="yes"/>
      <point x="527" y="91"/>
      <point x="500" y="156"/>
      <point x="475" y="185" type="curve" smooth="yes"/>
      <point x="455" y="209"/>
      <point x="419" y="209"/>
      <point x="399" y="185" type="curve" smooth="yes"/>
      <point x="370" y="151"/>
      <point x="367" y="89"/>
      <point x="250" y="95" type="curve" smooth="yes"/>
      <point x="211" y="97"/>
      <point x="144" y="123"/>
      <point x="151" y="245" type="curve" smooth="yes"/>
      <point x="156" y="333"/>
      <point x="209" y="482"/>
      <point x="368" y="531" type="curve" smooth="yes"/>
      <point x="394" y="539"/>
      <point x="409" y="567"/>
      <point x="401" y="594" type="curve" smooth="yes"/>
      <point x="393" y="620"/>
      <point x="365" y="635"/>
    </contour>
    <contour>
      <point x="396" y="-29" type="curve"/>
      <point x="392" y="-65"/>
      <point x="385" y="-113"/>
      <point x="411" y="-161" type="curve" smooth="yes"/>
      <point x="424" y="-185"/>
      <point x="455" y="-194"/>
      <point x="479" y="-181" type="curve" smooth="yes"/>
      <point x="503" y="-168"/>
      <point x="512" y="-137"/>
      <point x="499" y="-113" type="curve" smooth="yes"/>
      <point x="489" y="-95"/>
      <point x="492" y="-71"/>
      <point x="496" y="-41" type="curve" smooth="yes"/>
      <point x="499" y="-13"/>
      <point x="479" y="12"/>
      <point x="452" y="15" type="curve"/>
      <point x="424" y="19"/>
      <point x="400" y="-2"/>
    </contour>
  </outline>
</glyph>
<glyph name="kn_n" format="2">
  <advance width="856"/>
  <unicode hex="0CA8"/>
  <outline>
    <contour>
      <point x="152" y="46" type="curve" smooth="yes"/>
      <point x="142" y="196"/>
      <point x="206" y="218"/>
      <point x="254" y="222" type="curve" smooth="yes"/>
      <point x="401" y="234"/>
      <point x="427" y="-7"/>
      <point x="591" y="-7" type="curve" smooth="yes"/>
      <point x="793" y="-7"/>
      <point x="798" y="222"/>
      <point x="756" y="328" type="curve" smooth="yes"/>
      <point x="662" y="569"/>
      <point x="341" y="639"/>
      <point x="278" y="639" type="curve" smooth="yes"/>
      <point x="244" y="639"/>
      <point x="125" y="634"/>
      <point x="125" y="560" type="curve" smooth="yes"/>
      <point x="125" y="468"/>
      <point x="298" y="498"/>
      <point x="337" y="506" type="curve" smooth="yes"/>
      <point x="416" y="522"/>
      <point x="643" y="535"/>
      <point x="784" y="633" type="curve" smooth="yes"/>
      <point x="806" y="649"/>
      <point x="812" y="680"/>
      <point x="796" y="703" type="curve" smooth="yes"/>
      <point x="777" y="729"/>
      <point x="746" y="728"/>
      <point x="721" y="711" type="curve" smooth="yes"/>
      <point x="603" y="631"/>
      <point x="391" y="620"/>
      <point x="317" y="604" type="curve" smooth="yes"/>
      <point x="260" y="592"/>
      <point x="212" y="594"/>
      <point x="203" y="598" type="curve"/>
      <point x="210" y="529" type="line"/>
      <point x="216" y="532"/>
      <point x="244" y="539"/>
      <point x="278" y="539" type="curve" smooth="yes"/>
      <point x="321" y="539"/>
      <point x="589" y="478"/>
      <point x="662" y="292" type="curve" smooth="yes"/>
      <point x="685" y="232"/>
      <point x="696" y="93"/>
      <point x="591" y="93" type="curve" smooth="yes"/>
      <point x="504" y="93"/>
      <point x="452" y="339"/>
      <point x="246" y="322" type="curve" smooth="yes"/>
      <point x="161" y="315"/>
      <point x="37" y="261"/>
      <point x="52" y="40" type="curve" smooth="yes"/>
      <point x="54" y="12"/>
      <point x="78" y="-9"/>
      <point x="105" y="-7" type="curve" smooth="yes"/>
      <point x="133" y="-5"/>
      <point x="154" y="19"/>
    </contour>
  </outline>
</glyph>
<glyph name="kn_ph" format="2">
  <advance width="984"/>
  <unicode hex="0CAB"/>
  <outline>
    <contour>
      <point x="138" y="323" type="curve" smooth="yes"/>
      <point x="-18" y="269"/>
      <point x="51" y="35"/>
      <point x="214" y="-2" type="curve" smooth="yes"/>
      <point x="320" y="-26"/>
      <point x="439" y="9"/>
      <point x="509" y="59" type="curve"/>
      <point x="580" y="7"/>
      <point x="658" y="-42"/>
      <point x="790" y="-5" type="curve" smooth="yes"/>
      <point x="955" y="42"/>
      <point x="930" y="233"/>
      <point x="871" y="346" type="curve" smooth="yes"/>
      <point x="839" y="409"/>
      <point x="739" y="593"/>
      <point x="458" y="593" type="curve" smooth="yes"/>
      <point x="221" y="593"/>
      <point x="248" y="395"/>
      <point x="358" y="346" type="curve" smooth="yes"/>
      <point x="476" y="294"/>
      <point x="604" y="359"/>
      <point x="576" y="471" type="curve" smooth="yes"/>
      <point x="545" y="595"/>
      <point x="358" y="597"/>
      <point x="283" y="641" type="curve" smooth="yes"/>
      <point x="226" y="675"/>
      <point x="175" y="589"/>
      <point x="233" y="555" type="curve" smooth="yes"/>
      <point x="355" y="483"/>
      <point x="566" y="446"/>
      <point x="905" y="609" type="curve" smooth="yes"/>
      <point x="930" y="621"/>
      <point x="940" y="651"/>
      <point x="928" y="676" type="curve" smooth="yes"/>
      <point x="916" y="701"/>
      <point x="886" y="711"/>
      <point x="861" y="699" type="curve" smooth="yes"/>
      <point x="544" y="546"/>
      <point x="369" y="591"/>
      <point x="283" y="641" type="curve" smooth="yes"/>
      <point x="226" y="675"/>
      <point x="175" y="589"/>
      <point x="233" y="555" type="curve" smooth="yes"/>
      <point x="310" y="509"/>
      <point x="466" y="497"/>
      <point x="478" y="447" type="curve" smooth="yes"/>
      <point x="485" y="420"/>
      <point x="420" y="428"/>
      <point x="398" y="438" type="curve" smooth="yes"/>
      <point x="384" y="444"/>
      <point x="334" y="493"/>
      <point x="458" y="493" type="curve" smooth="yes"/>
      <point x="680" y="493"/>
      <point x="755" y="355"/>
      <point x="783" y="300" type="curve" smooth="yes"/>
      <point x="812" y="244"/>
      <point x="849" y="116"/>
      <point x="762" y="91" type="curve" smooth="yes"/>
      <point x="663" y="63"/>
      <point x="618" y="103"/>
      <point x="537" y="163" type="curve" smooth="yes"/>
      <point x="517" y="178"/>
      <point x="490" y="176"/>
      <point x="472" y="158" type="curve" smooth="yes"/>
      <point x="424" y="110"/>
      <point x="321" y="77"/>
      <point x="236" y="96" type="curve" smooth="yes"/>
      <point x="163" y="112"/>
      <point x="124" y="213"/>
      <point x="170" y="229" type="curve" smooth="yes"/>
      <point x="197" y="238"/>
      <point x="210" y="266"/>
      <point x="201" y="292" type="curve" smooth="yes"/>
      <point x="192" y="319"/>
      <point x="164" y="332"/>
    </contour>
    <contour>
      <point x="456" y="-29" type="curve"/>
      <point x="452" y="-65"/>
      <point x="445" y="-113"/>
      <point x="471" y="-161" type="curve" smooth="yes"/>
      <point x="484" y="-185"/>
      <point x="515" y="-194"/>
      <point x="539" y="-181" type="curve" smooth="yes"/>
      <point x="563" y="-168"/>
      <point x="572" y="-137"/>
      <point x="559" y="-113" type="curve" smooth="yes"/>
      <point x="549" y="-95"/>
      <point x="552" y="-71"/>
      <point x="556" y="-41" type="curve" smooth="yes"/>
      <point x="559" y="-13"/>
      <point x="539" y="12"/>
      <point x="512" y="15" type="curve"/>
      <point x="484" y="19"/>
      <point x="460" y="-2"/>
    </contour>
  </outline>
</glyph>
<glyph name="kn_b" format="2">
  <advance width="824"/>
  <unicode hex="0CAC"/>
  <outline>
    <contour>
      <point x="155" y="559" type="curve" smooth="yes"/>
      <point x="247" y="559"/>
      <point x="264" y="492"/>
      <point x="245" y="461" type="curve" smooth="yes"/>
      <point x="209" y="401"/>
      <point x="11" y="236"/>
      <point x="58" y="70" type="curve" smooth="yes"/>
      <point x="102" y="-87"/>
      <point x="281" y="-7"/>
      <point x="373" y="70" type="curve"/>
      <point x="414" y="31"/>
      <point x="467" y="-11"/>
      <point x="561" y="3" type="curve" smooth="yes"/>
      <point x="778" y="36"/>
      <point x="812" y="417"/>
      <point x="737" y="612" type="curve" smooth="yes"/>
      <point x="707" y="690"/>
      <point x="620" y="652"/>
      <point x="635" y="605" type="curve" smooth="yes"/>
      <point x="707" y="382"/>
      <point x="684" y="126"/>
      <point x="549" y="103" type="curve" smooth="yes"/>
      <point x="470" y="89"/>
      <point x="459" y="130"/>
      <point x="409" y="175" type="curve" smooth="yes"/>
      <point x="390" y="192"/>
      <point x="358" y="191"/>
      <point x="341" y="174" type="curve" smooth="yes"/>
      <point x="293" y="128"/>
      <point x="173" y="46"/>
      <point x="154" y="98" type="curve" smooth="yes"/>
      <point x="122" y="186"/>
      <point x="288" y="345"/>
      <point x="328" y="405" type="curve" smooth="yes"/>
      <point x="395" y="506"/>
      <point x="326" y="658"/>
      <point x="155" y="658" type="curve" smooth="yes"/>
      <point x="126" y="658"/>
      <point x="105" y="638"/>
      <point x="105" y="609" type="curve" smooth="yes"/>
      <point x="105" y="581"/>
      <point x="127" y="559"/>
    </contour>
  </outline>
</glyph>
<glyph name="kn_bh" format="2">
  <advance width="951"/>
  <unicode hex="0CAD"/>
  <outline>
    <contour>
      <point x="167" y="549" type="curve" smooth="yes"/>
      <point x="256" y="549"/>
      <point x="279" y="481"/>
      <point x="254" y="453" type="curve" smooth="yes"/>
      <point x="161" y="348"/>
      <point x="2" y="198"/>
      <point x="64" y="63" type="curve" smooth="yes"/>
      <point x="130" y="-81"/>
      <point x="297" y="0"/>
      <point x="381" y="69" type="curve"/>
      <point x="421" y="31"/>
      <point x="462" y="-12"/>
      <point x="567" y="3" type="curve" smooth="yes"/>
      <point x="838" y="42"/>
      <point x="841" y="557"/>
      <point x="666" y="627" type="curve" smooth="yes"/>
      <point x="533" y="680"/>
      <point x="428" y="613"/>
      <point x="491" y="547" type="curve" smooth="yes"/>
      <point x="534" y="501"/>
      <point x="721" y="506"/>
      <point x="880" y="622" type="curve" smooth="yes"/>
      <point x="902" y="638"/>
      <point x="907" y="669"/>
      <point x="890" y="692" type="curve" smooth="yes"/>
      <point x="875" y="713"/>
      <point x="840" y="718"/>
      <point x="820" y="702" type="curve" smooth="yes"/>
      <point x="774" y="665"/>
      <point x="633" y="600"/>
      <point x="553" y="623" type="curve"/>
      <point x="547" y="545" type="line"/>
      <point x="556" y="549"/>
      <point x="592" y="549"/>
      <point x="628" y="535" type="curve" smooth="yes"/>
      <point x="709" y="503"/>
      <point x="722" y="135"/>
      <point x="553" y="103" type="curve" smooth="yes"/>
      <point x="478" y="89"/>
      <point x="466" y="129"/>
      <point x="417" y="173" type="curve" smooth="yes"/>
      <point x="398" y="190"/>
      <point x="367" y="190"/>
      <point x="349" y="172" type="curve" smooth="yes"/>
      <point x="302" y="127"/>
      <point x="185" y="47"/>
      <point x="154" y="105" type="curve" smooth="yes"/>
      <point x="114" y="180"/>
      <point x="298" y="339"/>
      <point x="337" y="397" type="curve" smooth="yes"/>
      <point x="404" y="497"/>
      <point x="336" y="650"/>
      <point x="167" y="650" type="curve" smooth="yes"/>
      <point x="140" y="650"/>
      <point x="117" y="626"/>
      <point x="117" y="599" type="curve" smooth="yes"/>
      <point x="117" y="571"/>
      <point x="139" y="549"/>
    </contour>
    <contour>
      <point x="334" y="-12" type="curve" smooth="yes"/>
      <point x="327" y="-66"/>
      <point x="333" y="-106"/>
      <point x="339" y="-130" type="curve" smooth="yes"/>
      <point x="346" y="-158"/>
      <point x="375" y="-176"/>
      <point x="398" y="-169" type="curve" smooth="yes"/>
      <point x="422" y="-162"/>
      <point x="443" y="-143"/>
      <point x="437" y="-110" type="curve"/>
      <point x="435" y="-102"/>
      <point x="426" y="-61"/>
      <point x="432" y="-34" type="curve" smooth="yes"/>
      <point x="439" y="-4"/>
      <point x="421" y="20"/>
      <point x="394" y="26" type="curve" smooth="yes"/>
      <point x="367" y="32"/>
      <point x="337" y="16"/>
    </contour>
  </outline>
</glyph>
<glyph name="kn_m" format="2">
  <advance width="1316"/>
  <unicode hex="0CAE"/>
  <outline>
    <contour>
      <point x="793" y="215" type="curve" smooth="yes"/>
      <point x="914" y="-107"/>
      <point x="1505" y="-104"/>
      <point x="1158" y="603" type="curve" smooth="yes"/>
      <point x="1146" y="628"/>
      <point x="1116" y="638"/>
      <point x="1091" y="626" type="curve" smooth="yes"/>
      <point x="1066" y="614"/>
      <point x="1056" y="584"/>
      <point x="1068" y="559" type="curve" smooth="yes"/>
      <point x="1351" y="-16"/>
      <point x="961" y="51"/>
      <point x="887" y="249" type="curve" smooth="yes"/>
      <point x="877" y="275"/>
      <point x="848" y="289"/>
      <point x="823" y="279" type="curve" smooth="yes"/>
      <point x="797" y="269"/>
      <point x="784" y="240"/>
    </contour>
    <contour>
      <point x="63" y="253" type="curve" smooth="yes"/>
      <point x="18" y="130"/>
      <point x="92" y="-3"/>
      <point x="256" y="-9" type="curve" smooth="yes"/>
      <point x="319" y="-11"/>
      <point x="422" y="-2"/>
      <point x="494" y="98" type="curve"/>
      <point x="534" y="46"/>
      <point x="599" y="-9"/>
      <point x="715" y="-9" type="curve" smooth="yes"/>
      <point x="915" y="-9"/>
      <point x="918" y="277"/>
      <point x="834" y="404" type="curve" smooth="yes"/>
      <point x="774" y="496"/>
      <point x="618" y="625"/>
      <point x="216" y="626" type="curve" smooth="yes"/>
      <point x="150" y="626"/>
      <point x="149" y="526"/>
      <point x="216" y="526" type="curve" smooth="yes"/>
      <point x="344" y="526"/>
      <point x="782" y="537"/>
      <point x="896" y="627" type="curve" smooth="yes"/>
      <point x="918" y="644"/>
      <point x="921" y="675"/>
      <point x="904" y="697" type="curve" smooth="yes"/>
      <point x="887" y="719"/>
      <point x="856" y="722"/>
      <point x="834" y="705" type="curve" smooth="yes"/>
      <point x="766" y="652"/>
      <point x="437" y="626"/>
      <point x="216" y="626" type="curve" smooth="yes"/>
      <point x="149" y="626"/>
      <point x="149" y="526"/>
      <point x="216" y="526" type="curve" smooth="yes"/>
      <point x="596" y="525"/>
      <point x="714" y="404"/>
      <point x="750" y="350" type="curve" smooth="yes"/>
      <point x="798" y="277"/>
      <point x="809" y="91"/>
      <point x="715" y="91" type="curve" smooth="yes"/>
      <point x="596" y="91"/>
      <point x="569" y="170"/>
      <point x="532" y="219" type="curve" smooth="yes"/>
      <point x="510" y="248"/>
      <point x="466" y="245"/>
      <point x="448" y="213" type="curve" smooth="yes"/>
      <point x="413" y="149"/>
      <point x="378" y="86"/>
      <point x="260" y="91" type="curve" smooth="yes"/>
      <point x="163" y="95"/>
      <point x="136" y="160"/>
      <point x="157" y="219" type="curve" smooth="yes"/>
      <point x="166" y="245"/>
      <point x="153" y="274"/>
      <point x="127" y="283" type="curve" smooth="yes"/>
      <point x="101" y="292"/>
      <point x="72" y="279"/>
    </contour>
  </outline>
</glyph>
<glyph name="kn_r" format="2">
  <advance width="673"/>
  <unicode hex="0CB0"/>
  <outline>
    <contour>
      <point x="277" y="524" type="curve" smooth="yes"/>
      <point x="417" y="524"/>
      <point x="502" y="318"/>
      <point x="458" y="182" type="curve" smooth="yes"/>
      <point x="425" y="78"/>
      <point x="211" y="20"/>
      <point x="161" y="225" type="curve" smooth="yes"/>
      <point x="115" y="407"/>
      <point x="249" y="524"/>
    </contour>
    <contour>
      <point x="277" y="624" type="curve" smooth="yes"/>
      <point x="178" y="624"/>
      <point x="3" y="443"/>
      <point x="63" y="201" type="curve" smooth="yes"/>
      <point x="139" y="-104"/>
      <point x="491" y="-46"/>
      <point x="554" y="152" type="curve" smooth="yes"/>
      <point x="616" y="346"/>
      <point x="494" y="624"/>
    </contour>
    <contour>
      <point x="122" y="541" type="curve" smooth="yes"/>
      <point x="216" y="506"/>
      <point x="435" y="537"/>
      <point x="595" y="619" type="curve" smooth="yes"/>
      <point x="619" y="631"/>
      <point x="630" y="662"/>
      <point x="617" y="687" type="curve" smooth="yes"/>
      <point x="605" y="711"/>
      <point x="574" y="722"/>
      <point x="549" y="709" type="curve" smooth="yes"/>
      <point x="399" y="633"/>
      <point x="212" y="614"/>
      <point x="158" y="635" type="curve" smooth="yes"/>
      <point x="132" y="645"/>
      <point x="103" y="632"/>
      <point x="93" y="606" type="curve" smooth="yes"/>
      <point x="83" y="580"/>
      <point x="96" y="551"/>
    </contour>
  </outline>
</glyph>
<glyph name="kn_v" format="2">
  <advance width="965"/>
  <unicode hex="0CB5"/>
  <outline>
    <contour>
      <point x="63" y="253" type="curve" smooth="yes"/>
      <point x="18" y="130"/>
      <point x="92" y="-3"/>
      <point x="256" y="-9" type="curve" smooth="yes"/>
      <point x="319" y="-11"/>
      <point x="422" y="-2"/>
      <point x="494" y="98" type="curve"/>
      <point x="534" y="46"/>
      <point x="599" y="-9"/>
      <point x="715" y="-9" type="curve" smooth="yes"/>
      <point x="915" y="-9"/>
      <point x="918" y="277"/>
      <point x="834" y="404" type="curve" smooth="yes"/>
      <point x="774" y="496"/>
      <point x="618" y="625"/>
      <point x="216" y="626" type="curve" smooth="yes"/>
      <point x="150" y="626"/>
      <point x="149" y="526"/>
      <point x="216" y="526" type="curve" smooth="yes"/>
      <point x="344" y="526"/>
      <point x="782" y="537"/>
      <point x="896" y="627" type="curve" smooth="yes"/>
      <point x="918" y="644"/>
      <point x="921" y="675"/>
      <point x="904" y="697" type="curve" smooth="yes"/>
      <point x="887" y="719"/>
      <point x="856" y="722"/>
      <point x="834" y="705" type="curve" smooth="yes"/>
      <point x="766" y="652"/>
      <point x="437" y="626"/>
      <point x="216" y="626" type="curve" smooth="yes"/>
      <point x="149" y="626"/>
      <point x="149" y="526"/>
      <point x="216" y="526" type="curve" smooth="yes"/>
      <point x="596" y="525"/>
      <point x="714" y="404"/>
      <point x="750" y="350" type="curve" smooth="yes"/>
      <point x="798" y="277"/>
      <point x="809" y="91"/>
      <point x="715" y="91" type="curve" smooth="yes"/>
      <point x="596" y="91"/>
      <point x="569" y="170"/>
      <point x="532" y="219" type="curve" smooth="yes"/>
      <point x="510" y="248"/>
      <point x="466" y="245"/>
      <point x="448" y="213" type="curve" smooth="yes"/>
      <point x="413" y="149"/>
      <point x="378" y="86"/>
      <point x="260" y="91" type="curve" smooth="yes"/>
      <point x="163" y="95"/>
      <point x="136" y="160"/>
      <point x="157" y="219" type="curve" smooth="yes"/>
      <point x="166" y="245"/>
      <point x="153" y="274"/>
      <point x="127" y="283" type="curve" smooth="yes"/>
      <point x="101" y="292"/>
      <point x="72" y="279"/>
    </contour>
  </outline>
</glyph>
<glyph name="kn_h" format="2">
  <advance width="1138"/>
  <unicode hex="0CB9"/>
  <outline>
    <contour>
      <point x="235" y="500" type="curve" smooth="yes"/>
      <point x="361" y="500"/>
      <point x="645" y="0"/>
      <point x="877" y="0" type="curve" smooth="yes"/>
      <point x="1064" y="0"/>
      <point x="1092" y="164"/>
      <point x="1087" y="260" type="curve" smooth="yes"/>
      <point x="1083" y="331"/>
      <point x="1026" y="532"/>
      <point x="877" y="532" type="curve" smooth="yes"/>
      <point x="672" y="532"/>
      <point x="494" y="100"/>
      <point x="304" y="100" type="curve" smooth="yes"/>
      <point x="204" y="100"/>
      <point x="150" y="191"/>
      <point x="150" y="323" type="curve" smooth="yes"/>
      <point x="150" y="451"/>
      <point x="213" y="500"/>
    </contour>
    <contour>
      <point x="235" y="600" type="curve" smooth="yes"/>
      <point x="121" y="600"/>
      <point x="50" y="459"/>
      <point x="50" y="323" type="curve" smooth="yes"/>
      <point x="50" y="181"/>
      <point x="114" y="0"/>
      <point x="304" y="0" type="curve" smooth="yes"/>
      <point x="550" y="0"/>
      <point x="741" y="432"/>
      <point x="877" y="432" type="curve" smooth="yes"/>
      <point x="928" y="432"/>
      <point x="983" y="333"/>
      <point x="987" y="254" type="curve" smooth="yes"/>
      <point x="992" y="166"/>
      <point x="966" y="100"/>
      <point x="877" y="100" type="curve" smooth="yes"/>
      <point x="700" y="100"/>
      <point x="428" y="600"/>
    </contour>
    <contour>
      <point x="116" y="550" type="curve" smooth="yes"/>
      <point x="263" y="482"/>
      <point x="657" y="530"/>
      <point x="798" y="614" type="curve" smooth="yes"/>
      <point x="821" y="628"/>
      <point x="829" y="659"/>
      <point x="815" y="683" type="curve" smooth="yes"/>
      <point x="801" y="706"/>
      <point x="770" y="714"/>
      <point x="746" y="700" type="curve" smooth="yes"/>
      <point x="627" y="628"/>
      <point x="269" y="590"/>
      <point x="158" y="640" type="curve" smooth="yes"/>
      <point x="133" y="652"/>
      <point x="103" y="641"/>
      <point x="92" y="616" type="curve"/>
      <point x="80" y="591"/>
      <point x="91" y="561"/>
    </contour>
  </outline>
</glyph>
<glyph name="kn_ma_aa" format="2">
  <advance width="173"/>
  <unicode hex="0CBE"/>
  <outline>
    <contour>
      <point x="-582" y="605" type="curve"/>
      <point x="-291" y="626"/>
      <point x="-33" y="622"/>
      <point x="9" y="592" type="curve" smooth="yes"/>
      <point x="62" y="554"/>
      <point x="141" y="244"/>
      <point x="-53" y="62" type="curve" smooth="yes"/>
      <point x="-73" y="43"/>
      <point x="-74" y="11"/>
      <point x="-56" y="-9" type="curve"/>
      <point x="-37" y="-29"/>
      <point x="-5" y="-30"/>
      <point x="15" y="-12" type="curve" smooth="yes"/>
      <point x="270" y="227"/>
      <point x="144" y="636"/>
      <point x="57" y="681" type="curve" smooth="yes"/>
      <point x="3" y="708"/>
      <point x="-283" y="722"/>
      <point x="-588" y="705" type="curve" smooth="yes"/>
      <point x="-615" y="703"/>
      <point x="-637" y="680"/>
      <point x="-635" y="652" type="curve"/>
      <point x="-634" y="625"/>
      <point x="-610" y="604"/>
    </contour>
  </outline>
</glyph>
<glyph name="kn_ma_i" format="2">
  <advance width="64"/>
  <unicode hex="0CBF"/>
  <outline>
    <contour>
      <point x="-302" y="468" type="curve" smooth="yes"/>
      <point x="-206" y="516"/>
      <point x="-184" y="572"/>
      <point x="-184" y="624" type="curve" smooth="yes"/>
      <point x="-184" y="678"/>
      <point x="-224" y="733"/>
      <point x="-295" y="733" type="curve" smooth="yes"/>
      <point x="-368" y="733"/>
      <point x="-404" y="676"/>
      <point x="-404" y="624" type="curve" smooth="yes"/>
      <point x="-404" y="539"/>
      <point x="-318" y="483"/>
      <point x="-230" y="522" type="curve" smooth="yes"/>
      <point x="-204" y="534"/>
      <point x="-193" y="563"/>
      <point x="-204" y="588" type="curve" smooth="yes"/>
      <point x="-216" y="614"/>
      <point x="-245" y="625"/>
      <point x="-270" y="614" type="curve" smooth="yes"/>
      <point x="-282" y="609"/>
      <point x="-304" y="605"/>
      <point x="-304" y="624" type="curve" smooth="yes"/>
      <point x="-304" y="631"/>
      <point x="-302" y="633"/>
      <point x="-295" y="633" type="curve" smooth="yes"/>
      <point x="-288" y="633"/>
      <point x="-284" y="632"/>
      <point x="-284" y="624" type="curve" smooth="yes"/>
      <point x="-284" y="611"/>
      <point x="-283" y="589"/>
      <point x="-346" y="558" type="curve" smooth="yes"/>
      <point x="-371" y="546"/>
      <point x="-381" y="516"/>
      <point x="-369" y="491" type="curve" smooth="yes"/>
      <point x="-357" y="466"/>
      <point x="-327" y="456"/>
    </contour>
  </outline>
</glyph>
<glyph name="kn_ma_ii" format="2">
  <advance width="318"/>
  <unicode hex="0CC0"/>
  <outline>
    <contour>
      <point x="-88" y="575" type="curve" smooth="yes"/>
      <point x="-7" y="615"/>
      <point x="16" y="664"/>
      <point x="16" y="711" type="curve" smooth="yes"/>
      <point x="16" y="748"/>
      <point x="-11" y="821"/>
      <point x="-85" y="821" type="curve" smooth="yes"/>
      <point x="-150" y="821"/>
      <point x="-195" y="759"/>
      <point x="-195" y="711" type="curve" smooth="yes"/>
      <point x="-195" y="631"/>
      <point x="-103" y="575"/>
      <point x="-28" y="609" type="curve" smooth="yes"/>
      <point x="-3" y="620"/>
      <point x="9" y="650"/>
      <point x="-3" y="676" type="curve" smooth="yes"/>
      <point x="-14" y="701"/>
      <point x="-46" y="716"/>
      <point x="-70" y="701" type="curve" smooth="yes"/>
      <point x="-75" y="698"/>
      <point x="-94" y="701"/>
      <point x="-95" y="710" type="curve"/>
      <point x="-96" y="713"/>
      <point x="-91" y="721"/>
      <point x="-87" y="720" type="curve" smooth="yes"/>
      <point x="-83" y="719"/>
      <point x="-84" y="713"/>
      <point x="-84" y="711" type="curve" smooth="yes"/>
      <point x="-84" y="704"/>
      <point x="-83" y="689"/>
      <point x="-132" y="665" type="curve" smooth="yes"/>
      <point x="-157" y="653"/>
      <point x="-167" y="623"/>
      <point x="-155" y="598" type="curve" smooth="yes"/>
      <point x="-143" y="573"/>
      <point x="-113" y="563"/>
    </contour>
    <contour>
      <point x="74" y="433" type="curve" smooth="yes"/>
      <point x="213" y="357"/>
      <point x="345" y="422"/>
      <point x="345" y="521" type="curve" smooth="yes"/>
      <point x="345" y="630"/>
      <point x="166" y="734"/>
      <point x="39" y="531" type="curve" smooth="yes"/>
      <point x="-18" y="440"/>
      <point x="-33" y="311"/>
      <point x="-7" y="211" type="curve" smooth="yes"/>
      <point x="29" y="76"/>
      <point x="85" y="0"/>
      <point x="231" y="-24" type="curve" smooth="yes"/>
      <point x="258" y="-29"/>
      <point x="284" y="-10"/>
      <point x="288" y="17" type="curve"/>
      <point x="293" y="44"/>
      <point x="274" y="70"/>
      <point x="247" y="74" type="curve" smooth="yes"/>
      <point x="151" y="90"/>
      <point x="118" y="128"/>
      <point x="89" y="237" type="curve" smooth="yes"/>
      <point x="70" y="311"/>
      <point x="82" y="412"/>
      <point x="123" y="477" type="curve" smooth="yes"/>
      <point x="193" y="588"/>
      <point x="245" y="535"/>
      <point x="245" y="521" type="curve" smooth="yes"/>
      <point x="245" y="507"/>
      <point x="194" y="481"/>
      <point x="122" y="521" type="curve" smooth="yes"/>
      <point x="98" y="534"/>
      <point x="67" y="525"/>
      <point x="54" y="501" type="curve" smooth="yes"/>
      <point x="41" y="477"/>
      <point x="50" y="446"/>
    </contour>
  </outline>
</glyph>
<glyph name="kn_ma_u" format="2">
  <advance width="390"/>
  <unicode hex="0CC1"/>
  <outline>
    <contour>
      <point x="-158" y="238" type="curve" smooth="yes"/>
      <point x="-135" y="-18"/>
      <point x="412" y="-258"/>
      <point x="383" y="575" type="curve" smooth="yes"/>
      <point x="382" y="602"/>
      <point x="359" y="624"/>
      <point x="331" y="623" type="curve" smooth="yes"/>
      <point x="304" y="622"/>
      <point x="282" y="599"/>
      <point x="283" y="571" type="curve" smooth="yes"/>
      <point x="307" y="-119"/>
      <point x="-46" y="110"/>
      <point x="-58" y="248" type="curve"/>
      <point x="-61" y="275"/>
      <point x="-85" y="295"/>
      <point x="-113" y="293" type="curve"/>
      <point x="-140" y="290"/>
      <point x="-161" y="266"/>
    </contour>
  </outline>
</glyph>
<glyph name="kn_ma_uu" format="2">
  <advance width="691"/>
  <unicode hex="0CC2"/>
  <outline>
    <contour>
      <point x="-158" y="182" type="curve" smooth="yes"/>
      <point x="-104" y="-75"/>
      <point x="112" y="-49"/>
      <point x="232" y="197" type="curve" smooth="yes"/>
      <point x="312" y="363"/>
      <point x="388" y="520"/>
      <point x="479" y="520" type="curve" smooth="yes"/>
      <point x="584" y="520"/>
      <point x="582" y="302"/>
      <point x="582" y="301" type="curve" smooth="yes"/>
      <point x="582" y="207"/>
      <point x="517" y="102"/>
      <point x="499" y="93" type="curve" smooth="yes"/>
      <point x="474" y="80"/>
      <point x="464" y="50"/>
      <point x="476" y="26" type="curve" smooth="yes"/>
      <point x="489" y="1"/>
      <point x="519" y="-9"/>
      <point x="543" y="3" type="curve" smooth="yes"/>
      <point x="609" y="36"/>
      <point x="682" y="189"/>
      <point x="682" y="301" type="curve" smooth="yes"/>
      <point x="682" y="477"/>
      <point x="616" y="620"/>
      <point x="479" y="620" type="curve" smooth="yes"/>
      <point x="324" y="620"/>
      <point x="237" y="438"/>
      <point x="142" y="241" type="curve" smooth="yes"/>
      <point x="103" y="160"/>
      <point x="-20" y="-10"/>
      <point x="-60" y="200" type="curve" smooth="yes"/>
      <point x="-65" y="228"/>
      <point x="-91" y="245"/>
      <point x="-118" y="240" type="curve" smooth="yes"/>
      <point x="-146" y="235"/>
      <point x="-164" y="209"/>
    </contour>
  </outline>
</glyph>
<glyph name="kn_ma_r" format="2">
  <advance width="82"/>
  <unicode hex="0CC3"/>
  <outline>
    <contour>
      <point x="-76" y="-174" type="curve" smooth="yes"/>
      <point x="3" y="-136"/>
      <point x="-24" y="14"/>
      <point x="-128" y="14" type="curve" smooth="yes"/>
      <point x="-216" y="14"/>
      <point x="-249" y="-64"/>
      <point x="-259" y="-97" type="curve" smooth="yes"/>
      <point x="-274" y="-150"/>
      <point x="-260" y="-296"/>
      <point x="-97" y="-296" type="curve" smooth="yes"/>
      <point x="30" y="-296"/>
      <point x="158" y="-139"/>
      <point x="98" y="150" type="curve" smooth="yes"/>
      <point x="92" y="177"/>
      <point x="66" y="195"/>
      <point x="39" y="189" type="curve" smooth="yes"/>
      <point x="12" y="183"/>
      <point x="-7" y="157"/>
      <point x="0" y="130" type="curve" smooth="yes"/>
      <point x="25" y="37"/>
      <point x="32" y="-196"/>
      <point x="-97" y="-196" type="curve" smooth="yes"/>
      <point x="-159" y="-196"/>
      <point x="-171" y="-151"/>
      <point x="-163" y="-125" type="curve" smooth="yes"/>
      <point x="-160" y="-116"/>
      <point x="-150" y="-88"/>
      <point x="-132" y="-86" type="curve"/>
      <point x="-131" y="-87"/>
      <point x="-131" y="-89"/>
      <point x="-130" y="-91" type="curve"/>
      <point x="-138" y="-96"/>
      <point x="-157" y="-122"/>
      <point x="-143" y="-151" type="curve" smooth="yes"/>
      <point x="-131" y="-176"/>
      <point x="-101" y="-186"/>
    </contour>
  </outline>
</glyph>
<glyph name="kn_ma_e" format="2">
  <advance width="75"/>
  <unicode hex="0CC6"/>
  <outline>
    <contour>
      <point x="-480" y="489" type="curve" smooth="yes"/>
      <point x="-457" y="488"/>
      <point x="11" y="481"/>
      <point x="44" y="491" type="curve" smooth="yes"/>
      <point x="54" y="494"/>
      <point x="164" y="505"/>
      <point x="164" y="619" type="curve" smooth="yes"/>
      <point x="164" y="671"/>
      <point x="117" y="734"/>
      <point x="37" y="734" type="curve" smooth="yes"/>
      <point x="-68" y="734"/>
      <point x="-124" y="542"/>
      <point x="17" y="496" type="curve" smooth="yes"/>
      <point x="43" y="487"/>
      <point x="72" y="501"/>
      <point x="80" y="527" type="curve"/>
      <point x="91" y="559"/>
      <point x="73" y="579"/>
      <point x="47" y="591" type="curve" smooth="yes"/>
      <point x="27" y="600"/>
      <point x="26" y="626"/>
      <point x="42" y="634" type="curve" smooth="yes"/>
      <point x="54" y="640"/>
      <point x="64" y="623"/>
      <point x="64" y="618" type="curve"/>
      <point x="65" y="592"/>
      <point x="40" y="595"/>
      <point x="14" y="587" type="curve"/>
      <point x="10" y="586"/>
      <point x="-395" y="586"/>
      <point x="-476" y="589" type="curve" smooth="yes"/>
      <point x="-504" y="590"/>
      <point x="-527" y="569"/>
      <point x="-528" y="541" type="curve" smooth="yes"/>
      <point x="-529" y="513"/>
      <point x="-508" y="490"/>
    </contour>
  </outline>
</glyph>
